<mxfile host="app.diagrams.net" agent="Mozilla/5.0 (Windows NT 10.0; Win64; x64) AppleWebKit/537.36 (KHTML, like Gecko) Chrome/138.0.0.0 Safari/537.36" version="28.0.6">
  <diagram name="Page-1" id="qV4P5nIWEieCN7GDvDWi">
    <mxGraphModel dx="1240" dy="651" grid="1" gridSize="10" guides="1" tooltips="1" connect="1" arrows="1" fold="1" page="1" pageScale="1" pageWidth="1169" pageHeight="827" math="0" shadow="0">
      <root>
        <mxCell id="0" />
        <mxCell id="1" parent="0" />
        <mxCell id="Ybopkq_XPydpxg8CJSxO-4" value="" style="group" vertex="1" connectable="0" parent="1">
          <mxGeometry x="301.14" y="200" width="120" height="108" as="geometry" />
        </mxCell>
        <mxCell id="Ybopkq_XPydpxg8CJSxO-1" value="" style="rounded=0;whiteSpace=wrap;html=1;" vertex="1" parent="Ybopkq_XPydpxg8CJSxO-4">
          <mxGeometry width="120" height="80" as="geometry" />
        </mxCell>
        <mxCell id="Ybopkq_XPydpxg8CJSxO-2" value="" style="rounded=0;whiteSpace=wrap;html=1;fillColor=#000000;" vertex="1" parent="Ybopkq_XPydpxg8CJSxO-4">
          <mxGeometry x="37.5" width="45" height="80" as="geometry" />
        </mxCell>
        <mxCell id="Ybopkq_XPydpxg8CJSxO-3" value="Camera View" style="text;html=1;align=center;verticalAlign=middle;resizable=0;points=[];autosize=1;strokeColor=none;fillColor=none;" vertex="1" parent="Ybopkq_XPydpxg8CJSxO-4">
          <mxGeometry x="10" y="78" width="100" height="30" as="geometry" />
        </mxCell>
        <mxCell id="Ybopkq_XPydpxg8CJSxO-7" value="" style="group" vertex="1" connectable="0" parent="1">
          <mxGeometry x="290" y="370" width="142.28" height="80" as="geometry" />
        </mxCell>
        <mxCell id="Ybopkq_XPydpxg8CJSxO-6" value="" style="rounded=0;whiteSpace=wrap;html=1;" vertex="1" parent="Ybopkq_XPydpxg8CJSxO-7">
          <mxGeometry width="142.22666500062476" height="80" as="geometry" />
        </mxCell>
        <mxCell id="Ybopkq_XPydpxg8CJSxO-5" value="" style="shape=image;verticalLabelPosition=bottom;labelBackgroundColor=default;verticalAlign=top;aspect=fixed;imageAspect=0;image=data:image/webp,UklGRk4cAABXRUJQVlA4IEIcAAAwjwCdASpiAlcBPlEokkYjoqGhJRWIYHAKCWVu/Ge+ww48C//4ejSz9v5L8yfFerr1D+9frn/Sf/B/num93R7k/0v/m/4/qD8d8mzxD8u/xX9q/cr+4f////95f7wvcC/hv8o/xn93/yn/U/vv/////gQ8wP6/f9L/Oe7p/pP1m93f9p/2n/M9wL+a/1//1dhr6BX9F/6v//9br9rfhL/aD/x/639////9in88/wX/P/P//4fQB///UA///Xv9U/932jf5T+w+hvWm9l+WNE7+M/cL9/5pd7fAC/JP59/sN5jAB9WfOx+m80fEA4G+gB4mf/l5mPqr2DP2A9OD2I+kALVhtsNthtsNkpGVYiF9tLVmQbMBVMR1a9OiUL3Be4L3Be4L3Be4L3BeM8SZs7dgqrykWAMOT1NdKuRB/PrNhtsNthtsNthtsNthgAGiD2O6E1+EPa6FPYjtoZhDMIZgGuQBe4L3BTabK63XC7A2xPhUFwwpJvtudPNYz1ZGrI1ZGrI1ZGrI0CzK5VvOkYc7DKSgw8/hKmV/rR9QqXTOzbYbbDbYbbDbYYdMAN47laUEqJ8gW6/37noQv9JzX0TQCnofXmEcLW65OM8XG7BlNEWwSZpYiGy9+nkLK56ctjnSS8c0pNefomfWFbfHNGJncy33biGLhQ4rky+llIWnL/Q8LTIda2wUmvPvYOapcdHANUr95Q1UaEnMwoalXM7Ppk7L0BSQdo+XPCeWcSYJ5TmvPvKTXn3ledGKXjmlJr09B/FDZhkEZVvyu7wJsxYFN2FrrZqwcDFE1595Sa8+8rzoxS8c0oY7v2CI1G0kfwtrg8/cSAmPHGjEHBAwOr8v3lJr0Vnr3lJrwTc0fF+HMA4Z7n7qKD63y+FZ2eF32Tt1OkszZXmKBf/M+bH3Ril45pXnRil45aCBO29Jx77UcyQKFw1qt5QQV6r50HzOFrvEUVPjDJcewxXvsza011v6vy/eV50YpeNXwwRRr5kbKYxLghqgiYdVoPRhgE4mXz6/9zBPsQEfYZZVTlaGRrDPMlQZTSk15+fT7yk1huZkG2Y3y3W9nSdq/b/p14jDrYENXfQXzPaGapN01WhjtyAo3LPNs37yvOjFLxtL2wWTmbcWLD+Pc2jbqiWmyd3wofHKd9BuEM70IOiT1h7dSkq/eUm65JeOaN9KeObOi2fqitipOKMEO3/Tdbp1ayOQLqmjQvmE1fha0pw/IdHGDm/Pos/3Rs39Ez6v3lEkVmGBY9agjlyDmxDC1u7yqSmalkqPYKIydHF0jjGtxq2mwCBB5wUUrBUOj92qgSH2f+X7ylUzJLxzVpz5rBkOHZeOaJfLEhgkOseDH+AxqCyK7PRM9fe98cQxwpNKTXorPXvKTV77oIJnWQUBlqO95hICNWOPV9F8bdgZFzLixyXTd3G+YEum2OaUmv0voxS8c1rihYdjmFmz96lD/XKGbSc7EA74pOFMKYnUC0WB8t+syg6gEE//8jp4kvHNYOanav59PvKTnPb95SqZlHQkl46OxzSkoAD+/PTXhytkIC9uXWmJ2ZqJ2kzois1UlxLRT+XBtSZxjXGgokZw6TrMXq57pfH2BHRqECE44pPw42MH2aJrN87zWSEciAUyKzL1Og/DFhJDvV/7CSy2uexkoQTcsJBmgSD0LG3O+AdVTSuAnGrSHU7oz5GwuLzelmS+AVNYCoZfX+oT4i/IWVBI1PurQo1MU674syMe2LiTk8RoErszhJGCyeVsWVXon4/4Xu/w3T4Yk0NStfZaKk84PfJAzaaV+RYXNzAwLNaCwqPetj95IwuS/224IT3HW45Mri+3g61UaU0xzSXeviAbKxDBgWvjz7lyrHG4w7L1BKAmu17nZAKGfxhf6luK0MoIIP0jcJ37r0wDdZ/3dcehcluohmIAqCIoltBX/OoYEsXlieDrxIYuhfS2aXpwjTRzwT6DrsM757BoIgEiPJ+zHRaAe2nfkbucnDszf53xV/73nn2EOXJeYkfk7hlzwPDJ1vvtFeKApkRq1oh3Ru/DMEnl1NoqwP0yijbM9zOP9amNS58i4eFpwFZHWydVC4fM3+Dvp2/llqCn+v0wpkSlOpW//YlU3iUMo+dnhIHW1nLs8BFhJ9rVvjDAwwutft4T7nScR2tNoUngn5RP//amLRMBq29T+wJt5BUqZOGw5ejztAADSP1F7AI0e6HHjC0lUrFjAuuF3EONlF8zCKW3cq4BuBfLu/YyAp4TxUCBaNBn1y7l4xVDOujyNyFINgYJWsCNMXJZ5ireKqfF9acA9/VGMWY9x407Ld21HM/aQF6vRy8cSjxlAKvfG7DHeNsWkgTDg7NpOjR8x8vVo6cFTqu8QFHOZ+nOqVXBxF/J230oD2lnGVjp++tkNkYvZuP/b9BVRXJHm01uAq0qboLzfP9an3eiwHRHBHoS/rrC2Xw1yH3GD/jEdDWk6zDX0eBnnitrs/lER2Pfm/RPwHTDYUVL17obQUQXzDa6rLxWljA566Q5veQUMrYDnb+4GAfa8R2jrpfDKrmqJFJ47CCOvdap+SuBa1zEslWpBsJT0BD2hmD21sDzQk6rfP3grfM98LFOcgrJOdNn9k93mL4SFZUKheUkxlAvyHyj+nVrK3ndzdLmS5WHQnBkItJxf8otgM83o/kAdn/ppUgXPMesE5v6nGJx27UTU5jE/x8zwHVzIfxkk99zG/gRIxl2CRqykKbi55CsXQVVlXkt4aCXPII8LBBpwk6xHm89wAzNV2oKURhBEfR6XsxpKa/lx1C3D/VCtJDR5/DjunXqF+37/PJAp98/uzuMrvG+eRcrnB6O+BGNYOPnSLQjwJoKD9uAtfjgoJj1hyDMlhbav5h1XA6PBkuAHJX+cv3pXWp4rYprIR+H6dehAkAuQlg0PtxJnSo35It0SogqYJ/U6V4Yoqyysl0Bv9vh9gtPlnlWvwufRDLs7NQFdyul6vwt/LCtAl4AYZufYfS22E/3sYKNYdpaP7lelSFp6fowwYDlsgbN1tG1cPGlS1ti5+cEZQvVdg51PYjefuUZ6s2r6e24VRyPYxa3RIzyiLknsd7lLNfyGDH+pQhIO09TPqox90/te2nImKFKt5bK8BP8XWE/iXK8xGG86AllqS1adqfA+u64w2/vyheV+Ch81W/qfVpYASWtPjqjYEnoxTa8kxRTf9ARK5tLHYece30P/aPxeWXX1YwdLk2qXGZHi6usbJWk1PwMroYHTh+4oXF5eFdXx6IWj140mPEGMJZ10xxIoC+q+Gig2imgi+0GX9EmDwv9jmNHRSbccInTAIdrkdb59MPhqLwPZ4ZzqZ1tI5ubByMId9rIS3Gfs+z3wQBPYf3Xyt0yUBuANpN15Yu5LCRxgHSYgUmEooX4eHxz9UgqzUxM0/8nlQTozsTcA+N3SvXGFBQEIL1GpPyXWn7//Zf5Rh/BQn8HNJvOXApkLQENmswZqRiYX3TJDm+7B+ylV4ffOyF3bzMdvYkb3nK8u+ZBpQxPQmzZ6nSryNSttggAfX/AGVamYSlqWPZ9sJ4UfDrkkbAHxXUWZrZQb2noOakkok8b9/N2YGuyA0yFFsENmnZ3hS+7CwMZwlhwC6J5GSQ5AsEL6EubRMlbBMl0AAPt71YvXmPjaTDeFnu627Tu8nb3WTdq+vwWAAeQwU05UtJejn+a2VwGYZXVRgYv0R3NIWETqt/dxhsjToEDJfINYRMwZu4LumNtwgVmZxia/nsuKpafo64A153TPAGkhVadm6t2uIxIE7d1VPnpFJWHZMCFoKCpCxXMbbWTKnXgry4sARqxR6LK7BSHhW56fYpQWvTI8D/BwtOz0e9KibdD7/IQCovXF06+6R8WP8BpFldCwseR0ZbLG2opTMlnRMzruGD89q7XnrswfwSi4AE5DIH+KW2Im9SvTDzrV/sMdscd7L9VJxBN1HMKWAeari8ePPUEOikJlkNB+3fZHnZZ0BA+4iL8IlAAaU0xb+rAAAAC06gNi+vCmb/Out07bcB2pDbVX/nuo9puGjGVZl2Y//xFG8zzdP5UXIYcAnOxw+Bvlp+7xUN3w03dRKKJIHQQQ5C/maX6K7b9u6UTdI9dGsRi4QBqikAP/nGELA9RzbRahHYovZIX8Io5VBCQoTzaq0+Kzf9snDQT4ZJIaK5V0NL4xgzkmOzeugXdpAZb077mVnP3AsqE4lMgAHQUr5p8tndT/CjPv36gskzkvAJNcGIRalkYvIPGfjc7RYXb6GOfNf3L6RVL6okSPn3eKsZMyfU+XtWQnevJJH1OVzjP4BXAr5HYQddbguHTVojlKWYzGEM5kMRoMuGVCpnBb0qTeFgELwhCeV1XzpvkjuoAtPDelUEORFJFp1iOaAAAFqN1aqlxI6lcmc4M3fKuDPKSkp7ogQk5KUB77ms2tI8AwVYbMnSDKQ48FiQd100FzXOpIi041T/2XL4M+k84SzbPrb//K++f8WU6krRK8AaJP8fFE5xxz90jMPKxPSIqQ4xTrEpM7YLJ2jr5RJyMVgLG5MidO+DNLuyEISx6IFmouWsBHGtu4YHjt30bnTh9wkis1WHTSzcPPdBHXw51Ssw93UdDjU63JH4DUDoQG2AAAPNsdXWQxSdRnTaXLazI94y+gN1aqlx/uj7/YyBOSJyMO0RfUsap98csj/dunPWf+0CksMKAfhQmcYgQBwkhIzTRUobhea7OfnaZFtNa5JKA4oEBA50Q6A4ZGDrqU3ySHc1kGz2AOqkMK66o4FRIPDUH6xbFIzpREkD8ZQoWT0MKL6nYbX5KtnDQbW6O+HFFKxIdDWeiNCZsCi/K+FoWl8+xI0Dzv7/Yz+VtsJ/jK4UypQfipwtRbMmQvyd2z0c972xE6izF+rQrd2HzDUFJg2QZxHx2yhziv/YKPjqRKwDKE3PPE1FLrD/94OsgOrTHWXqzBdg89wkmaH9x52rkn9DN5Q0GMS8hsfJSyTdgyXKg+inTkETLbhBPJWdrHjWseA4YlTsDHitBTKeLvRjz7EzD7s28+iEKtBw/wMF2BKY9HgHYGPg8Fd8Ysf/kBGpVmfz9xynBJZjbt3Bfm3+xhgCci92nuTYx2P0Psu66s3AYLE+wLed5XVnw6HulJLoTIGw/Y7XpuAabMWmeXQICLObqavAiAJpVLr/I+VS80drb0AD9XoNTJAACbV2xGiwxOPR2v1xGoXGKKcXioT4EqlJ7jQ8FJ5OFD7eihD4g9ZnD1DRRKbtDjNDbPiGykhs/V/dO+kjoNuG/5yAMvxhRxha6WE8k2SXwkZZ+qF1srsnwdeJDaosRuaITqV89YpGe/vw0+LMCGCFue1+kMNcZYCvxLskzEX7tIhPekg8DvjfDmUSHGzlwUcVm780ELeoZdEDNK0t6Y0LEU8nzrSg2w2kNAyt7obvdlVUYw+QVE2aVU/6B3VQaP7pCSltU9GioNw7M3nyeInOZYgeFrDOEcf4c6yihqMoYvgs7JdLFpdXUsy8Zb+2ozYC+VeD7mjuDCbGE/XCUZcKAkkMyaWzydDraYA4j6oDnoS27dBIZCRjXoSJIQT/nfDLdrYta1JYuWlfho0W0fy0kso5J6lBSQ1U8mAhw43bIPaETScR9IQYoBh7FpHbVt+ZfQOzKXb/2G3A3WWXYNtwzMp+K6RxK/HsAbFXxzUKkRofoG2yIWp0AAAz7fzebuz40DYlRV3MQetJoRMjJHHl0AY1sRlJ4V0Ugk9arrgpR8crqrNg5kAagk1ng1gl35FWvIF3Z/EdHoAP20a0Il8MegGtSl9Cimnt/gzpHUidI0gJZ3Hxs+f0VUyC+zCxd6hqZDVysIxEQgWb19Bsxp0rA+VoMfpT3HN8dy5c7XZgNuYw4DtuxO2za5Pu5lY04UV3D8YwIjugXcjdYKeC0bvLGGAn0ym2Q/cE9F3IFqRlPC4NvFlYE/c8Qma4rEdgtvsnLlAniwhJmkd7Yd0o/8ueZnTlqidWp6IeCuzJMTxYgHzwkEu2OWMbRQqMzz1KwfKcOKl3n7frUliiYo3G2NYms6DzO03bHgm4/DM4F+dBjwxNMvDlCO6W3XGKlCJw2Dd0IKPT8OoQHpY/Jv83wy8jQQX46oFgajJZ+RgJMg9OeNnP/VKHaszeriXRNZE/SOdOH6uFQV8UU1a5PPMkO+AGatFYbx9J4pkv2w//QtFOWN522iAzw8ZiDPs6o/cq6DMJ43R8oQ+SuJRLM55vmwZK6+ZUB0EOLKRENEw61O+7Ai7EOMIVxwWTPUcl+FzoBv19/r5rKNO8f6YrzGWy595J+KI/Iyyd6kMPCTCt9ioAS4+U2Xc8U6xp2Ocoe4WlBch6Eh/Ys93BJS33mKRb3h8ofVuNApH7vqYOm0jocUvlFWQ4BhSlRXDK2XhSTGKDfAwmZMwBcRAX1mU4rLfFHb3GrsfeE2Qb9Sb2BEKigShUBhhuzzAOPm4BHvbEMFsGSE/3ht8dbqf+D/AOhAZdDlj2j5XI5udRKwhk8xbcFeSLPHzNLfMFk5WrCyj4/H4NtriiWIKJxfnZXy1UiiRLqxwT8P5pFEFvFYp3u8O5t/X/+luOj1n05wbX0lPcd52pYkPGw1NyykSh6wNmj2FmIus8bV8SEnvsKVZU0LUUM6JNx6RACnSQCYF2hNL1KQ6c7pkCp8vZC1Cw9qMHznFHfOc1oLXYeXZNX5TbqXtVwW5HOMXhlUv4PEkcMn6JOeqWGHlRP7aCsttLBM6kOyDWj6niDtLH4/7wNIJ/CRUKy310ALuQHqNkk9ObzMsq4uCmYkAAVzdxw9vSM8EhIxvlC0S/niBEdmfYQIqNbZUaBs34gXPvdGmqRimXM+8HjyiVW1AY3p4fIIZdSd7Tx73gqo3pXpl9wxh6jJcaHmGP6/3KXZk9wjr7pq6Jo6SV/4pSvm7QJ3Hid0MwiHBs2ivesWiCPddTWecav62V34TGsRVFWKVyALgRp2hO2nANqkMx5EbajADnavdgFSB0DEQYp2OLt0dP853EdSLNTuES/QDRgVJl5z2tLP0MyfoyAnCYpa/65RI5cvPmdFLg9EvBXw5B5wDu2yIUTWGnZFTQppl6Q1Jy4Csl47FAY2iS/9P0rw0Zm6JQwAA6/kixHMRe5HgKw6WJdYbwJrkkE/PYtZGNxX7SadH57HqztU/moRR6EGh7KZ9oWemkEH0+oqUYc5N8u8UESrUkxK/FbWwcCWTTNS6UqYzlts+dsb4b/w7/Fbrv9kV48brrBa3Y0LRpa6L8ToCVbo4aLxKr3mAjlcDW2aY3dOKQSdTYmR+aLp22/GtmJjllDcFAADAwV9sOoaVQesjI7+BTdn6f45/2KPkZ/N/sjT4323D6ORsDhdP8nGjFte61feZY0QDh7wIKt/h/iNvygKVT/1O+WDvPlWQRpgaZRfWP/wIau0YbaJCvOhcRt/Dnv0d8bvkjo8gHvIQZ2356J2vrBYdde6NypnK+q35PX8u48rFWzPU6Fznx9TrVkGnpD0VbZ5fRP/bQkrhXboWzhTb2n+IFC8cwb42yQT/vl5VXndYoLs5HRKZPjrPkiIOVnjT+Mb2Gl4pBfj56cUgF7Vnq52UDCw0/SluvKbfk0L5hfMArZ0O1aJB6RloJ6SgQ8zCt6VNb3bxmFjDgVJYOg3lgAGe6Ax/xtQCmumOU0hbHCFAaloIqRhUrsRUkIhfas5KivAVEBgK1ubrHObGtn+n0fAcsXkQTv7MnJYKyO5a0VGAQWhHWoSGDH5Pw6kl2JomS5pOzyrYOzIauFx1MGgnNPbxJpqPiaYu1ZFONEPD7j9i1PA4PB37xynwBfmW/nieEfuGh4wpFKz66X6Oj6WO3RIjWW2hP7/qxoXqQfMQiVmccbE43yp0dAHTdtcQ8Lni2RhuJH3K48QbBgW+kE8xGutkyxHO0fv2fYmrMaUZyBDQPZW5/3hHkE2hoiotAMAZdlyiLwe/zpiWPNur3Rj23DySti5qU0Vza+m97CmJ0MoGPE6x51o8T8B9yDiSaD0fRpmvk4cWBh+x8HG181io/CHB9gjKIGo/rkF2VgzNtkTYIDFcr6Ngonvcs1ITT7yNdZD8iq8itRsxVmiWsrLZ9EtAPdt0EmRQAL7XhoBCfXe7pu4eTMuJOXnJd/sE7HmUqb0c41e1EKhV65FD1Q9LanOSEJcC0+AK/VMrl5SgJ5OJ40oxCxYJc6HtT7kOO73YN68o28ljwKcUESuByeut4erzZARhZsVXBO/zdmcdtxqPE0A7NK+POeiw6DRgsBgAOhMiOPSV6nGrpNbvwMEpr7tTsao9yJbN2n3ivD+hceL9ZqkgR5Tmt0Vg6aKoL5bKO18MAPUX0WphAlnWoGFCykucs5l2CGXF6SJg+ptPqw2U7IgbvAxnpYmbR0DIgLXv1Dl33iikKakmhwDrpU1thETlaK6hiDYp0MqEb08Z3YruV7XjHiXY2J/FXixkIG4lANkNbaLClAZy0L8dLl4lhiOAVh8pVbR7D+IEn99g71Q/lcdQ2mQEkZM3wtkq1/hAwLIBjLcaNggmD4C4gxAi1ETFZTERjW+1VByykk+u9g4GNbK0oig223VNjBDIPnct+M+7crry8f0AnYut3eGzQWyM2UjueqG+bWKrJVkKBqQA0N8qXa79j21T5anxR2mIbfAacGAWkPD92z5m5+tq2UIMVvvq0OrwQ2tNS0bu22x8u1q55mrXJ+gRA4kS6QMt0UazWqbWuKJRIm0UpzIskzAAXyveYz41VRlL3fVdj3AVdZslsPf2Qq6L1EzwjKtiNvChCxCFOiBPQ9xNHG4OmP+oRfE/yDMmvK9IMI6cSTQ5CxYKdlyLMC7O3SbgRkbvuURlb1zxBn8ged3pBq4gdKH6Rt/Tmm+m96IHVYHGs1CAPm26TcLhPu1NrysoV7YJ9ndiRfJNcRxsBeI6S/9H6pdgT1CVM48wycNVxtZfJMjoU2/7neIOHsYyHRDVl7xPKv9CbRoQuZtxHtDAp8lKxpwFo+7n54/Njm6dty5dMMe8FHdtbe10tDE5uMhSiHyiFjQmUzVWYFGeamcINebhaHf6OnlAEcqmJq2n7LdEZRGvkIB0VgrmAtOn0z8629rrX5VFYCJwVKOqq/M+4LG8LXH9SQG0wkjyWyAIJgnD5smOwYTGKCE+Zf2huoDSsUYUG90K3uGTI+sJcU7LXDe6ddVagYtPyz+0B5sEgAlQMtrMuvHeJJ6ZOKOdhO6hq3a/V+cWDR5eDZxBjHk4SmoG5IEoTugWfoJ9JEOWCla/SDhXFcqxiJ2nTIMJ855pAXKvWaeprPcGzsnM+GLPyH5od3bHlNq61Fw/RZXTq5Lv2AMaA/ELRYeuHoAsjlVMCderI9CgAzdqdfXRhgcFL7R5VzY/8tBjDmIKbTLByx+83RgA9TP9PNOTXhIWpwG/zSmI1jC8W+W3d1h8JHd/9jZq3o5xlFglkccttVuM46tV8UPz1d0aqh+6IJQdctJnKKwhJJhxzE6zcytHlARIoExJGFiD6OsDunY3M/5KSvOnvcS/wsajYJtW4xM8z6uWM9CPxl3RfJO86Bn7Piy/MvedYte8imtHoEkXvSk/mSKLl3KuioEQNggxk9f56+w23YjXDq3XidzOujnLCBeMryKAUQAAAACngIhgAA;strokeColor=#000000;" vertex="1" parent="Ybopkq_XPydpxg8CJSxO-7">
          <mxGeometry width="142.27555555555554" height="80" as="geometry" />
        </mxCell>
        <mxCell id="Ybopkq_XPydpxg8CJSxO-8" style="edgeStyle=orthogonalEdgeStyle;rounded=0;orthogonalLoop=1;jettySize=auto;html=1;entryX=0;entryY=0.5;entryDx=0;entryDy=0;flowAnimation=1;" edge="1" parent="1" source="Ybopkq_XPydpxg8CJSxO-1" target="Ybopkq_XPydpxg8CJSxO-5">
          <mxGeometry relative="1" as="geometry" />
        </mxCell>
        <mxCell id="Ybopkq_XPydpxg8CJSxO-9" value="OpenCV" style="text;html=1;align=center;verticalAlign=middle;resizable=0;points=[];autosize=1;strokeColor=none;fillColor=none;" vertex="1" parent="1">
          <mxGeometry x="326.14" y="450" width="70" height="30" as="geometry" />
        </mxCell>
        <mxCell id="Ybopkq_XPydpxg8CJSxO-10" value="" style="rounded=0;whiteSpace=wrap;html=1;fillColor=#f8cecc;strokeColor=#b85450;" vertex="1" parent="1">
          <mxGeometry x="504" y="270" width="258" height="140" as="geometry" />
        </mxCell>
        <mxCell id="Ybopkq_XPydpxg8CJSxO-13" value="" style="shape=image;verticalLabelPosition=bottom;labelBackgroundColor=default;verticalAlign=top;aspect=fixed;imageAspect=0;image=data:image/jpeg,/9j/4AAQSkZJRgABAgAAAQABAAD/2wBDAAUDBAQEAwUEBAQFBQUGBwwIBwcHBw8KCwkMEQ8SEhEPERATFhwXExQaFRARGCEYGhwdHx8fExciJCIeJBweHx7/2wBDAQUFBQcGBw4ICA4eFBEUHh4eHh4eHh4eHh4eHh4eHh4eHh4eHh4eHh4eHh4eHh4eHh4eHh4eHh4eHh4eHh4eHh7/wgARCAJ2BLADASIAAhEBAxEB/8QAHAABAAEFAQEAAAAAAAAAAAAAAAUDBAYHCAIB/8QAGwEBAAIDAQEAAAAAAAAAAAAAAAMEAQIGBQf/2gAMAwEAAhADEAAAAdtgAAAAAAAAAAAAAAAAAAAAAAAAAAAAAAAAAAAAAAAAAAAAAAAAAAAAAAAAAAAAAAAAAAAAAAAAAAAAAAAAAAAAAAAAAAAAAAAAAAAAAAAHw+qdEukbbkyhxMIryTCFuCSUKp6AAAfKZVWFoTPyJ9kn9i6ZMoW4JJaViq8+gAAAAAAAAAAAAAAAAAAAAAAAAAAAAAAAAAAAAAAAAAAAAAAAAAAAAAAAAfD7Ts6JWtpW+IG5lRaXYAALS7ENa5GIe8oRpNov0SNGLuClXlqpY3v0AAfLW7EZbTgx33P0C1rWFAl1KqAAAAAAAAAAAAAAAAAAAAAAAAAAAAAAAAAAAAAAAAAAAAAAAAAAAAAAfI26pFWTeD2x/UpvqF5eszeuB4TRxjKvllZaa3Wc4XCZztfPOcbXbPWsvx5u/OdqIiXLP5ej59eD3TwnThumE0F7NmxWFzGmtjleGTuMedlaWq77dD53xneZz2A5b3kZlRtZAx2SvIEmHz6AAAAAAAAAAAAAAAAAAAAAAAAAAAAAAAAAAAAAAAAAAAAAAAAAAAAD4RM7A5EOd+iOYzD01syrBr/IcmuqFPBM1rIYoiV9NNbO2lWcx2E7HSb68wve2LW7Gv8Apjn+zv3Os1rdb7eOc8k1NjFvI53M0quKZBOqFTHsg+o9LP7dsYjbDIW22Efc2py76Qp7nxu9bwbqrkvqq7ayKHmLIp17C/AAAAAAAAAAAAAAAAAAAAAAAAAAAAAAAAAAAAAAAAAAAAAAAAAAAAHz78IrIMfyAck9bctGO7ZwPaXm0fY86lSq/IjbaYYxO5zdDTQAChpvdeF3LOQbP5d2T6/par2Pg24/Pp/R5lAAA+Y9ttkVKFl8rgaatR7cxe1PrLo7nDp/2fUyy2ubIsJKwvwAAAAAAAAAAAAAAAAAAAAAAAAAAAAAAAAAAAAAAAAAAAAAAAAAAAACHyKGvC90HvzCDnPPdd5/Ur5sPH8wDziGYt99f5j717Zn2c13nkENwIo1rdDRNWtZ9F7We51jWS+J5QQRDFt9smxLFc3tWILMb9BCEMYEdrLZmpvRu2nY3PfRPpXkTLY8X1z49gAAAAAAAAAAAAAAAAAAAAAAAAAAAAAAAAAAAAAAAAAAAAAAAAAAAAFKzkIkyFSqnHMttfRmuu77jXOw/E8r2IYwAMUwPc8ZcsxWUaZnJN9lWvnWteGA8nt+rn2c6P2j5fnz9hE6201l7qazOTehXPPpgADHdto/XdzP+36m2tk29xNLTgLqsXIAAAAAAAAAAAAAAAAAAAAAAAAAAAAAAAAAAAAAAAAAAAAAAAAAAAAAFCuIuegZI+cl9g4wc+bJ1NTqVt0rC/8AI84MYAAtdTbj1rdtYn8PW9EAD3szWu6qFS4Hl+eAAPh8w6KxD0r1Tecbuf0Lrz6hcraYt7kAAAAAAAAAAAAAAAAAAAAAAAAAAAAAAAAAAAAAAAAAAAAAAAAAAAAAAA8RMzHE2sb41Lo/srGTm3McBv68O4Wtp3zKGWHyvD9RGJzS5Hqr749b0QnlAAZVirTTevrUea+T52TqNarAR2GTS5hgHyA9C58yTNd23bVOuFvDJIqfQAAAAAAAAAAAAAAAAAAAAAAAAAAAAAAAAAAAAAAAAAAAAAAAAAAAAAAAUK9uW03CzQI0jeepDDBK2Mzie3jso+5uYeyHHs0z3lyTG5zKvs3TQSdZu4vC7CYqarZ1hkXNUFTJMRYxIz1NasIaViNKGSbg572ztHu/159C3uIotJa0uwAAAAAAAAAAAAAAAAAAAAAAAAAAAAAAAAAAAAAAAAAAAAAAAAAAAAAAABFyEaSt2FjzFkOvT7lF7PS9R49kvRiKxHHYj6qV+EzSaLHdBmYABY3xprHPsaiYOP2WtLufsFrdGcEhtp4ZDymU9B8Z75j8DacbJfCHv4WZPoAAAAAAAAAAAAAAAAAAAAAAAAAAAAAAAAAAAAAAAAAAAAAAAAAAAAAAALG4i8jPuJZboM1fkWPbK39i5E/aDH8V7jB/PmDiQ1o59LavymbrMnUqsnvgyA82eI6+bQjivxF3n+tbnf0tlrG+n7R59G2ufWS4VX4PsWvrnY2tCDvVqX4AAAAAAAAAAAAAAAAAAAAAAAAAAAAAAAAAAAAAAAAAAAAAAAAAAAAAAHn1ZFpkUTLDlTqvjkvNhYTm03YPNhhubEljhDx5PZNtdwGrslt6mrfO0IHFPEJKwo6eRkHrHWbE7Y2FfGlG7y6a39fBvGeNr+sKW0cf18zE8yw2lr5+1GHZZN2LWO09Z6eNs7e3OXRsXM/McySDJH7bXIAAAAAAAAAAAAAAAAAAAAAAAAAAAAAAAAAAAAAAAAAAAAAAAAAAAAAPJTjE8VSwPnIuZYWX95CM2fvwxW9ZpSyObqgk6IACx19s/Fo/AxQQ8l9z/Gs5l6cJelAAscB2ZG6eNr25t/kHHZZjFKtm1LdWcb5bin0/5j5IxuVuIQmHn0AAAAAAAAAAAAAAAAAAAAAAAAAAAAAAAAAAAAAAAAAAAAAAAAAAAAI2/jCSvgtuY8s1Yfcnucjl6fH8L2prPEFvJRua6+fPfSx3gAAC2uTXVarSq/NsyyKFmrHehteAAAwzHtha9g4m72PhOcb+xjOJbTx7ENj0/wAd7ci5feEZJiHvoaYPoAAAAAAAAAAAAAAAAAAAAAAAAAAAAAAAAAAAAAAAAAAAAAAAAAAALVaTJWhpnUJpSYhNg7+pJifuGvtg4BH4MVsrWu08VPol6kAAB8+2TTXXkq/Ns0yDDsxsdyG3pgAAfNX7R1rFzcvmeF5ptcDf2MCj8zwWvwvX19rXZWvmw1yty+AAAAAAAAAAAAAAAAAAAAAAAAAAAAAAAAAAAAAAAAAAAAAAAAAAABC5JjuRDnbonmcxDZ2t9ky9SEvRte7C1jHz1HZms831ozom68AABjGQa5j8KgIeQq7J1jku/t5eJ+xAAA+avzzAIeUls+1psva2EnQUdY7T1ZFy+3d36D35FzdCImIYlQAAAAAAAAAAAAAAAAAAAAAAAAAAAAAAAAAAAAAAAAAAAAAAAAAAAQ2R49PHvnPozTRp7Z2q9iS9HICXqbXWua4VDx6Qj0fjbS9YNmljuqo2vgPFvhOvm+opIQcbHskq5s4snIrFXKsj1ZkUnvZioV5elBs808N1oW8WV+GbN1lm0nszwm6+01tmWGw8duXc+C51H4ljaK5cAAAAAAAAAAAAAAAAAAAAAAAAAAAAAAAAAAAAAAAAAAAAAAAAAAAAtPVaLMhx3IhxpP5LrvM+00Kn7nHIgr8ICJcW5nJb/C23p5hGQRp6v6meZtWEkT9aCR59GMaxLaURHz+CycX5i5nIaEKWPfgxSK8vmxAzFzB5l2f4hImXq4yvF79g4nZdRbNYaWjZQAAAAAAAAAAAAAAAAAAAAAAAAAAAAAAAAAAAAAAAAAAAAAAAAAAAARknTPt7j2Qkdyx1xos1R8C7ym9k5uvgYnNG1rVvnYuDw8xZDXzXvxO5myy7LP0MG4AAGH43sbXMHFBp5DIrvJ5ekpVSXp0VKsR6rXlnW+dZz0nqvajVBzeOEpW+fQAAAAAAAAAAAAAAAAAAAAAAAAAAAAAAAAAAAAAAAAAAAAAAAAAAAACKlaNoTeDZz4ONvUjHm0Ppa+mALe4Ndb2ex9eV+Ip5XimVGVCx3IAAAHzVm0NXxcwySI2Jiv7E3XgAYNCT0RW+f9VzRinHUKd6VQAAAAAAAAAAAAAAAAAAAAAAAAAAAAAAAAAAAAAAAAAAAAAAAAAAAAAfIaajyaWN8aI1V0Hz4bPqwc5Z+iBmwAxfKKeKur5eOpV+D2mjpGz9CBIAAPLEPgslQr8PmEz8+z9mGZgBRa4JdQuxqvznoM8o8floiZAAAAAAAAAAAAAAAAAAAAAAAAAAAAAAAAAAAAAAAAAAAAAAAAAAAAAAFKr8I2dxzIS15I7D0qax2BqvMZOiyMTdUABhEFleKV+Du8+1tWSbOY1Pz9dWGbR5iMQy+HWEbFy7IceyvWllIsd2AAxaa19Hz9PpDTPUMPJ/Y2SgC4vadQAAAAAAAAAAAAAAAAAAAAAAAAAAAAAAAAAAAAAAAAAAAAAAAAAAAAAAAtad7EmQ0Fc5axrrfmsvsh1XLy9HnqIlZOj9FjnfHsarUa3z8MVn359Lr1T9Zs0KdehiAGrJcarZs7OWN9Z+gHyOayUZj+PxeDX9VOjouXvsiUWKMdSlT2AAAAAAAAAAAAAAAAAAAAAAAAAAAAAAAAAAAAAAAAAAAAAAAAAAAAAAABTqCGnrSLMkt6lQ0bqvsaKOSPeaYQXVt8NhJNqGR5FUn62wvfTf1wSKdQxFQeYtaGrvGZ4ZBx/25tWKvvw2W11rsHds6Q8wpHyC+SoqgAAAAAAAAAAAAAAAAAAAAAAAAAAAAAAAAAAAAAAAAAAAAAAAAAAAAAAAAAoVxC5HFeSYA1dtEciR3YWrTR8x7hEu0/uH5dZ7v0M3AABjOK1vjLIa/CY9Obh2XivgufAAxu/8FxWAAAAAAAAAAAAAAAAAAAAAAAAAAAAAAAAAAAAAAAAAAAAAAAAAAAAAAAAAAAeD5F1axLgAA8c79F/DjSS23ptJmcvqyrJ7uz2vvu13YEZgtDFSYh6m2IvBxLpOpWRAAAQN8jyWefQAAAAAAAAAAAAAAAAAAAAAAAAAAAAAAAAAAAAAAAAAAAAAAAAAAAAAAALUuKFjeFK3lrgx73kQipUAAAAEfIDU+E9HDlbz1WObcw3EIiXAAAABFygxqpkNEja3qgXPuOpEutrg+gAAAAAAAAAAAAAAAAAAAAAAAAAAAAAAAAAAAAAAAAAAAAAFErfIoSn2K8kwh74unn0CieLSlkR9AAAAAAAAAAAAAAAAAAAA8+hBfZyNK3qE8k4h/ZK/YfwTaI8E0hqxJqdQAAAAAAAAAAAAAAAAAAAAAAAAAAAAAAAAAAAAAAAHwo2HmfPlQAPEZLDHKk/akdZzF8UqwAAAAAAAAAAAAAAAAAAAAAAAAAUawKFcY9J1IwkwAAAAAAAAAAAAAAAAAAAAAAAAAAAAAAAAAAAAAAKVW2LacipUgub99czE22BeGL7x5w8HVzz6AAAAAAAAAGtdlaWI7fXLvUQAAAAAAAAAAAAAwDP9PGr0ft01pmklq46v9c/9BnMXRWld5EjjuRQRJfadQAAAAAAAAAAAAAAAAAAAAAAAAAAAAAAAAAAAAAAWd5ZFaRj5AwzmbpnmY6zmYWYMX5d3Pps6lySPsy/wHSdsb0y7l60OjM+5H64GMxHORvad0BFnZTRG9zX8/wAw2Zv/AOaJ+nWUhyH0uZLpbdOljBt181je+Uc4xp2Y0ruoPnO5tGC0pkxuzLuOdrm78eyHRBsn3zNbm/tl8rdOmLT/ADRFnQ3rnXPDcnjVNI6EBg2Rc2bLNv6e3Dp41V1tyT1sNVbO5/NfdkcmdOmG7D446dMvhpmHLitb3AAAAAAAAAAAAAAAAAAAAAAAAAAAAAAAAAAAAAAAtLu1PsnFyhhnM3TPMwb1ujQG3MH8nVXPPQ3JxIdMaq28UebOmdXmluueRuuTRmAdLc5m/qvLEidG5drfZBx/kOPbrNl+rgcy+tk6KOxNLbp0sae6W0T1UNX7QHGnVXLO/C60DtjTR1tLcZjq3l6zHVWqc6wU1XvzUvVQByfGyWem0ciDQFGtROhQcqbL1pss3Bp7cOnjSi/3uc81+g8tMXyaXiDkrpzmPpwzCKlY0+XNneAAAAAAAAAAAAAAAAAAAAAAAAAAAAAAAAAAAAAAC3uKJQl4aZMM5m6Z5mOs5mGmTBebeq+VDr7nfYWQmqOiuN8oOoOf4PDyT655G65MbvdJ4AdTahi8XLPsLmHp44/znBrM7Mcv+idxjHuizPtLbp0sak6s5Lvzr3ENN4cW/TmoOjzV+i+veXjo6U5Mzg3xQ5nnTovQ++NDmPdM8zdMgHJ+ztY7ONxA0Vi+9+YDsWhzJaFjtvSe7DcGntw6eNVdbck9bACIl4g5K6c5j6cMwj5CMKd7a3QAAAAAAAAAAAAAAAAAAAAAAAAAAAAAAAAAAAAAA8e/hGT2PzZZ6c3oKVUGsNnjFcqDF9Y72GiMw2ONNblCnrPaA0DM7lFjfBx/svWm8TGfm9himVgwzMxqLxuAaAyraop1AWl2NPwG/wAaf2peBg2cjWWzQA1HmOVgBjGQ85E7b+8LIPoHTfUpc4tlI09uEAFOoNF7mvghZSFJGr8+gAAAAAAAAAAAAAAAAAAAAAAAAAAAAAAAAAAAAAAFKOlvJbffXwo07z0W11Tol1Rp+itcx1An2NibtrSse/fimSvvG65OvHs5m3DnAEUXsdayBRrqZfXEDSJ+yj7k80r72WF1UoElUx7yTVtZ1yrXs6ZI0rP2VPvgV7yJtTI0BLlxp/cA5wyLdojpF8PqHsiXs1yR/wAlfpG3NeiVrf5VLCT9egAAAAAAAAAAAAAAAAAAAAAAAAAAAAAAAAAAAAAAAAAAAAAAAAD5QuBDSNa0Jfzj/oqfbmuPoAAAAAAAAAAAUo2X+EdK21iT3jH/AEXljf3BbXX0AAAAAAAAAAAAAAAAAAAAAAAAAAAAAAAAAAAAAAAAAAAAAAAAAAAAAAAAAAAAAAAAAAAAAAAAAAAAAAAAAAAAAAAAAAAAAAAAAAAAAAAAAAAAAAAAAAAAAAAAAAAAAAAAAAAAAAAAAAAAAAAAAAAAAAAAAAAAAAAAAAAAAAAAAAAAAAAf/8QAMhAAAQQBAgQEBQQCAwEAAAAAAwECBAUABhAREhMgBxQwYBUhMjQ1IjEzNhZAIyRQgP/aAAgBAQABBQL/AObeOcf9HimcU9/K5MUqJjpCZ5rjnOdc4TM5Jef9lueYVuNkIuNIi5x9BXomOOiYsnjnGQ7EFLXFFLbnMduJKTGyExDJiPTOPvVXImEOiYhClxI0h+NgsxsYDe98YDsdCVMVTBwZkXEXj2PIiY46ucyKR+MiAbiIiJ2KiKjowHY6ELFiGTF8yPByUXGkRfeKrhjI3GCOfBRAs9Y0NjscpgY2SmLITOu4ijiEfgxsG31ChETHxHtxhla5ruPu85cjRuXttrSHVh/zaBz3GqbGYWLqK5j5a6gs7HK+2sYGO1tO6MDW0hCO1TSIyus4Fim7osd2JEjpiIjU2K9ghu1TRo+41hEj4PWtkhLTVVpMWNOmRjn1ZdEaG9uBFi62D5as1VWTTdhhMK1yPjPG7inuwzuDYA+Zce9o2fG6jqai1VKNILOmlUhHkUQTFxyK1YVe2aOXCkxci1/nIpRvE8gCDFkY5ox63WUNYlbZQbFnYR7BsNqylGTUd7Itz4xrnuOJwSwKs8lqs6hh00jpk5Odkc72Z5qTxg39tEJXajrJMCHNhzEwjGkYPmEVPdkx3yG1GDzXFoWVabVEWDMx9BG5Y9PKizCiGVsavjRpKoipGjAjZYQQzRAiCHBWrNHtryq6W0KUeHJ07bit4Wz3NYzVd+S0NkCISYe4renGqa9kIXwmOs9U4pFjAjNlgZKjxoMSPl3FkzBh0+zJVRXRgv5efIsg0WRSzfiFXli3goV4t91u/VL21hDfEvqgwRSvIw8ZHjjX0gVLBWd3XeUfTWBqyfDkClxc19cK58cTzmLUMSrrog4cf0SMYRFhQ1y9WJEj5pqI+DR5OTjEir+n3Uv7M+/2t5j59j0yclKfzFfs8jGekcTDBmAdGk+Hdl+q8nNrasj3kJp2H0Y/ouIxq72pCS7FUVF0LLJKoclfbQ/p91Ln0y9tT17q63pbDyZWOa9u5Iatx1iaK6PIBIb36ojcwa6U+FO8QrFp3VcfzU3vVURJFtHY4Y58nAhEFN7uySMzNJ17q6lycvCJFT9PuuV+lU+e3iO53xiOLrGpotjEN2OajmzKb9QbeXEJElx5Te2WJDxsKR5XaVD8u1zmsbNvAjwUSws1hxARGdlgkpY02CeMxPlguZRZZO/QBODfdcpvFsJ/PHzV1N8VguRWupLXn75UYMkc+qkQ3QLwjMAYRx9k773NNonwzssLkAM4z7Y9bUgi99hMFCDLkFlH0XSrYS9pH/JOZ+3usicWwXch9jjeE1UCHJfHH0Q99pTjkY18qBIrLgUneWZseO5VcuaWOnJtMlgiDsbU8vKqoJJwAhgH33MOG1V/fw6Y5tFhXoMcNq+7pCK1wSIUWa2oWmZlZdPFjHI5vfPhBmCnwzQy1Vu8GEkx2At7F01+wCvCWsswzG21qOJhSGkmqKdB+ja2jIeSTlkl01UOt58YAo0fLF/FQt4N92lbxSE/pGyeDzUKXHNEk1do+IsWSCUz0JQBSQ2MIkI/d+p7qWsSK30FVESzuRNQj3Ef4eV5QRce5GtDxIRPd8ofFIhusLL6kiW4rOGSBOhMI48FspgfQ1NIQkruE9RljlacHoXYpybaS0yEoNp5Od4W8E93vTijXeXk7a2oDSiqitWLPlxsrLaRJL3W9iyGNyq53fRWPlXIqKnbZSSRQyLmaXHuc91FSy7U8cTAAySVAijMX3lLZxbAfzxtrulh2YDiIA0axmR0bfykystSzJG0iyhBybekfjnK53o19lIh5Fu4hcEUZUyxkPjRnagPhrqc/HveR2h6MMoTGtYzaQ7rymJwT3ib6axf173FLXWSXkWtiHyPYTI4yWc96FMUvbHjHPgqnEq42LVxsLUtyRCkB7UVUVk+axfi9hj3Oe/T9UltJrtIVsZWtaxu0l/TBDZ8veRl/TWJ+raynRq+JqDUMu1dghEKoqo7sbUjxakWSKx4x41qudCrWs75leI2GE8JBtV5GVC8PhI8dUJhq2SzHIrVRVRdOasIJWOa9m1n/BG+n3lLfwbEH0gZPlBhRL21kW0xPmsKs4oxrWN3uZKIzKyIgB+hMjMkie14SwZLZIdzgEds6A+Pto/UDoBNrJvGNFX9PvF68EA3rSttbW/n5+VkJAt7LCW2Mxyq5weVTeleNRJUYzwFinZIF2WkLo7aBt/MRsciObH4jInvGS7g2Azlj5q2wWupcpo3O/ssJrY6Pc579q2SkgPoKqIlgfzEnIp3xyRjskC3ciObNAseRXSiQZ0crDx8nt5DjXi33hL4uVEREzxEl9W0T5rGEgQb2FggscquXcb3DfFtGrg3sI3tkyggybPJITeOYgCRJI5I97oXPGzw/l9elye3mjRXcW+73fsJOpN21IVT31aznnbKqNSfYq/sYIj88tIxUVFxrnNUdhKZnxWRiWxsdaSVQkyS/YMY5sbWSlR9bKbhBvGuDe8b4Fg025W84s8NzK2xxfmkbiMnu+Q/g2uHwZsd6kNRpxmZLmBj5MllkrtErSFwMOOLd7GvSVVjdhRvE/sCN5iRK8IexzUckusY7CMeN+QrJzMG9hGZIThI0C7l1FtPZyFC/inu0juCDYsk21jLHBgr81hSFjGkWUgmL81xEVVr4DQp3TIzJIiMcMm9dG8uHulxhyRyAvAXAGKFwbZOUruclFOWttREYUePaj28HRisdxT3W5eCPVxiiG0Q8ny48GLqPUEi2f208XkZ6F4H5bU4epK9CwjJJCqcF2UZEZmn72VUlrZ0axiYcbSjErhkT5+65ROVsMPSHko4osfUVua2mZBreOT4A3A2rgdeT6MkfVj7UTeEf0boHIbIg+tJ4Jwn1qLipwXT1sWpnRjCkAyePmHHfzN90uXggk60vbX1t5iVlXC6abSW8kjKQXLG9IqcpMpuHkvRsh9SFlI3jM2tofUbnh9aqw+zU6MhP290SF4NrW/8WXc1K+re5z3VMfrH3tE4T8iN5I3pOXi7KJf+r6T05XUX3O9pH6EkBXgNXyWzIOWKcHiXi33RNdwaBvIHPEmVwBlYLpQ97X7/ANOa/kibUROB/Sl/dUX3e9wPnh54eSerTZYJxixl/T7olfqdt4gF6moBN5ydlkvGdkd3OD0bw36dhPcMgnoUfoL8kcvM6pXhP3M3nDnhoVElZI+ceH9Pugv3G2t/7PD+77DO5zZSl54voHK0IjkcUu9NK5V9C1L0oeRXcknt8N/zGH/ghfT7ok/pJtr4PT1CF3IXeW7ki7QZHl5DVRze5zka2xlrJJ21k7qd6qiJZSfMH2A/qA2mO5IueGg/nk53LEip+n3RNbxaNeZmeJUXavL1Ym12Tljb105Y+DewjOyRIEBs2YSSuBhyS4ypLnwhcJVyWoQRB7Q7NzMCUZm7lIMTbCcp+ylLzxdrwvKHNDRVjafyyXjgU4N90SG8W1z+Ic1HB+I0+U0jkLtbF6szsCYgXDtnoiWsfH2wsPZnfjlVyw4hZKxYYAdrkRyTaxrscitVjnMUdhKZiWx8JZynY9znu7Kk3SlY5yNbMOsiRVQ32FgJjRDxy9WY39vdDk4oJ3Rl7a5q1h2WVsxDss5aAF6VdFWSRjWsb32MRJA1RUXtEIhXDq5DsJVGRCjeJ9fOG8VpN6y5oOo8rFyUTpAhs4N91Sx8zYZeqDLKECwh2sIldP2ixySCDqgIi1UbJFWViKitXsa1XOihQAPRuo/I/sr65SINjBt2so6Hj7aKrhWFvtPdzmEnBvup6cUA7oytvEiNyztq0SCiby4opDZcckYm9KPnl+lPZ1Ie9bARE7Zg+lKzw4jcldiqiJH4kInuyYzi2KTqgzXETzVBifNe04mHFLjvjl2oPT/feoic69103hNyiieRqMsHcsaM3g33YVOLa93KXCMaQdpEdBsGLwf3SwNkBIxw35QL6ZHcg8hgWQdjUa3uvPu46cx9rBeaQNODfdi4VekfbxIj8ljgndQXddg/TlSXpzPStzdOJlSDpRe+0dzTtPjUt5sv65qft7tlN4tgv542eIUXrU2UxeeJ3Paj2GGoi5XyEkA9BVREsJHmJEQXWk95noITlVzvD2L1rrHuRrYaKvu8icWwXckjJsdkuHJCSPIrJHQk990zlmZFO+OWMccgfcqoiWc7q7UbOMjvu5HyzQ0DydLli7hHjN4N93yOLHscjm54hVSo/KiXzt7r/wDbYRHifGtGKgyDKmyqiJIsY4slzDSN6DvmyWxhPc579MVa2tmnyTJLurKYnBPd528W17+G0gQzh1FUlqJyKqLAsGk7r53/AC9qSZCYsuSuPe969lC9EL2zJg4yHK8xIsc0qRp+qFUwMlm6Q4o+Ce8Fw7XNcArTDyzgx7GHe00qpPkSeYGAsIxcRUVMlyRx2GI4pOxPniRzrnlpGOEVvaEjhFiyRSG7GnRh5KsyPxVVVgxJE2RpqiDUAwxGiY3nMVqcE94vbxT9ccgntIzJARSA3ujyjUoyBJjXK1fMSMX5rtHjlO4FU1MZDjMxERE3exj8NAikyRVEbjmq123mD45znLtTaVnzVqq2JWR8MRomfrkEY3gnvMjeKIr4xBvaRm1lXxLEGodOyqt3ZXx/MnYxrGejdAYoOzTulTzcrqiur9ykaNn65BGN4J71Izig3rFKi8U2X5pe6RjycnwpUE21VIQEj0rmUjl2qqqdZkodMQ67te9ZRht4J73kM4trSdsqOCUG10WJ+WNVYV+1bP6aIqKnfY2CImVFNPtFqdHQwYNjBD7LJ/AUZnBvvh/0xPv+4jGEHqrTpKx+RJho+R7COXE+abnnRhZLnlPtpyjkW54kcMWN3WP3Avp97qqZIMiJXCVE73Ijm6h0ihFkANHLjCEHiT5aIs+WuEKUmw2PI+g0gQigEMAu+eJShimRURfeSqiYpUTFkJjpTc67nYg5RMBDa1fSnQok4U/RUZ+SdI3IlJR27FbSW7lj6TuivgaJblbWQa5npSIiPcqnDjJSLiHTEKmI9PdpSI3GoY+NhNxsWOmNYxv/AITxDfiw464sFuLFO3FeQThkR3uHjnFPQK/lSMLzDv8AyXIjkNGeLAnRyIqLvx9tPeiY+R8+Ep2dOXnGQ3GyU4tKi4i7vdwRjVkmRERP/LkRWkVfMizzC5zHXOSXi+ZbnmuXPNJnmkzzDsZIRca7j7SI7gghukuGxg27vY16EhNx3XDjJKLiyExOpJeEbRD/APT6Qs/bYwRlRUdHKxeKez1w3EhGNRje98cL18nG4tRGp/7EoXVDEfxb7PJ9MFOaRl/NdX1BLm2e/wCL2ufF7XK3VlpFdTWkW1jf6uu7WVAj6Ou562/+5re0PWwPi9rnxe1xLi1RanWMwL4kkMuPLMkeKbUFwSXRzFsKnP45aft7OP8ATWfxZrb+sZA0akqCuhvld1EupNRWJKuya5Ht/wBTxM+vSX9j/wBzxL/ihh8xM/wZMLod6DsYUmvlaGtHQ7M42mCbR1okusiMgwMm/KYz6fZ0n6a37TNbf1jKL8JmrY45Gn80uRS6fyZKjQwyNZ1jHR9aVr3EuK5tbVaqr58za1va2tV2toPNX6pqJbtrTVcCDMHdVr66RrOsY4GtK17oM2LODt4mfXpP+xWGqaiI5NbQear1DV2Duyw1TURHJraDzVmo6qe7a7t4lQGj1BCtiWmoauvcPWtc4o3tIO41NArZVZZxLCDO1bUxn1Oqa+wl3t1EqGUN7Dt97rU0GslVNjGs4meJf8VN+X28SAjWtG9RkwusqtkkJGGDll9Yvp9nSfprvs81t/WMovwjnNa3WuoI5YrGue+tj+Ur7uyDVQLSwlWUqNGkyVkxZUbOK8Kn5Wua1tn1te5Vco62xIxUVq6DtZSWGTvnNyOA8h8iPIjOgTJEGTp22Hbwc8TPrT5bPgTmCzRmoidbFVETVWoiWJYkWRLK7TF41hhFCTRuonsLniT+TjmLHLkWltZBK4Cxa+//ADjTFaAQyGJpmisSWviP+b8PPz22pfz/AIafw54l/wAVN+Xw5ggHrO8HZlpYizrW5+VPmjVVdNZZ/sH6fZ0j6a37bNbf1js8P6uOYma/mOPdaYqltrKMAMYJxCOLVtQlTYVX5TPEob0nUkoEKzh6hp5KWtPXW46TT8GpLk37zS9QttYRY4IoJIAyQ6sqPhNho2c6Fe54mfW1Fc7TVDHqo+axoAni5pyas+l15OWLSwo5Jcuqr41bEy7qYtrFmRyRJWm5jp9L4kfk80ZQDjR9r/8AORI5ZUmiqI1TFzxH/N+Hn57bUn5/w0/hzxL/AItwiIcukaL4UC6/DZov+s5Z/wAIPp9nH+ms/hzW39Yys0nVyK02i61w72nlVB9O2Lqy1y+/OeGiN6G3iQ1vwiq/KZd1gbWDbUljWuyDOlwSaU1J8Sdk37zw2Yz4bt4jtb8HjKrZGeJn16aax1/uVGoXw5/B+Jn79ugwGBQ+JH5PTcRk283v/wA54bxWEmbeI/5vw8/Pbak/P+Gn8OeJf8VeJp5/+G1OD0fTtdX10GA3Lr8Nmi/6zll9tG+n2cb6az6M1t/WMovwma7Gx+m8r3c8DW0TyuoND2g6+y217aDmTKr8plzdwKrKuyh2YZdRWSs1fp2LWxoh3xpWTfvNDWwq+dtru2HNl6ZiOmXmeJn1xyvAensQWcLNU246uvzRsTymn/EWIpauOVwJFXIhWMLpCxzANbFJCkbeJH5PRP8AZ97/APOeGf0beJIXJY6QnDgXmHKMAbKR5uw8NP4c8S/4qb8v2XX4bNF/1nLH7SN9Ps4v01v15rb+sZRfhM1LGWXRZoG2NLHq2n+KwCMeMldqK1gjsNSW8weVX5TNfQZI7eMc0Yo9XXLR2VjNsSaUrH2Vrk37zK7UNrBHY6jtpo2Nc92jqT4XFzxM+vIMyVCM7Vd2rJBiyDaSo32crJARyAagqT1M2vnzK8rdaWqNtbuxsk0COS6+zxI/J6J/s+9/+c8M/o21LVpa1hxEAav1BbQRWdxY2KZ4afw54l/xU35fsuvw2aL/AKzll9vH+n2c/wDaKvJMyziDnwA6Jl+aCNghbWujosqTp2kBThy6ooFrkjRE1Hg0TOV7tIV3w2l0hIj2OEYwjLLRsI7v8KtMr9E/ODEjQo+TfvNJ0kK2ppGiJiOj6Imq+loK+rXbVVJ8YjUWj+hIsdEscv8AhVplZoyKJw2MGzaXGBLBY6JY5f8ACrTK/RLEWHFjwwZquh+MD0tpl9bL31DpIsyw0zTtp4W91RwbVJGiJqPfpNYUfPDyOoqXNS1DbeDRaRPGsOwrGlEXRMvzVfFHChZPXmMNODfZ8hqtcJ6EH/qTfvPDf8P/ALhiIIJdVXL5Ca2seS2tp1oSkrD2s2KAcaP6RiNEwKOe9PaD28UTqAek1ueeHnnlzzpsbOTElx883HxZwcSbHXGmE7d0gDcdNAmJOFjZsdcY5r03uqOyBZ6Kr5FfUbGOMOLPTPPY2aBcacLtnvYzHTY6Ys5y55qTiSzpjJolxj2P2ecLMWaDEmgxJMdcWQBM85Hzz4MScDEmR1xrmvTe10W173aSukfX6JKr6+FGgRt3ywNx01y4ppbs55mNkyG42aPPNx8fNTEY8r2N4J7RVOOKNM6Tc6aZyJiiTFAmdBM6KYoEx0Vq55XPKouJGTEAmdFuOAmOjq1RSiDVjmvb2SZXBRA4qgkzpJigTHRkzyqY2K1MaBMQaZypnImOCi46KmeV442MiYgEzoJix0zy6Z0EzoJnQTFjpjo3DGSDiwJhmTtVURCzcUZDKyOiYg0TOVM4JisTFEmdBuNEiYie5XjRc5CBcGWx2znNah5Li4AKNRP9hzEXCA+Y5RB4IwybPe1iEmtxWlMoxImcPd6pxwgUXEA5ueXVVYNE/wBxzEXHx0XOg7Gxk4sEiYif/e//xAA7EQABAgQDBAYIBQQDAAAAAAABAgMABAUREiExEBMgUQYiMkFQcRQVYGGBkbHRIzRSocEWM0LwMICQ/9oACAEDAQE/Af8AoDjTe0BQOX/AVAC5grCdYv464/uzmIXMKJumFuKXmYKidYxG94Q8pN4ambJsqEqChcbVzQw5QXlFOGFLKtYxG94DhCsUb9d8zCJkKNgPG5pR0I2AAwptQz4JVzCrDsmnLDDwJQVaQQBsl1EKyHjcxiw5bUOKRpA3bvuMONKRrsBtAh83cOxKCs2EbtDXbzMLdKsu7bK4vh42oXEOtqQc+BqYtkrSHJcEYkQ0yVnZMtG+IQ1LlWZ0hx8I6rfAlJUbCGkFIzPjjrCV5wRbglVKxW7uCaUoCw4WZdPaPjzjQUNIVLrSL7EMrV3Q00GxwLSFixhcutOmxDKl5iGWMPaHsA1JuzHYReBQ5oaJ+kPyzsucLgtEpJOzSrIhihy7fb6xj1dK/oEP0SWc7PVMTlPdlD1tOcS8m9Mf203hVFm/0/SHJVcuesm3sBTaOLBx8fD7wBbIQ88hlBWvSJuZVNvYzDDCGGwhHA42lxJQoZRLzHq2aUj/ABhC0rSFJ0haErGFQyip0jcjes6cvHqLKh57ErROyYmW5dGNwxPT7k2u505bKdWUKSG3jY84BChcbZypsywte6uUOuKdWVq1MU2pKlDhVmmG3EuJxIOWypSvoz5SNO7x2gotLk8zE7VWpbLVXKJmZcmV43DErR5h8YjkPfA6PItmuJigvIF2zihDrrB6pIj1nN/rhU3MvHCVExLUBShd4290eoZa2piZoLiBdo4olJ16TXl8REpPMzQ6hz5R0hR2FefjqJx9De7Sqw2UilhIDzuvdwVuRC29+nUbKDJi2/V8OCqU0TCd4jtfWEqUg3GRh+bfmUhKze3jlMo4sHXx8PvFdlENlLiBa8UyW9ImAk6a8K0haSk98EWyimpCZVFuXDWZfczFxoc4oDQDBXzMVSkggusj4eNUiVD8x1tBns6Qfl0+f8GOjyestXlwuLwIKj3bKQ4Fyifdw9IU9VB84of5X47KrLCXmCBoc/Gejyeos7OkK/w0J98UB3C+Ucxw1ubDbW6Gqvpsok5uXd2rRX14ekDwLiW+UdH13ZUn37OkQzbPn/HjPR52ylt7K87ifCOQhtxTagtOoiRn25tGWvLbPVJqVFtVcoUXppwq1JgUmcP+H0h2VeZ7aSIptZAG7f8An94SoKF07J2oNSic9eUPOqeWVq1MUB7C+Uc9leeC5gIHd4zLPql3Q4nuj05ncb++X+5Q+6XnC4e/YlRSbiG6xNoyxXh2qzTmRV8oplLM1+I52frDTSGk4UCw21GjpWC4wLHlDb7rXYURBqM0RbGYJvDMq89/bTeN1MSTiXFJtaHqqyhjepN790LWXFFStT43T6QyloKdFyYdpEq4Ozbyiepjkpnqnnslmd+6lvnCEBCQlOg4a1LBmYxJ0VsptHv+K/8AL7wAALCHmkvIKFaGFoKFFJ7vGxtUkLGFUVOnmUXl2TFH/OI+P04ukRF2x5/xFFkN8rer0H14KiLTS7c/HJV7fMpXz2zksJlktmGlql3QrvBhp1LqAtOh4ai/6ZNdTyEMMpYbDae7apQSLmHnN44pfPxyhzwQdwvv04KojBNrH+5xTqmqUNjmmJedZmB+GrY9MNMi7irRUawXhu2tIpKQqbQDwVueCEbhOp18eka5hGB/5w0+28LtqvDjiW04lmwicf8ASH1Oc9oMxbK/7woKv1tkm/6O+lzlDbiXE4kG4hx5toXWbRO11IGFj5wpRUbn2AUtStTDTSnVhCdTErRGWhdzrH9oQ0hvsC2wgHIw/S5Z7VNvKJ6UMo7uzCVqTofYRh5TLgcTqIk5xuaRiTwTU03LIxriamVTLhcV7DNOraViQbGGOkC05OpvH9QS/wCk/t94e6QKOTSbecPPuPKxOG5/9qP/xAArEQABBAAGAQQCAQUAAAAAAAABAAIDEQQQEiAhMVAiQVFgE2EUMjOAgZD/2gAIAQIBAT8B/wAALQkben3QeCaQN73Pa0WU6Rre1fnZsT+I0QpMU4utpUkznmynOLuSg9wOq+Uyd7L/AGoMZTaemPDxYy6T8a3T6e07EPczSnPc7tajdoSuDtS/lSE8lR4wPOkDzeNcf6SMgAU6NzedmDl0v0/OWOloaBsaxz+kWhvvlhHFr+Bfm8UH6OM45XR9ICKb9FSwPj7yBo2gbCxJuU5Mjc801fijh/ucn4Ukzn8e2eCD/wDXm3CxSmifGfVshxWn0v5ClwgI1RKCAyO/WWMgOrWFBhC/l3SlxLWDRErvNjHPNNUMZY2ifOT4Vr/V0iKOzBPdr0+2zHPcGgDrbh8K0+om/PTQNeOBynYWRos5R4eR/QUEAiGx7A9ukqTCPZ1zlHh3yC2qDDaR6x9ALNfYQhroIikG2hGFpCMYRbSAJRivsIRhnQ+gNZ85E0ibKAraDpObmV155gs5E0nOvJr/AJ2FwGTXVm4UfOx9JzwETaDCV+NGMrkLUVZKEfyvxhGNBxCDgVJ52zkxvvse33yjHvse28iSfONZ8qQJos729bXiio+k9nuPNMFnKTpR72dbZFH1k8UfMx5SKPvbIfbJhrbIVH1lJ5mPKTvJrrzc6lyVoKohNf8AObnUjyozzlIefMg0tQq0ec9ZWsprLVVm5nwrpajkASuWovFecawIsCc2sgL3PFHJrPnIi/oDm0md7pExt7Hd+cBsZkWF0hztcbKArYfORu9tj+011IOByJpOffSZ3se72882T5QN5E2c+cwaOVp0nx9DEYVZloKcK+ig0gb2E0ib+jiRfkCMiJv/ALUf/8QATxAAAQIDBAQHDAcGBgEEAwAAAQIDAAQREBIhMSJBUXETIDJSYGGBFCMwM0JikaGxssHRBXJzdIKS4SRAQ1OiwhU0NVCT8fBjgKPSg5Di/9oACAEBAAY/Av8A9AOjjujBlz0R/l1fmHzjxX9QjFlftjTBTvFPC0TjujRZX24RyQneqOSFbjGkyv0VjGM+nXe0KVGkpKPXGmtavVGDSe3Hj4tp7MI706dyo74jDaMuPdQCo9UVdXd6hHIvHzsYoBQcWhFY8UnswjRK07jGg6k78I0mz2Y9Na+LT1xW7fO1WPhrzfe1dWUd8ThtGUZxnF1tJUeqKvLujmiKISB4XTQDFWV16lRccBSrr6YUGJMcI7pL9nFDk25SvJSMVKj/ACszd24fOFCWdVKseSEYK7TGjPOLFf4mn7YuuvcG3SnBtaKTv2x+yzbiE8zNPohITKS4d8pRqQeyKT0q2pva1gR6c4SruvMVpwaqwTJzKXaZjI+g8TFpPZhHih24xQCgtLji0oQnNSjQCLvdnaG1U9kcHII7qXTlHBA+cAuS8qpGsAEfGCGnO5Wua1n+aOHYmXW3CakhWe/bCQl5tqgoShsaXpjhE/SD5PnKvD0GE90yjnD6+D5MBk8JLrVlwmR7eLRY/SKKxScldLy+rcmwrWoJSMSSaARc/wARlq/aYemFsfRznAsJw4QcpfX1CKuTkws+c4TFXFqWcsTWDwTS10zuprFCCDB4B8B0ZoWPjHfmiBzsxBcll98RgptXwMFDiSlQzBhDpT3tfJUMrEvsOKbcTkoQnu9K0PjBVxNQeuCqTmEuUzGRHZxStxQQlIqSTQCLgfWvzkoNIpi3LJOg38T12BKElSjkBBbXS8M6HKOEV3lrnKi5LpcUPJGZMF2ZWhhAxNcTB4Mkp2kUi+hlxSdoTZXuh2v1zAUidccHNdN8H0wmYemWpdeS21KxB+Mfssy09TO6qpFhQoYGC0rV0toM4SgahSxcmlZEuwbt3arWbeDcW8h7ZUUVuwjQeeB66GG3WX0lIVjqNIuutpWPOFYL7IUklNKVwihFQYVwLYReNTF1YovyV6xCZRQvopQ11wyG0lxm+FXtg64MzLJ0PLRzeuxMxLOFtxOREcIKJeRg6jYflaVrUEpSKkk4CCwwSmTScBz+s2Bpv8StkS6JRoqANFUzJipop48pXwELml6QUahFMKxQ5RdYbCIUw4SEq2R3phNdpxMNtsLSE106n0R36YUepIpBddefCR1j5QbgITqrYh+XcLbiDUKEMTlKFxOI68jYh3sPS1oedbMXuS8eFQdtf1rATMNtraXgb6QbvXH+VZ/IIqhhpJ6kAeDL4pwF00T1nVujhWvEq/pOyETTWNMFJryk7IbmWVXm3E1Fn+FS6tEYvnr5sJabFVKgy7VC7gq8dZgNoxPlK2nwVFoSodYrH+VY/IIuNSzIdcy0BgNtktLu8sJqobKmtPXY51CvS1vt9lr00snTVo11DUIv3FXdtIbUeUnRVbpqu9Zy8EppwVSoUMLZXmk+mHPot1WB02a+sfH0w9NmlUjQB1q1QpxxRUtRqonWY7oWO+ODDqT4K6VC9qGviOFCVKAN1NMcBFCKEQkO4llZaB2jAj22O/UPS1s9drrV2jazfa+qYuOV4FefV1wFJIIORHEvSbypdXNzR6Iu/SEtdH8xvFMXmXErHV4BE0kYo0Vbv/PbDM03yml3t/VErKMrvN3OGNNdcvV7YbaPJzVu8BU4CODYCplzUERWYd7mR/La5XpijaAmue08QstGr5H5LG2nBR1ffHBsJ/Sljno6WhY1GtrCam6JcED8RgNBSUlWV7KLrhTwGsXq+jilKgCDmDHDSCyy4NVfZHAz7RVTXkr9Yqy4DtGscZxk+Umll5xV4hIT2AUEPTB+oPj8OMVKUEgZkxdlk8KrnHkwHJt1TbOz9IusoptVrPFIlCkOHWdkcLMqQFKOAvVJjCEFYoqmNiG+crpcnaMLApn/ADLOLfnbRBSoEEZgwJaaVpZIWde/j3HkBQ9kcNLqUtAxqOUmAibF9PPGccIysLT1cV+n8xXtsFNajXilDPfnOrkiKVKvUlMBa++u7TkN3HvuYk8lO2C86cT6o7rfT+ysqyPlq2W9SBTpcpo5KxFq2nBRaFFKh1xwT7jjbh5NDgYS3fUu7rUcfAFyXo27s1Kg0vNODMQG3qNO+o2reXkkQSczY5LHOt8W33lU2DWYKB3trmjXvgOv1ba1bVQG2kBCRqHgDNTMw9U5JqPQIwhZUCAt8lPXgLFLOoReVmcT0uDicxCXE5Gxz6VlaJcQmryecNu+wNTVVo5+sfOApORFR4C64MfJUMxFx0YeSrUYDUzVbXO1pjh1OpDZyO2LqdFlOQ22pdbVdUnKAkkIe5u3dHBt0W9s1J3xecUpxaoD02AV6kah4Hg0pvvUy1CC68u8qOCv3GkC84ddOqEMMICG0CiQLEsjerpgWjyV5b7H5Ym7wrZRXZUQuXfQUOINCDAQ4nhGvWndF9lwK27R4EtOpqk+qLi8Unkq28fWpR9ccM8AXz/R4GpNAILUsA4rnHIQVrUVKOZMOzzyLvD0Ddebt/8ANlhUrIQXVZq6YVEY8oYKs76LjyRRDozHzEOyjpSVtnMQOBeS0vUSq7FJtxC1+aPApYScGhjv46XE5pNRCHkclQr4GszNNlvyUg09VjX0jPUcCtJtrV2/K0MJ3q6ZBXknBVv+IySL7lKOoGZprEEEUIijTyrvNOIgNGVvY4qRknj3UkF85DZ1wVKNScz4DgHj3lWvmmKg1B43CIl1PbaHKKJUloeYIKlqKlHWYAbQUMV03TkPmYbYbFENpCUjqFhXr1ReViTn0zFc06JtcvsN90XTcdyIOqu2FMuoKFoNFA6outvG7sOMaTTJ9McH3NhrUFZW6T6SdicYuyqODHOVnBUokk5k+CupN9vmKijlWVdeXpirTiVjzTWwvNsl2mYrl1xosNjfGC0t/VTF5aipR1k1hc9PS/CIrRkKyO09cBCEhKRgANVtByUYdNHk7jxL801RYHjUm6of+dcXJGfVNY8zAfi12cGy9dTsuiKGZX2YeyO+urX9ZVeL3tBpt1R313sSIzcPbHljtjvbp/EIqpFU7U48Woiomne1VY/zH9IgrViTnBZ7salyMgrlK3CAuYUuaWOdgn0QEpASkYADVatesDDpq8vaQLVTM0u6geknYILYJZldTQOe/bZRtBVujviko9ZjSeUdwjB1cKWl0KCRU1FLAlIqTAXMaSubqHHKkaDnqMXHE0MJQM1GkabwG4R41caL/pTFQAsebFFAgxUYGEy30oorbyS95Q37YC0KCkkVBGu0DaodNUpOeZscmphVG0CpjhntFA8W3qQIoIvzP5IuoSEjYOJ3OnM8rqsvqHfFerwN1WfknZBScFJMXvKHKHEo4ivXF9Om37LEyU0qsos4E/wj8rSeaa9NKnkoxt7lZV+zMGmfKVrNnCuDvh/p4tBi4chBUTUmEBXJvCvg0namA4j/ALgOI7Rs4vDNcg5jZZ/hr6u+MirZ2p2dlhScjCmj5J6Zg616VjriDR1zvbfUTr9FbOHXknk7+LdTi5s2QVrNSbQCe+J5Xgak0EFY5IwTZfQd42xfR2jZxCkioMFGrNO6GZtrlNqrv6obfbNUOJCk7jYh3nYHpkEDMmkADIWNSgOiwip+sr9KRQQhvYOIW2cXNuyKk1J4gWhRSoRdmBQ84ReQoKHVxtNePNGcXALjezbxL7Z/WLycDrTs4nCa0eywy6jpS66fhOI+NitqdLpknYnStnVq/nFPYMPhDQ6621JoI4NjBOtW3iaDa1bhHiHfyGKEUsqlRB6oHfLw84RyGvQYxbRFAG09YEaTyuzCyrbSiNseQN5jBAVuMUWhST1iwLQq6oRwbtEueo2qRzhSyZl9S2r3oP62UMFs+SadMS6c15brVrJqVKJg9SLNI1VzRGlgjUkW3ne9p9caLYJ2qxtotIUOsRVg3FbNUXHElJ4oQgVJiq++L68uJRQBHXF5g3Ds1QULSUkWXH6rHO1wFoUFA2ODzjCBzm1C0PjI4K6YY+LTna7Nu8ltNd/VFY4S7ewpSKI72OrOKmygFTAcdFXPd491XK8k7IKFihHEx8Yrlce6vPUrZBbWMfbZVpZTHfmzXzYUvaawzN0qEnSHmnOEuNqC0KFQRrsKVCoMXFYp8k9LuCRr9UBCchYqZmXAhtMFtPepQHRb29Z43dCxpK5PUPApfG5Vt4jBGPb4GnljkmKHO2+UKu7aYWUBLkueU0T6xshMzKrvIPpSdhsuK/6gtrzHS2quWrOxcw+sIbQKqJguKqllPim9n62Bcx+SCplASpOzXaEnkjFXglt7Ratesq8EHkjBee+xDe04xSmEcJLih1pihzgOpqWVYOo5w+cIfZWFtrFUkWcKnlI9nSwc1GJt/wANZV3pk9885f6WB50aZ5I2WuIGQURYXNaz4NSdhsG8+CWNY0hZXmpJt4ZsaYz67D9FvKNxzSZ6jrFqm9Wrd0rLnPNj83rQnR+tqgqUSpRNSTri+oaCPbxHbG00pRI8GTtsUPP8GU7DC/qcTRGgvEQh5o3VoUFJPXDM0jJ1AVTZ1WNu/hPSowhGwWSsmCNJRcV2Ze0+ixG1WkeI52ezwjqvNtW3zh4N365hX1OIVa0Gti2CqpYdNBsScfbWxXVj0qSnaQLSj+U0lHx+MJRzjTiu77G17Ug+CSwNeJtS4nNJhLiclDwNTBVthHXX2cRaOckiycY1qQlXo/7scHmnpU39ce22b/B7ghn649vFWvnKJsua0HwJcXkIU4rM8TudZwPJ8CravRFjajkFDjP/AHc+8LF/VPSpCtigbVL/AJraV/D4QhfNNeI6qtNE2hfk5KgKBqDxypRoBGGDYyHGDLx0/JO3j1OAjR5CeTahe1INrqq00TZPOlPMSD6a/CxfXh6elRhKtorZKToTtaUfWP7rEK10obQ3rWeJwa8W/ZF5CgocWriuzWYpyUak2VS0abThGm6gbsY8f/TFU3F7jHfG1J3iy6/pjbri82sKHEvOKCRFxuqW/bxOD1oNqWhmo47rG1KqFPqLvwHqFjbfXe6V3Dmg2Py4FXKXm/rD/wApZwKjory32mmSNHi1bWUx3xoK3GkYod9AjQaWd+EURRsdWcVUSTtMaOCdajFUpqrnHi0IqIK5fRPN1RRQoRF5Cik7RHLvbxHIbjApRuEXlqKjtPFoeSvCwqUaAQpzVq3QzKN5uKxOwazCW2xdQkUSNgsUrUNEdKxXkrwNvdbae8TBruXrHxsuLPfR64KEK76fV4PHBCc4CUigHgKpHfBkdsUIoRxrraCoxpFCO2NBaFeqLjiSkwEPLCVjWdccE0e9jM7bD9IPpo8+NDzUfrYpWvV0tBPKGCrHJWYFUL9I64dk3SCps5jWLbqBvOyNNS1H0Rm4O2KtKDg2ZGKEUPFCU4k4CEtjt6z4IPpyVgrfxQ49gjUNsXUJCR1Wmg004pt7+m80ym+U0wUdQNqWhknE9LaeSvC2Wmhk43cOGsf9+q1G1WkeJpCitStcXV5ajt4l4+QK+DdT5teIHnxjqTxnEbDhZMTRr31y6Nyf+z6LKnIQp0+UelyVHPXY4pIJUwQ6Pj6jZTjFtYwMXF9h22vHd4Oht4dzkjkjbx685INktKkUUhGl9Y4n12Ec43el62tuIsU2tIUlQoQdYh+UXm2qm8ajAOw8coVnqOyChYooWOjd4NS+aK2BsZaz1QEpFAMuOPqQ2naoWto2CvS9Luw42y8yKd9bunen/sWJXzhXjiYSOpVidi9Hwd0ZrwsCjyl4+AcpuiSQE3u/pJHUDU2uHrp0wTtTomxMwBpMOVr5pw+VlzWg045QrI4QptWaTZe8sYK8DU4CCocgYJhDe04+AU4ckisFRzOMGYIN1hsmvWcPnYVHICsXjmemCm9SsRY7LOcl1BSYcYdFFtqKVQKnQVgrwF7nJsC0do2xebO8bOPUmgjgmeRrO2xS6clPgBLpPWqxLqx3yYPCHdq+fbZd1rNOmIcTmk1gKGRsT9KspwNEvfA/D0WBhw6Q5PXx2e22+2opMUfTdPOGUVbWFbrak0EaJ4RXmxQm6jmi17s+PHvHlHkiCtRqTnCWj4hGk6erZ2xQWXRkjDt6ZFhWrFNi2XkhbaxRQ2xwRqplWLS9o+cVGBgNvm6vbqPGbRsFeNg+5+aPHuemKrUVbzxXEbRXjUOkvUmC44amES8uguOLNEgQGEULhxdXzjZhyjyYx6ZBxHKEXx2jZYqVmUXkHI60naIuui+0ToOgYK/Wy6dNGwxiq4fOioNRZVRx1J1mC4vM8XCPEufljxDv5DGk2sbxxUuIzEVQrS1p12+NCupOMXWRwY264qcTCZeWaLjh1CKmjk0sd8c+A6rL6o4RfYNnTS+jEaxtgLQcLFMvtpcbVmkwp76LPCoz4FR0huOuC262ptYzSoUIsqkkHqjx7v5jFTbRtNevVFXl16kxgyjtxigFBxNNCVbxHi7p83CKsqCxsOBi6oEHYbfHufmiqlEnrtC5kGUZ88aR7I4GUbu85R5St9l9Zwi+vAahs6bXk4pOaYC0GoNpam2Ur2K8pO4wp1FXpTU4M0/W4t08kYmAhAokavBcPkpPr4ofnr8vL6k+Wr5RWVlUJXzzir0m0rUcIvry1DZ04r/DPKEVGVtDCnvo4pl3f5fkH5RwU2wtpXXr3G3T5K8D1eD7nRkDpG27Kskpris4JT2wl579pmRjeI0UnqHFr/DHJ6dKZPk4jdxSzMtIdbOpQrBX9Gv8Ef5bmKfTn7Y/apVaE87NPpsDL50fJVsioxHgC1Lqx1qGqz9la0AaKcUaJEByeWZlzmjBA+cBttCUITgEpFAOKGx5Z9XTvDmmvHU24kKQoUIOuDMywK5Mntb6j1ddlAbyOaYxVwatioqOJiu8dicYujQRsFlcW5ZJ03PgOuES8ugIbQKADjtbKHp2Xl5qy3eAKVAEHMGFTH0VRKsywTh+GC0+0ttwZpUKWaC1J3GPHH0R471CNNxat5sCG0KWtWQSKkwl/wCldBGYZB0jv2QlpltLaE5JSKAeAqnlJxHTfONBClbhHIujzjF9031erwfBzbCHU+cMt2yCqSmlsnmrF4RoNtP9bbnzpFD9HTHYmsUH0dM9qKQAphDI5y3B8ICp6cJ81kfE/KLspLob2qzUe3wd9s3F+oxptmm0YiM+mOgKJ5xjvjileqPFJO/GNFCRuH+xabaVbxHJI3KjRdWN+MaLqVb8Io6mnSzhF+L1Db/tVFCoi+zVSeb0gonE9UYNHtwjxfrjSZX2YxQ4HjXfIHKMUGAH+2X0G4v2xpNqPWnGOSr0Rgy56I8V/UIxZX2YxpaO+M4wMclXo6K1rRsa9sUQmnEotIUOsRVpRQdmYjTRhtGIjOy63lrVsgIT/uni0ei3TT264uKxByPRJLSfKMBKch4Cqm012x4v1mKJAA/3kp8rNO/oktfNFLJicQkKUgaNdpNPjBWfpKaqdjhA9Ef6lOf8yo/1Kc/5lQA8sTTfNXn6Y4aWViMFoOaf3ZhmUXwanr15YzAH/cNykzMOPtPVHfDeINP31tMqq468ql+mQGcf6lOf8yo/1Kc/5lRX/Epv/lMBP0gkTLfOAosfAwiYl3A42vIiHZgiobQVkbo7o7udQa1CUnQH4Yl5tQopxOlvyNjieuvRFZ2rsm/we+LGJn/EbvCtpXTgcqjfGH0n/wDB+sBEwAUq5C05GG5lFbuTiecmApJqCKg/usjuX/bEn9f4fvsjvX8IZl713hHAiuypj/U//g/WDwX0ilS9QU1Qe2FS003cWPQRtEJlFq7xMm7TYvUfhC2XBVC0lKt0cG2plbWp0qp6RDMog1DaaV29diTtT0RTvPtsm/we+LJD7s37osmgvyEcIk7CLJJRFO9BPow+FhemnkNI2qMFLTUw910ABgB1mYa66AgQr6QEylbCdacTXZTbCZW46ypZogrpQ9VpQ+/V0fw0aSv0jCUmCOyLhdVLq2PCnrytVK8G68pBosopQGEz5mkIZVzs67KbYIaamHeugAMAOsTDXXQERwso+h1PVqtkdy/7Yk/r/CLgeVMK2MivryjGUmKdkBtp/g3Tkh3RPy4twOqmFf8AoivryjGTmKdkBtD/AAThyQ6Lp+VqVzN4lfIQkYmFNNBxt1IrcWMxBbdf4R0Ztt6RgJUxMoRzqDCEuIUFIUKgjWIMqpLrrqeVcHJjuxldGxy7+FzfFxCnJgj+UnD0mEy11xhxfIv0oeqEcPeWtfJQjOFpZC23UYlC9m23uVSHHnRyruSY7plibtaEKzSbJHev4RJ/bo962XmKd8S9cB6iD8oStJopJqLC2G5haAacIAKQh1pV5CxeSdosZO/oinefbZN/g98WSH3Zv3RBUogAazB+jpFwO3/GuJOAGwQEIBUpRoANcS8thVptKTTWaQqadF7UhHOVBmJpy8rUNSeoQRLS7rxGfBoKoHdMs8zXLhEFNYpXCJQj+ej22JbYN19+oSrmjWYKlGpOZgONyE0tCslJZUQYIIoRCPo1ay4wsG6D5BArY+T/ADFe2y5LsuOq2ITei7MMOsq2LSUwJiVdLax644YUS6nB1Gw/KyR3L/tt4ZclMpb55aNLEfRs+srCsGXDmDzTZUmghUtKqKJMHcXN/V1RwUsyt1exIrF7uH0OJ+cFt5tbaxmlQoRCPo6eWVIVotOHNJ2HqslvsfjHCsuFtdCLw6xSxKW5CYF7JSkFKfSYl5YqvFptKK7aCJ77wv2wpgOKDayCpO2A202pxZySkVJhh52Wcl2mXAtSnE3csaUhn7sPeVCvsFe0Wz32xid+sj42SO9fwiT+3R71nCPOoaQPKWqghEvKkmWaxrz1RLyoFb69L6uv1ROkfyF+7ZJ12K942NHzqdEabFGyb/B744qvpF1aFqaNEN807T8LO5q6EumnacT8PRAaUSllAvOnq2QllhtLbackphTTzaXG1ZpUKgwOCr3O9pN9W0RK/bI9tkq6ToKbKRvBx9ohmZmWOHbQcU/GNGebbOx3Q9sBTyNLyXm+V6YU8zwjjpFLzhy3WP8A2ivbFxVUsN6Tp+EBmWaS02NSRCmX20uNqzSoRRqvc7uk3XVtEMip4N88Esb8vXZI7l/2wEpFSchCXFpS5OEaS+b1CxyflGwiYbF5YT/EGvtsl5lfLKaL3jCOBQqi5lVz8Ov5dsNSzXLcUEiEy8sigHKVrUdpsLT6QFjkOAYph2WeFFtqumJaYWauXbq94wiW+x+JsRPzjVZleKAr+GPnbPfeF+2G5dhF5xw0SIDbSQp0jvjutR+VjP3Ye8qFfYK9otnvtlRPfWR8bJHev4cRLTKFOLVklIqTBfmKGbdGPmDZE793X7pslNyveNiPr9EVfXsm/wAHviyWmHFTF91lK1UXrI3QQ09Mtr1EkEQEP0U2rkOJyVDUxXvZN10bU2T33hfvROq8q8n42sL8oP0H5TEr9sj22KlnjdOaFjyTB4dglofxUYp/Sy/KTDjR6jgd41wJObARNU0SMnP1sf8AtFe2Jlfll6h3U/U2sLppCYAB/CYbUnMKFLJHcv8AtiSCzQcMD26uIoINUg4GHfvB91MSH/5P7eMOGSU8I4VoB5uES32PxMSsu5yCqqhtAFaeriT33hftiZm1YqaSEp7dfq9drP3Ye8qFfYK9otnvtlRPfWR8bJHev4RLsLrdcdSk06zHKmfzj5RUh9fUXIpKSyGtpGZ7bJ37uv3TZKble8bK7FDoi4PP+Fk3+D3xZIfdm/dFjylDFtSVJ31p8bJdZNbzST6oeN2iHqOJ7c/XWFNPqCGZgAXjqVqtRJsKvNy9bxGRV+kSv2yPbYkTK1FxWIQgVNNscLKO3qcoZFO+Dw0iwSrNQTQ+kQJyVdUlJXd4JePoMNTDfLbUFCx/7RXthbEyq4zMU0j5KtVqJSXXeaY5ShkpUSrQFUhd9e4Y2SO5f9sNvtmi21BSd4hMywc+UnWk7LF3VftLgo0nX9axgKFFu99V25eqkNTSQSWF47lfrSG30UvNqChXqhE1LpQUqzFMUnYY8Wj0QVKQ2EjEkiCqVcl3buZbINLJb7H4mJT8fuHiT33hftif3o/utlpjyVtXPQf/AOoaceIS2sFtSjqrYt55YQ2gVUTqiYmQCA64pQB3xPfWR8bJHev4RJ/bo97izv3dfumyU3K942K3j29EXhusm/we+LJD7s37osm2E1Kii8ANZGPwsXIP6XAIHBmnk5U9kd6A7paxb69ohTbiSlaTQgjEQlpqYvNpyQ4L1ILa5jg21ZpbF39bJX7ZHtsVOlJLDwFFDIEClIDsu6tpY8pJpF0uNLPOU3jAXOPqdIy1AdkNi73hohbpphTZ22P/AGivbYGmpi+2nJDgvUhTTkxcbVmlsXa/GAhCSpRNABrgvzAHdTwx8wbLJHcv+2zhpR9bS+rXF3ulI6+DTWFPPuKccVmpRqYD76CJNs6R552WLYeTebWLqhBaWCWleKc5w+ccJJvqaJzpkd4gAsyijtKD84uTL/e/5aRRMIcaCuCQk8MdVKYeulkt9j8TEp+P3DxJ77wv2xP70f3WqYBo6nTaPXCmnUFC0miknVAaZmiWxklYvUi7NTKlIHkDAeqye+sj42SO9fwiT+3R73Fnfu6/dNkpuV7xsA2qHRGnOFjso7yXBSuyAHptjueuJTW9TdCGm03UIF1I2C0vS0wZW9ipFy8OzZCwhZddc5ayKeqy88goe/mowP6x+zzkutO1dUn4x3+bl0I2oqo/CFy7ZVw5xD6sSDu2Q1MTr7JQ0oLCW6mpG8WFtxCVoVgUqFQYvybypU80i+mP8xJ/mV8oCp+bH1GR8T8oDEq0lpsahY/9or2w6ZgKS4l8hLiDiMBH7POMOJ88FHzj9onJdCdqKqPwjhGkFx/+avE9my1vg3A2+1W4Tka6oLv0mpl5N0hLaKkY64K5CaubG3RUemPHyf5lf/WAuefMweYkXU/r6oDbaEoQnAJSKAWqYmWkutqzBgrkJq5sbdFfXHj5P86v/rAVPzZXtQ0KeuAxKtJabGoWNuMuJbmG8BeyUI7sm3W1upwbDdaDr4i5qReaRwpvLS5XA9UFu/wjzhq4rVuHEq+godGTqMFfrHeJyXWnauqT8Ycm/pSebbZbxIZF4q6saY2LeUPHOkjcMPbWzgr/AAbqDebV8N0NzM6+yUtKCkpbqaniqbWKpUKEdUENTbHc9cFKrepuhqVa5Daab7EN7MT0RC05g1gLTr/dX/tFe2H/ALwfdH76t1VaISVGkF1MwG01wbCBQRjLSt7bQ/OL007VI5KBgkQGGRRP8RepAhuXZTdbbTdSPB31QXF5noleb7RGm2sH0xyHPRGDB7THiB+aNNpQ3Yxy/UY8Z6jGAWeyOURvSY0XEHttxdR6YwKlbkxyV+iMVFO8RVKgodXEfS3JvvNlZUhbaCoEGLsym4465wl3mig+Vumrs1xosqO+MWVdhjG8neIwdR6bNJaU7zGCircI0GD+IxyG/RGk0k7sI0wpG8RoKCtxs0nU+mMLyvwxjeTvTHjkdppHjkemPGf0mML5/DGN8fhjxnpBiqVBQ6jxFOfR0wG6nxbuQ7YuhpojnBwUis/NoSnms4k9pygS8q0G0e3fxOXePm4x3tn80coJ3CPHH8ojSSlfqjTStHrjl+ox3pBV1nCL7pqfZ0dysxxjLiXkEpPVFHheHOEXkmo4vBs4r1nZF5WJOviZRlGXGyjGMrcoy4tU1B6oovvifXGgezXxqk0EUYTe845RV1RV0vvtGnxijne1deVlVEAdcXGahOtX73eTgdoijybw2jONBYNlVqCR1mKMpKzt1RV1VerV0z0FKTuNIqslW81/f6BawPrf+/r/xAAsEAEAAQIEBAYDAQEBAQAAAAABEQAhMUFRYRBxgZEgobHB0fAwYOHxQFCA/9oACAEBAAE/If8A5sk1qGtQ1qTX88mtb1b1Sa/vihQ86z6h506jlTXuwz1qTQ3pbjD6XpUjpPhU2Ob3qrPqzagPjUKz6s+oVceglot+he6lfquU05b6vOKdOdPaoTCh3pdG50vOgOf7rnlZvWCZqFu+FX4zurGs5kw+fOsaLqJedABAQHiwNOt7yq8g6nmVjcc9Q/Gh4lCg8ammOQmhvMV71eeYX+KJCDII8MSQ0SsSPceynz3U9a7apflRxOa/FVims7oR/cAKFb1dF3MXelXJ9I2/MkryF3SlYc5ruppQ5R2VYTS/fC96i2ds/wAuIzrg96w1PtDUFIyoZ/blgphvogDOhZBihl/fhnq5h5Boe7asN557fKpilupDXFnYtzxqzXwQEuoXs0TmYk1GKeppkCU3OPjfanno+SqVu7QNOjF1zCTktUmK2lBztamNWtHewxv4GZA/TCm5F6vVRwwYARxGUkkA1VqR2xi3Riic173ktzqcGrvpsyjs1M0sEjrxTyimUsDM8/6VitVA3N0PKK2Vb62HlV2QWtS3JZOVP9YowbSD6x4bnujnyUdb7od6H9tpqoBTd2dX24FP+zhqtCK35w+Cpz6fKp7EX7wbkS9WaCABBaBpRqHzCHalphiJDSBfmMtqCZOlJbXF3qV35hXXc0e9YFXxCVPCDNLbnj24IKOWwlSM12JtOVabx7zSv18KHaQ4GKuVQGcwrDvj0q8Nvbj6voyzWl6BAJWsjNmSWlS3IZixNQzolWmIOagoAH5VEcj5okB2Eo9MqSBuLUOvACDfUBksS0WmjpDXpiCfGI3PWaUMMkHzBicJgVDRZXZ1MmlJ+2NqFisNAuCzvMNjxOTbpu8T45vCI+lvotGQ1h2goDHp3bMRf1raww0WGhmeKZ8qZmBCJI1omJ1q0FFg/wBTajLHasUyu1+1KdgITCyn1fyqBr0PI29OWFJpn4DqbVHOEk9Y3ZcX/chwGKuRWiH0LPK0PfhaoMUwOtMzRW5UQvZ5TUcw+R7HrRiFi2My63oEAUQjnS8M4pdea3qMxErhsj7VCITleY1LEZDE4fKiw2m4/Mz6VzRya6Gqp7tbHLG7w0glF+TagOFosAtjaR4QHiPSy+71CftbhXSN7X9uMDGbpDl7QdKcKhcBldhvV2uMnWCx+JBISRqVlcOQQwzgtR4K9jP2Gn2Z39FhsV9xioBQP7O/CMSyHPEdGL00al3qAq7qcCj9oUKupN874vxbNyIViH2tqBWlImzsH3pwK6Haw3as6cPvDDPtUx/a8avO+pxX4lR9YEUIA6YJ470qmS6x/IeOAg5Hdh+Kwt4q/lYOjJ7UpjAmYOX7NqSiI+arDlOO007weNIytHvxOh3x7fiJygkbrkYvggeJw5C3PHrTNyIRLlNgpiygdgQ6cPqdKwP2vBSo23vbjdeRjCTDpc6VNomw5/q9AXaUSJxQREkcSp7RBc67HShzEYL53w9dq131K5zMT8GJBdRh50kigQmIZ8iSdaD0IdWR7Yk1hVi6LH460AEBB40SAEq5VLYbDkXn8TSkZcEu55enlTPHBYpquL18A98iyau+h150ixqjRW6AczhzgeZj3qI/tk8cEOlIAjI4cGNvALCyvkdqZpaFZLSr4nM+Jro8JY2gEjRGOgTB1Yn3CuQCFjXQfZqdNMW3MPFC5eEmDk96bMNBEAS6AOgBVqC6LPXxF4MSIDrU50wD3fKp4SkZE8ve+dQxpLl+c+FmzRLhmjetfkaebSUKhMGnNJKdGL8LSxk6H9SoH9skKmTq+nBgBekYg+rFt9JaWA0AhGjGsQ7d2+fPHxaW6c+RyplaGt8yPU8q5YMweZn9xo0mZ5OenhABgIO7gF8S+af88NnOou459KwixmPr96gcDeK7s9/Txz2wRt38b1OrtAYDQ2oGDFBMVzlwXtnbg5IuA88X27UIP7ZMUmBDqH3y4pe04Aw1K8Fwcu5jQgiEE5dfwBCxzg+JoiVtTPnklIDRYv23LlxzflGrkdWlLlJXV4T2DrOT6HfjjGsO/JKaS65fmZ8qAlEkelob1g0i/AYRqmy9CxUJQQylmk2lyYI5OonThgFTc6XclpNVxo/bG5WPjyVgQM8tuDkSCsBGHYZZ88a0Aoxc76edJ9JkiLP4LWx+py2rEcXDB+5U47AGL5j7tQs9TL5NaMGolMVq8U5KlFZkJN/05Y1In9Y+FTiFBmuwe1Zkqe+66v4V1qSERoK59PKnoJbYNDSplMc9bAavl5OlsfRwR/j2svu1RX7dJ1gbSdv9fceAxqtWbgmK+w9zZZzUECwPWe3pUZSYPUMvw+a+i1N61pAyx+dql8QBARsYqaHATDEGhvv9fwMzAlVsFabL08rV8udJWGcxSqLRxIleRUj5cE6gJaJ5cmNNqEH7c1kAlxKvGjN9eAEtYfRdzLnEVA1UywyCY7NBgH4k1dFeMFvft+GdkizX9PPxw7x5tRmlhmE22/A4WqYnabn03vfnwaHBThydfk1mYrDhIKxHsnv2oT/cUbAe2a9OMicXkeLNi0bEUxZEIkI0MBD/ABHDpRe5icgas/PjYmXX5lLAVKN1/BmoJPqtRMwJEZE8QoZOU53GjVBtmd32rFqQkrR6hEdvOPQOsVs8sQIOCEvgOrTlaVK1aCD9xBrUs1PlH8ji0AZXoHEMBozSCiY0igsGwtw0Jw6V5UIPeikZGbZz24NiXAoF6+/lh1oR60u3A86bG0olX8UMHohy0oIXSGex7xW5Zh9HBOKrEIUR5sWrGV9sZpjj8lHrRRocvIZGAwLyY0KiYeAaBxXYtu50Z/uQl1yCwc5+PA2suIQ3cHDVFKM+rI+q7kRvwEQPCR6lQpOmpMUzCT1eHFFq27qWyJr7h+KFjzB+KTnyv5qEpnIk8yhWBbT+eGQCJmUQsuSjs1u/vtToy5URLUA0GJxedEXvV81kYvl9FSiPiAQAyDipnuGVRF/c4nU0C0hyn544CWhjkgzaksL1K/Rhhz4TfezCohH0wPbzoR2IKhWHMGnTQCRBwbDbAF2hgGP7jX0oAACA8RITGk8wpIw/OoUwAnC9NC5mT+dEd5uRWYDqe9B83l+zS0ixEhKBIgyJlVsEoM+zb486AQJaQOCPF8snzfahB/c5ynEX914c1hQ6ButqXMyw2fcLm58oAIAq2AqAmJwD6tCAHAIPBOOY3axjgTFFfZp+HCEb5qqYHtzRAQWtB+PBGNpzHJqSV1IvzfPBGcS7Ez95ljrJck4IbiXz9alP7mObl1zy+7cUdMsRZh9HA668CEorDk+fDKQHy92lBIlXNo4gugn8YFITndlpUblkyGjSEeotPA3IaJIXuZ+OCNInpv8Ac6RpwEGQhKkzeDno0pP3GYqZdR1w8o4IDvoxxEsoC5xwJwvwNf48Nhzlsm5p0LpV42ydAc9/wszASrlWTA6XAb6IFFH9RaeAQQIRzKdd8ZrRwLeMxDPkSTrU+JVqEnCAMB1jD7tUR+4vAFDrRNQEBw25mbj5PPQQCVwKJu86ufgk0YTiPm0pciVcXwYEAEow2NyPMrdjinxD2us7K5SQb83gNRXMyGjUwYcbHwDA4/mt8cI5FxM8QesOnCXBNh0x8pqA/cHDqL4yLph5pxW6UFzY+QomMDySfbi5MF1WAqfV5Y8mh4Ju067wYkQRk8CZlgqGopYZAz1xr7h71Au3aSnaDUyd2vU29nAbsAHq1KE2fhruRD71sVKLg6LAJSICsPrjxNvBe44ZYt1xe/gBAkbNZh0oMn7ebXph/wBD704yHgXVWgS5idw9+AMaHiddKhKidB114lDOil/TKjzqicdr2SUC7y3XxSQByfD6YdUIEags5HgbvWIJKl9w8XxWOiIeAoORGDnrWGiJOEQZF50v+Dc+3FivkDk+1Af7cNTIlJfrtQAQEBw0td1ZdTB1pyamadASblH3CpRDTu7vikoirdXgTcjAGdECxwxP68bAIHNVTrHCcQVgJWjOJiLTbxxAg4WNIIQwchqcJVBxMnpVq3XC9GrDRPDm1gj/ABStiG8Nt6CvJ+QOZwCoKEpmZTqnzRftsBTFxOjWiB9zfhnqkzXQM2iqZPMhm67YG+PiEBRWeZ1/CcXeedo8cbh/F89PwwhBd9ikQEDCPESW8G/NwmafLPceudYQWphmAyfuHBVzBzWtW8/ONacP2uQq0Gdt24aNt9HztS8PpJY6u7OglgxqHLBwFnr8UUB5gYNOPwcYy/FaoZwnXLz4jCYPoH9fxDEGW+sfnhonnssXyrI1kRFooNFi5Ly0pEBBZHKmydB93ky/rQvh50cLYZnPN81Gftcxpv8Awvu3Fc1xnY5eqdDgWa4mXXnxEhAzlPCTD2Rb1n8cLZp58GosSb8VuiHsfyeATsk8j34gtv2mX54IsSIuGTyEvzN+Ol5nnYfdqc/tKUqF2PklvngjwbekirS2lJ2pD4kJU5tHfV1Nch4IBuPkcMVyUbxf8aM4qeAM64vQ/EgiODSrYoV9zc8BIwdB1KsXWSYDI0G8Xgm4v0NuEPfS571EftQrOQmPPgltkZuQjoeAAUWO5/I8H3tn5CdUuBNWx5vEGYL5zP8AX8eR+7Ss6v1PBHBYHlg/duDCwjkFwZRmwbX+JqY/tP2uLHEzCJzeZrU/ER1awwt4CcbOxHBXMXO34olb9nl924uzEwp6cYfhQiQF2nUxUtMGYIHu8EfW8wOECrJ604TuReVOz9ocK+/0eAH6vR4Y5IsHN4Bs10bnv+FJIPvtWK2zy28AW0stcHT8Ih/sY+U8BTQk8p8Qu8BtX6RQs/aVojnR4tPT06Cuzsw9j4MUQid4txa8KsalCCBImZ4ywGlXKoJPqbd8UbQS+V38aBACVcquSyt2rxmPFjtxyUIneLefDSIdzjgns4POj3qIftNpVs7cFjcj6PAE9IxWZbjDj7Iv6x4ErrvXl+KNOOZ4Y8xixv0KnazgPm8BADkXnSmw7X4U5B++ddJBA+dZ2eFieAQaOXD81qxCMuZ4Oe6M65/HXn28Ewsl0bnvxlViuR/fTgeCAHIY7gPXhOPFm6W9/KoD9pmKk8odMT7tw775MQOvqptU3A7D+/jiQcBDpj5+GSazjB5mdRxLX+yoVk7fJRgkd58qHQZzd1L2vFJWrJRug6atCnUa9NPCtMmIkjQEDF1uWlLWWiJCVDRcyGhoiAynzxoJd3k/NfRz5zSxBxSXwmbwE9nL7vwLgKVcqYEmAuVJ7iB1LoEtDdDJgBAcI6uvY/s0I/akzSz+F934unzphb3j3aUWZKJgBv76CBgkN9/41d+K67UBc0AZfgh0D+A0zciEcvFykoYUMOsDJO3zUu2HFSAByaFA91gOs60WJDmfjg1sRLjid8XINXhAOSOdwqG/awW1MhnvxnwYuLEsuQ3K26QJCR7JxyFsTCm41owphbpHxSQgoOXBZEhPCXUuDVqLOQuOo/iIVdg0/rwyJtfN+JRsxyHHBQ5PbjmqeSkBsLzvHH5XFl93qE/bNi1q+eX3fja9IAzMyu5xo2CKXn/PAjLZYLKhHKw8PACCso54fP4xQ1DmX9vBKjd3y3d9vFAJBZbNzy4PEyQJZDE6lwM2gJWoM3k5bUIP2yWrTFjnMeDDBQaFvMPTgEBisVy8M4LMzHUpNcMTwHEW5H1/GgIJGzxEjucxry8cn9BHtwsUDGZ/onhGOJfLyGon9tlKk3Dus/btwbEY6RLJUnUsqR8gQ9aJvAHx28sWspjiYThZ571/GbOC9nC15i0qQdHA0PGp2x6tKZiLz47gz6/41EftokrSrtM/LiJYjQF1MXoXThbOIe48Zt0GFpk+3bhBli464ecfjmmvx5Z/d+BEs/yy+7/gF6UE7CHzrs7iB5A8XpJD0t6zRgft05V4fAfyOEa6JZi6O/l4AScc5Nz7t4zkk5FZXw570WZKFpMF316/hQIASrlU0HyTWtK+0xfL8GLKOanZlZO9JsaQLY7eXhiPJURmkvP9vmKkvB6h/PThjzxBckxNzGo2uLcYqSRdG0fu/wCC0ZtPUt7HBCtsgaVfF7nN42RgJVwKhrP3+nCbwkHJf4P4CxI4L2PftwSMcMXMvtwLNwHTn5VAft7co5fBvtSPyMjwwCGwwcPT6NXAbKd2jTn4xc+8OJ4JzKNO0GeyozPdMcWQgurlQSbNg7063RbA668cGrxzWBtar8VOqcqjtSGNl9WDu5UAAALAcMzP7n7iMtU9l+wzPuvBeo25GnN2V9p2Z/2gSIMiZUYBgmH4XxC5p+5/nhFGRhKwkdVBQ9BlSA2snhQ+Jjp/vimpLge+lT8XsGhWs5sX83yoJIfO/CZHuvC56Mb61cLluv7iJKtsLJRGzlqNOGPqIWyCZP3Ck74T/OtnrjwGLFg1zk0YGz2+eFEhJgjjwXmco/Q3pfJeXwhUBXagpH5Pgx57qeFMIeShICFxs4KBKwFB3R9elDvcp/FIEUZVzroctDVcjemzQiCweX6sdApatjAzXQoqx+gNP3PAqmHSdN81LwXlwP4cFkaudVsHojHG/Ord62+cHgFKs1DwiSiKuK8Zt4Yqw61fm+Qd/wDKLvuX30SEGAEeAWOQTUrZre1hUl9IDKmwXiEJwLMlQkebreSSngCsF2p65u9my9Yxzq3CYxSma+mnBfAGGq6FSIIOXQP3SGpcfcX9rKALicVhIupiFFzOsOgMueHKY8N90OU9KLDhB+JECUC6MPDduCcDRs4N33mlgu+kSdOMHIedYOgcsUf7tBhUluV5G9ACCiRM+IEARxGpxHdXl/G2xjWjoY23YD04xVQUmrJ/HIuZW9pxjPUO/XVgX2p6PCH1KzdLR4FAVYDFrGCWzXeh/eIWpIff7X3Pw4+EIzns70zKGe9DC60WdrTytuGGBt6B2oAghImf4J0Ds7yb78EjPewvPPkS1F2r409buXKjlBCAaAeF8bRPJj7UBW/ecap/eFvePGiHR8gcRKxAGsVf8HQ5TTu6MDppQwdIDvSAQRwTwE2efvij25513m8MsTR4+v6M8h+i1zYu/jmM6DnJPtWH+8Czp/eh8jDafgDAaASJUtebKfNlybbmFZz5SHCcv+M5USOoH2oaFdC9qEg3RXg7wInBoBUlVvuZmDYvfKhqFHaB+CEMvBrqUBJoX9zTPqLnQstD45ltYFOzg8saEwbAizpn+PQF2JzMein7hHtsbId6DByXARVL8eX7lAQl1R3aSPTJTol8qPJMXiE+d2VJGJEHUK/T8baeY0ZFVRkSn50nOk50I/tgmNX8Om9Nax6ehZ8+dfRl1r02T/wk5S1FoyzdUrHP8gpax7H50KZPByetAY0X/YIa1uVJr4zxaXITzPxQAQWP/JWkTESaZ3RiTlrRC9CY8JNahrUmv6yDjUkZbAEtFyM3Hqr6D80+jD2V2wGzWf0LnxOqDFP8SiZgIAy/8xxukw5igsGGRHyoewjoKvfhnrW4+m9L6w6VkTWgjgp8zlRiW9ZxT8TRn9SOpIkyEYrQqEQ+DYhkldQwozcn7mVDUOY08NZ7Ch42MXNdX/025DV6fK0AIAA4QAFyFh1oIvdf6iigpvF4J0M2gqgID8E2LQIe5WI9t60NIsAIP/ZizBQhv1BQqn/Qdf8APPgHI8MEAL1lQ+qynTQYOlfSvevpXvRUvZGI7G885qfiXAX3PR/v/Myx+hBY0nNtWOtIZIiLfKIwv/2ylGNyNg3uedfSvevpXvRYSGr+rTRi3P2kci3Oi5VP3WdqR0fGKCfalGUZ9AyJzneaELaQQRWDaR4RC4Wut/erv084dDep6HgpkGz7WDE48aGWLlNOLr9z8btThIsTMxPc3CivnAwR/wCZrzP1f9v3Wldqis2BMda3tLhGMTuaKO1OQuzPJJmUlaLI2yrn6jSobBDVENKnFbADuTynnUT77USzhuy8Byv7L805H6fi0Lmrvd4qcAvktAvc253OS8JXw6C1wG1eglxgM22BUbMbHlSWfKg7a+ukM+VYp78UYZxcWY3rPAYpykNl46dafcyxZpQoa9YvaaJpeAC9CjqnHq2S4C7dKmqMXwRjnI0J7VC12x5UlnyqcJOWucM+Va0jXfYmJ18DXn3qpGBsMCdSLotWQesW9prJsFSbDidhnwNqUDeIBOpF0WrIHWLe00lpcSxycTfCZ4zneklDjjaCSrWZtbiJzKymQMOzkOyzSQwxNOZB9KLEp6RLiVGzSIRK8KuMUtv+YlBLoLXpK3kUEvMJ5k1hhwr3uHGnYzca4MVnA+60CEFmnYjE4qQyJISXiXOIondQ6NA9zh91pX6/Rxd/egSdz51FGFtEpQJWCpAwEs3BZijiGhwQkeHkn0rB/T8evtdfhpQABaVICrA3XAjMxitpcItnY3oBJU4FTOpKEAAXvTmlMRhbAnLnoUgpMOx6GR9aFpshA5xSpR9tElAIKWJrSUCIgnLwTmsTJiDe4dZypSCpRlWj9xJAaiFMWRCJCNTNp7OUNrNt+DVirMvNwso+Z67FGXAkWJyazNFmA0TM2o6MOR6xuy/nFpKkUytwfiZMLHnEcEoRm5yCZjk4zbDCmZgJVwKijyt1PodTsXfr4MTEuhfFpYkgSiXsUxnrnzg019xWcg2ay05YUmCbfLQwVAsIIvJeGJtMGNcCjTIhzATX3uuhlFRszCe9W51t8gFPelmmUAoWYicuCRvN4i1mZ+WmxyxgdOD7rSv1+ipKUYuAF1aZ+DORkTGgYc2o/QcWAu+xpqBEcTm4MyVivtwz9tcfj9Q8en0B5z7+Om4x+ZdK+sczhGqjEmyQnmKRpDXG7Bu/LlRt1gkBQlgjtAoQtTKyw9GTom9fTaeFi5TOopXyiWXKwGymPSpfBJWmbTY9Gi5KBSEO4TnNPDa2McwAHD7jVU2wwOMZHd9BrD2zEOe7vQA8xAaEJhqqbM3a3RKtBADPM6QvpPFpYCoDFamFicm46Zvn2Cn+oMgxUmjGc97RTaTMtWk9YnrTbLJYc3toN4uxgTm7GNAUJgbpNeAISzz9zUz86nqNosZmzjU5YkTKvJecT147AUKHTosa8dtr8fvddJkNJr8b1euAD+bQe8viSQfsta+w04futPBaKUdoFYZAkuY8XN1e2EvgqFxc0Ho1h/p+PXm3oeCmwoiAQVjqqOCLancgnuVdKXKB6O3rQYZvA49TE3ODV1n51CJiN5BD1eKHBBTZl9CvptPBukkRLlsZ7n+0y4WBOc/dHC5I5fiDqoJRhs4sbZQv3ww4fcaqAMITZwMcRzDqABlPI7Vi2VzTxaidAnYz5g8EywTWJtTWVbR0Tw7R4izbkIZAGN4XhtE+y4SJPqs6+D73XQxgRTBnPNEOrxpIP2WtfYacP3WlcblGvADw+AhfJeQNKp8QKS3V3v4qhc9Yece9K39Px6e/JeTxU4JViZpD6FwefCDrIpAwG6x/how8jgFjXIunU44poNd4+SOa19Np4QPDdj5Ac30pyMxFJWyhp6SC/afOgLEaZp3ssGedInHNsZ4fcaqAaIZQZtBlF5ZTxJ1PUXOmoGe7UCU5Bgvp5xHNOLQslUkwklBLsiec2vt+ERM8jYtug823BCmZuVECwekiF7O+iURWJJUklCCzA6neP7X+do22wAA1auwLEd0w8e1P3uvwJKtJoN3X0VgBSEOB5SHTg/QGFCixcCgFIdq+w04futK/X6Pw1C/1umsP9PMuvNHr4qcA45hRITqw4LWJZwsxOVIPEbrH9sdw3pEOIchiJUHHQSBoOIbTUC0QHI0n5cPptPAn/N8IT0bTvPOsPqS1TbT4Q7QeVAdGCxyIsUhGrOUDbtR304fcauEflQSBoOIbTQMDRHhouTaaAwIaVOAFJACR9frm9NJ8DWSgldhomCc6uVtPtIrNw5BU4iCWiy+/ArLacxpVXLBb4GZ7RTjC1u5pZxzo2EMxe1X6L59FZ9ZqEvsbSKD6G05ePan73X4EgeMk4RydkU88qgHWGFUAw4NA0JuG1D3JIJ28XXh9hpw/daV+v0fhqF3yO9/ahB/TxLqZeedS/wA8FHS3MViPRBqMIM7eYQLzY3oGwocggOIXloL/AGSdF9opGvGKAwDIX+2irNwQdlchz6RUHgeD2weqo3HsDtk9VGsD2ENkGa3xTxaBRkgwQTz034G6CyBojThVu9oXk7vKmayFWNmBviKl1OGo6riu7w+41VH5oAU8aJRcjl1rsFINA8Htk9VCgA0XXR0X34wRZUmKEqMMC96gLUlCESUMMozhm1NbnqBOm4dHh8NNIcZbuNBugsgaAccKgD8zR3pDcsgTy3jo8+Hja+iJ57p0KwvMnnqubu8GkMUnNyYuRideisTKSlIUoXhSI/nEKki41VAzOP2ySAByJRbYL93kcS5CjCGjo59IqDxPB7YPVQEZkGyNhYGNMTbCooqh1I9DgDkS5JJjFu20G+FK+U+DuSoQDDnPhGe+7NEJXLiJeQQpzvtUg0IrjqXdb8Iey97D3qI/T3CsqrKw8Mmm3/L9xq/7mJeKIEsBNX6dIy0uS96BBXIe1DEsSPoT3b08wYVJ1PPQzqCgGwPxrVsYGa6FY73PLahB+oFUGJZxcGo3RUCnJfo+aVynJ9quTb0/zXqPHwpRNvMvak/g3tWTLUj60RdulCLlXIPEDsr2vNgPek4jzpYOaNbs0U+ByGgUlJQs6lI5wS4oAO+LrxKti4C66UhtWqCiOW2Gvqd6TWNzaM9uHk0BWMDvvnhUxaZMPkUrgHNfNK2vc/KrYjzDuUJI3M4YMXS57UZhcpe9Pxc49qy0+jGsfl0CtJ5uie1Ps9nrXuCn0rQvJepW/FJPBdJRe6RvGyPOrpK/pL+VDCFwEHIDsaPFWWLq1WbxUCVgKt/ID/FWNua9j5q4H3+c1BeT6aVg/d1OspnaHlX2/FSLLcl81sQhlyUH6lDReVbVB5Vt0nKl5UadbZS8qAhFQMLVlPVRaByrYpeVbhBUNDNskJ0zoQNszws8WBin90qK45YtHMKdGm5UukdiBWCE6UPKh5Vt0vlWXUlnFSLLjfgwORTonBisadGiU6JTcqmSCwVDTMPkDrnU4umKsOniZGDFWKkbz9G9cmMcDpWRVlVAZVsUnKn5VsFZFQH7Ik0ThTcSzMuYr5bDrwZlWKoqQ6KV5aUKtQj/AKCcKjmp4JCVdpyvsoO8aYPbhuQyCusAWFSuDIWHSh8KAft4UyesBfR6EmbWobhQR/1JNZbWTVGKBkIKuiS1k9Af/e//2gAMAwEAAgADAAAAEAAAAAAAAAAAAAAAAAAAAAAAAAAAAAAAAAAAAAAAAAAAAAAAAAAAAAAAAAAAAAAAAAAAAAAAAAAAAAAAAAAAAAAAAAAAAAAAAAAAAAAAABDAKBBBAAACBIHDDCAAAAAAAAAAAAAAAAAAAAAAAAAAAAAAAAAAAAAAAAAAAAAAAAAAAAAAAAAHJLLPPLPDDLHLPPHHKFCAAAAAAAAAAAAAAAAAAAAAAAAAAAAAAAAAAAAAAAAAAAAAAAAAAAAAAKOOIFy9j1PLGLLHr0WNLPAAAAAAAAAAAAAAAAAAAAAAAAAAAAAAAAAAAAAAAAAAAAAAAAAAAAABHKPsI80gmHtO4Qwggg32PCAAAAAAAAAAAAAAAAAAAAAAAAAAAAAAAAAAAAAAAAAAAAAAAAAAAABNLLADCgAAJYDgAABjwFVOAAAAAAAAAAAAAAAAAAAAAAAAAAAAAAAAAAAAAAAAAAAAAAAAAAAAAABLDgAEriwAzaQBPAQAA/LIAAAAAAAAAAAAAAAAAAAAAAAAAAAAAAAAAAAAAAAAAAAAAAAAAAAAACNPbQAANSSfJXYQgAAl9HAAAAAAAAAAAAAAAAAAAAAAAAAAAAAAAAAAAAAAAAAAAAAAAAAAAAAAEMLLQAAAB3PPFgAABLJqCAAAAAAAAAAAAAAAAAAAAAAAAAAAAAAAAAAAAAAAAAAAAAAAAAAAAAAAANCEDxAtvPPLZSAC9PHIAAAAAAAAAAAAAAAAAAAAAAAAAAAAAAAAAAAAAAAAAAAAAAAAAAAAAAABNPHJ89NwU4ce87hFLAAAAAAAAAAAAAAAAAAAAAAAAAAAAAAAAAAAAAAAAAAAAAAAAAAAAAAAAACPLKwwvoggggDyUPyOLAAAAAAAAAAAAAAAAAAAAAAAAAAAAAAAAAAAAAAAAAAAAAAAAAAAAAAAAOOOwhxfDCAglX7AA3FLAAAAAAAAAAAAAAAAAAAAAAAAAAAAAAAAAAAAAAAAAAAAAAAAAAAAAAAAPLCxvMY2VXamwvRBwXKIAAAAAAAAAAAAAAAAAAAAAAAAAAAAAAAAAAAAAAAAAAAAAAAAAAAAAAOHLHPEAgghPAgggsbiiJPCAAAAAAAAAAAAAAAAAAAAAAAAAAAAAAAAAAAAAAAAAAAAAAAAAAAAGHHCtrIggggNIgggglGk+PKAAAAAAAAAAAAAAAAAAAAAAAAAAAAAAAAAAAAAAAAAAAAAAAAAAAAAPCQg7QggglPYQggggoQhnDAAAAAAAAAAAAAAAAAAAAAAAAAAAAAAAAAAAAAAAAAAAAAAAAAAAANLEggPQgggg/PgggghqQnfFAAAAAAAAAAAAAAAAAAAAAAAAAAAAAAAAAAAAAAAAAAAAAAAAAAAAGODQlbxwglPMuYQQk/7QlfLAAAAAAAAAAAAAAAAAAAAAAAAAAAAAAAAAAAAAAAAAAAAAAAAAAAAFPEDvvLTrooAg9dXvdPUn2IAAAAAAAAAAAAAAAAAAAAAAAAAAAAAAAAAAAAAAAAAAAAAAAAAAAABPHHM8W/KYQggglfKYEt9NCAAAAAAAAAAAAAAAAAAAAAAAAAAAAAAAAAAAAAAAAAAAAAAAAAAAAAMOJYggP7ggggglJAggn3KAAAAAAAAAAAAAAAAAAAAAAAAAAAAAAAAAAAAAAAAAAAAAAAAAAAAAAEPPCwglKQAggh8qgghY+OAAAAAAAAAAAAAAAAAAAAAAAAAAAAAAAAAAAAAAAAAAAAAAAAAAAAAABOLKwgglHgAjvOgggkbPKAAAAAAAAAAAAAAAAAAAAAAAAAAAAAAAAAAAAAAAAAAAAAAAAAAAAAAANNCTTxP/LOVvLyAVmfJAAAAAAAAAAAAAAAAAAAAAAAAAAAAAAAAAAAAAAAAAAAAAAAAAAAAAAAAAFPLJf8A4lAIKBY5kzziAAAAAAAAAAAAAAAAAAAAAAAAAAAAAAAAAAAAAAAAAAAAAAAAAAAAAAAAABDDwzCa0IIIBnzzxQAAAAAAAAAAAAAAAAAAAAAAAAAAAAAAAAAAAAAAAAAAAAAAAAAAAAAAAAAAASzzzwjq8Nx5zzzwQAAAAAAAAAAAAAAAAAAAAAAAAAAAAAAAAAAAAAAAAAAAAAAAAAAAAAAAAAhSzzzzzzzwzxzzzzzyywAwAAAAAAAAAAAAAAAAAAAAAAAAAAAAAAAAAAAAAAAAAAAAAAQjwgAQBzzzzzzzzzzzzzzzzzzzzzwywgAAAAAAAAAAAAAAAAAAAAAAAAAAAAAAAAAAAAAAAAAATxzxxxDzzzzzzzzzzzzzzzzzzzzzzzzyyyzQAAAAAAAAAAAAAAAAAAAAAAAAAAAAAAAAAAAAAABDy5LrTzzzzzzzzyhbzzzzzzzzzzzzyypKwLggAAAAAAAAAAAAAAAAAAAAAAAAAAAAAAAAAAAAAART5h7yoJa4LTK7Chp7zzprj4C4aLyLzLCY6ygAAAAAAAAAAAAAAAAAAAAAAAAAAAAAAAAAAAAAATT76a5ZxZb7yowai7xq76777xZxbyrzKpyrggAAAAAAAAAAAAAAAAAAAAAAAAAAAAAAAAAAAAAATT5TZZ7Zaqr776ag7aaa6777wLwLYrz7zyriAAAAAAAAAAAAAAAAAAAAAAAAAAAAAAAAAAAAAAATRzzxwxzywzyqxzzzzzxwyxzxzzx5bxzyyyggAAAAAAAAAAAAAAAAAAAAAAAAAAAAAAAAAAAAAACAhiQRjzTDTwzhyhjxwziwwATDDy7iwSxQCgAAAAAAAAAAAAAAAAAAAAAAAAAAAAAAAAAAAAAAAAAAAAAAAADACjQAAAAAAAAAAABRSgSAAAAAAAAAAAAAAAAAAAAAAAAAAAAAAAAAAAAAAAAAAAAAAAAAAAAAAAAAAAAAAAAAAAAAAAAAAAAAAAAAAAAAAAAAAAAAAAAAAAAAAAAAAAAAAAAAAAAAAAAAAAAAAAAAAAAAAAAAAAAAAAAAAAAAAAAAAAAAAAAAAAAAAAAAAAAAAAD/xAArEQEAAQIEBQUBAQEBAQEAAAABEQAxIUFRYRBxgZHRIFChscHw4WDxgJD/2gAIAQMBAT8Q/wDgCSYoTFx0pRDiUI29c+MKipRSAl99KCiQiFKFwpmVLQcbjSKvP9NTF0tvtRu1wUCWgpvseaPp/wBqClMVmONFJSmuNDSSNqBsl97iHKPDClj6/u9AyMNcvRiCz98GA539CcGawVZdvPieETkX497DURM/JxQl0MLxNL4MNeCISlINPI4RRmk0rYKHyaDiY4Aas33tEBit0c/Qhv0vhNPFY3MC/ATLBvWW/wBqCi6/33Sqy8Y8y0DJn3y+YamJM+g0PoG7Df0sBJ5Wq3vr6BPb6pIjA34K4QN6iBfN9Cm1TuCTbxSIw0XDhQjAXv8A5/wA8IeWHdwoyROvlRmWeX5JUe8C62P7S9GDPsHY/VrDj4qEUuwydn8isK5Vhb/HbtNS9pfEPtKUSl6+VQx57RPXP/gBzZcRWPLbvsAAgKRKB/d6d4M4BoZeWiSgPnd3fRNyWCUr+ModYyeYPXGnSlYjSMCsnEokDDfRuba6cre+wunE65fr04MoB8roGbVpJto8u/CCk4Ss83J1nDfKjCSOnFktANd9PvQpQZSWrpG5pufpnQ+YrJSCQ0F/MeR8MnT30s9T4A80Wl2mXNy5XpZIctDYP7ehQTZ3PIv3ij4ldgP1pEcaWemKPeloqXBTuUBn+KEJHCJcehRDly/Vt8POl4HNk8U2iNLPh+OVKss4lv8AHfvpU73CueTcooz8H0n777IvLMGHzfpMUs0FUrEORku+mnO3FMMXtzyfXThIFjb9P539D8YPw0d9HpyEuhmYJULJNtjzY98TMJxF9+HfQBhiCGBJZj+tQHZGLkZdWDr6bIIR5NIlZUR7nfF9IqOD3Z/OPWlUYwdA8rUdZMUWdw12zyxv7ySROK30O/wPAEm2g3PAO8+PSVrBexNKrLUK3kPR8Q+knNyPrxSw83AiYwHW53np7yRm1DsPngBrU9iP2hb2uZj9T6Z3623+rcp4Ajx8WTvbt6SVkV6/+fNHocu4eOAmdQdv9e8ig3BOmD9nAzN7m4/UUzMJJQhcG+Y5am/fi7loD90PlyqBjphfrIomRdUfbVozVMO9qFva348u+tD2EbJicGK5y5uuhv2pa5SX+0MqBvLhzMfqeGQBx5uP1HvN8RdzM6lWuz1n9ZR+VdlS/wCdOAZ0TMwaEsNwfm/ej2Cch8mPzWKafJeNXtrQ4egcEEhqOA4os8tHazTPYFKmSLnHyY0ilZaHlRqGHe1CTJSTZ2kwxKCkQwzTo6Rn8XKeqUl5vvcCXTjYnKPv4qLkmuD/ADuU92jLmZfXBBMwdM/iiygIOnpgBAT1z89eEcHC5+vDvpRoIDKjLkI/uVyrwaR5mHvYFJ4vQkcEqQ47Dps/mp1qGN/JerUD/wAP2gU5tmvgffX0AHU98AtsO+fzPG9I2dEs/wBlUJdFycT8ps5CT0KBLSxYiTcxv1XtFWjBHl6uPFC0Bi1vYXuz74oaBSt8zrlvz9BnZs9g/tQakuZm54z2oMgulntf84QODd+i70p1OO7m7bHy7WrVYXsKfJ6FS/UNOb9cz30YxKYpULC/Uz5mOzeo4Bs/ZcpdELrRgkCw5GB8HA2rBlGhFine/CcbLHk4Pw0OImZUQY3QpAcuqxyM+uHOk7yt19/FGSrrPNmgTlIKGfytM+vYo6B5APrgbBJRbAtcD4eo0tSS46jVwjkxSqy/8HcVJ/udC1xzMx8aOfoVryM10P7DOr1LY0Mj/hgTgzKCAbjB7Yn1RBm8qDupKfgj7aRN3PzTp/8AtR//xAAsEQEAAgEDAwMEAQQDAAAAAAABABEQICExQVBhUXHRYJGh8DCAgbHBQHDh/9oACAECAQE/EP6AALVxLt7I2DuckAWalqWmog5er+/2iAt76F436y2IPSBl3OvEWttlJLyjiG91+71ljuIbefEPvs4UFsI3qUfMAN26+feVt7ridf39YTbaeu8AV68UQCu3ve22PI/6xtS0/j9+8MsbepuffQ1zj/L92wgdTd9tDlG5tTZ8fPxeKRefx3tiqJ1K39zKVv4Ztfxv7+3Edu3r0wgDklAx2vrX2xUi4nteB/v9+8Ept6DjNRQD1Vu+O9u4afWecuvrocf+J8kuVZ6fHxN3FDn498DQ2PPidJvyZQmvPx8xStzS62FrT+D275dht+JcA37aC0e7xo5MHPxpGP7ZxArY76gp8uP8R8BR5wrwHq7Sjm68uh9wsasU8fERGmUQ294e0r68/jiBXfxFWHmHxD7RdjGe0BzvPHEcbRuc4SN1kW2D2K+gOvgAtj3QBRoQSmWZ0giWRB2ZzO/N8emBFsR4NKjnRqq2x9rxBEsxt3fRHuMVWzfJX1gON4PBPPHrIzgscRmcTDw99CKHFO7RcUx1WilZzBSC09868CUk2zSllYO3VB5d7DlMcUO66VovCs6envih2cPYIqpppML1PXTvBHuMdPeXumFdIKNkA5H3xtueGPMJ04G8AYlWyimLKd5ZWYBWvA1A+sV6zmvEAKMm7wLgxfrjhCUgpAWIttvewFsT0i+3FgIFFGn+8Y68cQBTEprvyXtLvicerply3Rz98qHO3QVXECzTxcoUZdorV75Ru0CnH9s4BwHJnGgWdFRTv1G0BwigWy4c3D5xUMESyIOYHELf0AqwFaITneAOM9GluoKfQiKyGbNBm2MrfoYUbIpyTxRehEVv9DR/M/8ACe1mDFSs1ipWDFaKxWK0kcPbCXgjhxWkjhhKy6zF4e1mDFYZWHFYMVGEqVCOmsEcvc7zebl5v+F+ir/79//EACwQAQABAwMDAwUAAwEBAQAAAAERACExQVFhEHGBIJGhMGCxwfBA0eFQ8YD/2gAIAQEAAT8Q/wDzXJvSGRXCrjUPgUI6/VkpPIpDRQmihsD78yiVlRWnKn7fegaBJiES7WqBrcH4UUNsK1D8XVHF7Lk25fFQxnifJtLi4yMd7Coq33rAij7PrAu0TcVPW+9KQDaR2IL0gJLj9uJQYecEUKAPRGiSA4Mw95FBZ9gsa0d71o6sCKww+9FDNEyihm23NMQysRPfj5VGL+hJ9wg+WgxJWAvgso7PCCeZNEjAgAgD0tyGr7to+aC0cvDAwfYT2avxTW80mPIUKg+9FSJ1EulKJFaSZTHfg5xRpQdYHvgPaabES10/DZ4CsfTBA8HpXIuRI+GnpY5Z7sFpVPuCEPivzS8k8E8l3sVcR/H9pJ5ClJGRhJxQhAoyz94AytPSSOaeHyByXFvynmkRQasvBh4PrayD1LnT3I5moKrYvf6eYoNZ71hj3pRqCqHdwHLQvUcsvDieJ7lb67hdbrleX6oOGQRhOBCeGp1pXmv4fwnmtfACh7m5yWo4iP3cSLRIwg0qcBWvQBft78vbn0SY7ApJQ9C0oBQUkllF52Rb9qhunAYZsWxaqAgwkPMIt7aRkdgqWd0qaxYlJBZg0CWkEWi5Ml2bGQnmmoImAaRhZaVm2KWkgY7/AAES76Ug0BiqJCKEbTOEkRZwMxBtriG4LIW0+hi0ZSz72TRGC6MPZJWInjA8HVR9SKMoAHLTYCkASTaS7GQTmi0UpMglsgxaRC+qQicS6xQUly9ipJ8vEIyPgsaZKL1aXmYKwJuhR1GnPV5qiFwUzaL2CiI9N/cz8bo0ii3uJR20vm4Y3dGPtd54LAXS0sBKg+iEYkx2bdaP80stUAQP4PyyagCRz92iyYgq90QEwLd1Z7B36NS2GAJUWA3aJ4DKhfZM/DTVodRYYbmRNBF1ocrwB8lSfZrJFgrYlWOWoJWyPniYMYpAaQsDyNErGXxlZTZYQ5iRbjUxAuGMwLCwwxpUp8woFiQEEQYAhEVEqHghbUFtkuOpTTJK4NxloECMN0SX6X3a9nD3EURsiiI02hAoZG8Xa3Q4kqUFwKS4RgHBCFGFh9IPaPBpQsAurUTCSsxhuBFshHRpJIRyjBFZjGQqZdBMW0d2wF2mGtQhgu0sphhb2qFWyuWOWzRGqhssVLfQIgLwbTCwTBaWJXcHgREzhe12kUiaoM5MF8Je9ANlSuMqCDoFJDIJjzNPakGNRtShiJcEwlXW+BAc6hkQEhhgAVfgelkE25DkOkJjQmpsmyN5ribITfkPZk0qLfutxRXfWDdbB71jbwxEwRPnPSJVNGMt9VEzICSGTosK6Bw3mSZDKVi5JNNLkUXcM+9J2xW4Sa0iSR8M0MBbhAdwS1ODYoohQZZstMca0+7g4DkRyVFT45qOiJbBLAQEsFNBQU8mn7FuxDCK12FplAmbikM2Q2mnCDIgPRRC20iLsAYMyZ5D8zuOhOGIrJqGEwqRolGZJSFprsCp2S6PU1J3C0oWAFVsBUBs5S0sGbiVxZTRQ4BWidat3Y1fKHRHRMmPpITYsETQrAXyH4Bq5V3QCqCLid75vkwgEubQ3dQEgciUqU5md2lZtLbSrYS9DCwomRpUuGSRN3J08QVGM/tcSMCoaN0dLX0bAl4vDwoGt6MrAZLbywC02mjiT0QAL2DoGfykK2RshIoRFERSptoSIqGSsI0uI6GVCTbqX2I0k06fdbhvFBFJUJ7/AMLq3ymKIphbYBhscJSqrMCSwmwXVEM3gqCV/wDjSnhdIw8h9JkYEIkiVOrlHMgxEWB3BmJUjJ7M5UnVXlmyNyaXDxdGhOvmBGGAoYoYVmeYTBoGRNETToxOmyzalYizNKi0C9Ta8aq7ACrsUQTW30gidIEwTLdVGohMMC7wMBobsr9EQPsk8bwlLTK4P8UK5TDK1LhvBi8p0LOdYhclzccrogAmDwJ0yTT7r+FQlNupyJ+lhYKLWRyy5WnTEAjTIQiaT+wiqtkVcrI5Xq0TeAW8oBPJWxMu30ixII+E2RhHRBpfiCEgUkcxKGNMaU3FO6YNQ4SAACVu0KeWYXaJFkGDMEYpkCsSiQ6qq0Is0xcwObFxoh+kdsqxMyjIE3gtR1UJq5whA3TDdUqikOQsiOGrpFyA47E8HpG/j92vh/dYl9q1Wj4h/brH4KC9CDvlm+WEpwhEJLjCa2sC6BlARFuIJYRMnUmwEQkRyNEgKUEe7zS7xiVhauUGs9WLXWCwuFIi4CMnMS5Ich9AlBAoa1zsDiiPoEXGbybo4VC1AIuCZErJZBapcF2074kuTq3FAgAQAQB62PiSgBlXQqeulOBeLWTkU0JiBCWJ5ljmbqM0KHO5OVvlL6IdylUiHuT4FaCl13adSVjIQMcKA3OjRmI3yEiniP3W4pnTbA1U/qhLAFGE6OdPFRSBgUNdYbVO9hymlIMS2LZTGahkygIQYAymJwJM3hPQkXgMrkRslX8YCyxo3c2uMhZU1vYwlKIRpGEid1Q2dOy2W8XiS2y+oy4vphzBxB8UFARGEdKznaMO2QZ2ox6ciCIJNmfa+oyVQc+6rBVvntcZ2td2hs0hICeTeIoC1s8I0jp4fuF0mCA0D0nvioDA3YS+C+i6xQxIBFnrIkE3Vym9LUUIMI7lGkHvCiHvPQpRvJonej4x92Y/pSvclnVQe5D56F3maAYlcDApsAJCUiEbAJhEbiOlQHTFiDA3x7Dq9ZGETNZnUrqxjMXkp4+qKc1GUHsKgplS0AA+A03s5bqbg0TZZgN1csg39MH0VDax0icsB2PwekEkwmSRaHstyJGsBKRYDMKYLTe6BzQUEWqCbuEtde0l0etBfqBG0NhJOjlQdshmPg9BL3VWVWnHSoIhQGyZkyJEGT1Q9WFMkrh7hpDPuwScUrCdh5jydSlwsyvCvCNWJXmfJE23hxmBhfVgabSAmMFsB9BhxbLlSHvFnUvI3M4Sx2F1ZMjZNGmhcarjUymbnaFWOqEE+9GkPKB5pKrjsoyvRwoXKyUB2tLzLbrEmJZKNNbJdgJJSaZErY7+V2GLKTSqlCEC4g5C8s2gRkxx4GXdcrYlZX6F28oEOBbCexN83TRCsJAaCwT7FQzU0ArTU8sul9F0ZiQWDlbeaIZ3bpSvdaEAfdhkKi5D7amjw4psWxDlYVyIjydFMcPXWXAC+BLQI6Tr3ArP8HOF9hSNGASQkYblnDf6FpfsC5w6rVWeGEvGyh2Wo6JaVck0Rc+36Q6cntkMTAsqmBnAF1ZsC2bV29/W3fhYNJeuwMPThHcRRNRSozjiOFu3B8F8hKA4i6Z2FGXhfeLS5IW1IWwMEtgdijbcoT4DwYOXH0JqWBGTgHGxFoAL4LYWALAlsbrlaQHQ0NkDpvWlIErMFBh5SUFy3Vuqyqqqr0yLIRsbXui+FCCNPu4zRpSt7rONU8A8m/Rw2R3G8TEzEmKU1cy45EdUIBZESRKmNCEiDWTTWVtmStkKoWEdFvg5zFp+iYO4HAMNoJz3GRSmc0+EfoiSdFsiKoAqhgnHqjDRAXWDVVasTh2IGTXS+BaX6JBFI8AlVcAa1e0YSrxIcW/DcVPoIEqqFUTUWke6EKSLBakce+wE1Eu7GYPAA8URh93CRGnSRWARMI1EuDQNmzZL+5p0aAyLSug2uFmmZErRXkuo1RAbhpTKCu7ZsmGbxEyzYb0FFlDwbFgF2HnP0R0TirWVNmA7FHrbQP4kgCTuVFgOdFllRaRkTRH6EpSBiyklSyRpABwjNzOE3hfoD4iesuWZpIMAkEAAAAFgOjSUiD3/AGqG0afeAOJNqVqqj0k28l+079bd4mkRGkQGLpAWaevx8AwiOEdKhOGEBkzBJdLoaVWA1VIyOcJwCweuH2ssL7IaGrxKMh3MlMquqv0BVd+rya9+po33kRFDyBIiZE9Uu5iyGJIBR4gi6SSdZFEDHmUeYUyNJfdurdoNFloDCehjWSQZLzMSmACdbBfoIhkuvg/bwNM2SbqMrRAH3jKYZKlWQo5XB7snnrBDAkoiu1RgRMFHK6OEoRq2/wCDBMAWHEKIAw1VfmfFR9tKkYUQ3SkBJ0QiAEq4Co+GMLOmmYu4qe1WsMcXpnL4UlVzBLKrdefpQzBVkZGVeXnFpVRpOHgVMs2AwWuMqZkuSB3Ux0DQLSuyrKghIGGbAtFXj+eEoWRhEC/mY8JUZ/p6EQSrtgKOTIwOq1smEkIUtRQngTSAFgCwHVg0olpq/cjw70YBp95HI2qIzbvYGfj7egeLuCi7CFkAFiJaU8ECFAZIxmjbLkQ1MUCgYXLcaizdy/uBoiiQmT3PpVGdw2a8N1mNiXiniJuXtFT+sBwKFg5QftUgFiyBeYI9mot8laEC66jlD0kltIkJ5pGVEAkdxPimOKOblSKkZYLUolZImCSUIpWEEYbxHMVRsERyuMkLI0ReZ5qAFgAADrnTGGu3yShcJYutBBH3kEzalwIO5CT4+/UlNsiSHdGG2gKoCkU0jBBkHlMOhECSVXTaTdJargOWgFAMhWdigRIav5WaYpTRhPxT9OIQEsQotuOjdou5OCrVQCctnu/7ZzRNgQAQB6laaYcJxfkveWavCDhuDRHU5p1GLcBQE8XrUgFT4Sfig3DcEU+XYgfkD8UrAhW6A7CvBNIFOFkcjiiPiWhRhHRqEv5BFtjeLnOZvsODyZqQLIiImerk5gxvB+Qe1DA2+8lgmjON40oGgXyycxjx0bQ+hCuBKSgBOUpzIqargxZDDKDAoLBYAlVwBR2ZJgmOK52L4vkrBggw8HobllAcKDuWHt36KeDWl2wed+bafRTATwk/sDqa9wQa47ayDIj7I9moUHB+4coY8mnotfQkUfOH4dZo6Qdz2cduFt4k6ZaQAowXUs6hTeFEAgiSJr0usweNBj2CfFHeafeRszpTAEo22dvuL/11eAlKTTAwlz3tIYjRdgonssTJoG7V0waz6ObrBD8X5fKNiM9KjKtKbAD5ififpm2TR0An2A8VB1vPIyG37B0qABNkZ1K/3qegCAIkI60oHFzM2Tk24YNTpcnI9Gxlq0C+YC9aAC+7USEqUJdNIh+wR81Av3jl+lReRlHb/Q+XRyOi6BMAuiDs3dJWs8BGefg90vZ9L6/5Gy4/Qa1PIs0q9TLOqAlg7jaeZ4n6CCBLQAuq6FHJQkhdK3e6r5jTpZwMDvZP6dKkEjZHuH9f0JCMdIhCNMEpcsqLE8kI8m1JSBEgxMmrThU69oSEBE0YS3SAsSAIMnkk+KTidPvBYFpkGye6g+WjZAA0AgOjCDAbEgBZuSDaaLAcAEquhURakFhbryr6I69NmvXgNsDnUpL3F5Ryrq+hYQS+E/5xrSWgIe4QXPE9ijWz7A7MYePUnmDEL/p3YKYXlLI2Z7awW3mCOsJjs99oan40ho3CYMufs2deGQ6i/Zq7qI95dh6XSQ4tyw8iDAejsSSHSVA77T7wFjtSQsH4L5Dx1lgD5mgiYOWu7H5HUp/o4BqrigZ/JdHtq+R4uPUtCZWH2K/vP1ThVQhCeOmdpzl5KlQ/uxZPfpdHHckL2lpYIwh7gfFSUESEipyRKVVVlctHUMkQdtAPhoE95qexPmmrLEtm8IaDOBIhpuTk6OWiV/DucNmn8JDGE2Jxw1026qqiNNJD90iKJCZqdoL+Tg9va6DAEg6jSRG9HUGz5IfNRCfdzasKLU0IcZFw4fKrydSVlzygr7tHNLx5/WXSZ58scc7GM+BrLDCrNlauXmAnqmh3LB4Xdd9kqLjhITprew9g68EXx9mtb4Sv7XyOKzuTDJuOE5LelazMaDVXQKifsWcvJ+WW0kY9GCryp3GhTrrOrcOdW5ixTsigfybnJZ6DQsF4fdhznOaMGUr+HZ4bnQMWK8OjVhzsdfjmcfkO58Dem4dPu5GrpRsQDiHoXnWMG0lEjAgAgDox9+iw4ydFw5FK8AsgwTRo1ivijmHUaUilxMoWy9eQZpcLqEquVegCBDSpsAatOs8J7INHlppiX1DkKon/AEDqfsEaS6r8m45HU6knIgAlWh6MFouwux+Z49a7IgL37NzXhhMy7h2Caj/sbidH2KFD3VZy9qsiDabjqWtGrPFQ5r2mJGPmgEHrcRjSWo3BAm0lE9KaakQyJ0WUpeEaDSRU9p4a++tCEZ+7BRWmW1o5Byv66hTTAMt1ap3egwghV1YNdNA74FosCDQvKAZUrBwZEvSthIYzfkPjun0ViwiIwbp2hJ5NuoC7LiTQe+R9Envu411XD8MOkU39QEImROsEVoQp2hHQrKS2c1Z7oRgGBBNuXEKDojJbURFQtDrZs8DA5/UmtCHJiTGkOE/1koxT7qbE0NzpTaOX+HjPvPRoFkrBoBdTACVUAVClQETsMWcivoDAUgAqYALtKLOlj5Jc7L4lLlNW6UAQqg12cyRrboZ+S7zHyUOyun0jXROViMrwB8dZpSRdxR8/SCFSAiAOXwvyi6T8KSyDHC7waXll4bBERtGlA4Uhty73GNoiFu6oEKMiaNPbQoQFsG11VJqTEkrNioctZuOiMIiIJ0cLDVBfSeMOya0VxNvuokWnCeBKNvvfy6hXXUkQazIMRa+Rc6GEQA+wjd8d8dFvBFzBB8R0CNEozvj+dfplCILjFkdAPEu+Z/CfSIpJYkw3scsHnovK/AFfwLqDy4toTPIPctdg6PwRyRAdrCTcBLL1qLb58ey5SAfunLtKQreI+Ie8vPRXCLoUMSLhDNzSlxGKpUbqqq00BEZhvcLK9gc+gANffN++kjAEXB+U/SUBWwVneLvN1npARLJNwY34fb6RNyEJuUjEqe4xSsxrZ9HEiyQQKbPZvGglMZHMQqA2YQYbUcA1y4KNpZFyPRwMSqfxt76lU6fdM+lsLanaED9hd956Wna22Cc3MmvDoywTM1bz2g8ej5/TmD6USlzwF+A6rrFT5VbHhPH04bSx76hmeg4zI4BKqx2hnoJ/ByEAjvK9vQ4+63AS+6meafdDhoomTe4ft1likk5XfsTxSMwjcgfugAAAWAID0ONIHzBfJ0YkYwxKF+fpGeyRk2Fj5ZfDrCgCaYY0Y0cPDU9gF65OR5GzyfRHANR0DLWQX95ZozQHMJI9w9DIpCuyh++iiue2F/x6Gpj3Z1L2/ujJ2q8XHUE3No+puC8AlaSMfPRi0nM1WU90ePo3v4QZWg5W1IpL0GBgHAQePQ0JgWLnzyczmfogRIIs4Mv2bx0TYmzMBPxPocPRGLYD3/09FLaN8qQ7f3Q4amf4GFfg6ukgg2JH8/NbOH7wP6ps9b0IJZEj5J1bcHD1dTkYfEa0EIj0iEieubvB4BQOY0bV+Z20O7PpImACXvPz1759TPxIQAyroVLpZzSOScp7BaZ6sknughfnqbsoNpo+Q6GuZSC14B8J8dCgAmfBbTH9PulpSGGHarKBZBmJJ6DBpmaS7b3dLA5yyc6eWB89THIIkOmmf5n0EbvgLq5dw6+ReZwDzeTs7PDf0zKJPtB4RLBu0QCbMhLuavwe60+LxgidSxTtNNzTij7JSEynSY1SIM2szeAHy0uEghOOxbNCjJZodvQbZrNtN7OWWoztqX7i55PQoH5hd4aBleC9Lpi1WfsxsPLoHUssfc6j5h2DqONVCbt+8I7ugCwz2Y4D9IRxRuAEe66Y1p904NpTJL2Oq7nynQ2HjgSt5UC1Sth0FIiJZHSovlzNtoey3c6ltkjbqX5E8embd6vuFsnJTbR5D8iS+KUWA3EA940nT64CHcfwrUnMLW0reQGnvLKCOVu0zQjjWbg2NO0pNChK8YL8MnHmfSA/4OBsjmsmZSbvJy4xjBSvalyNkcUDCiCynkvRhxYDneEJ7tMTSTH70IAPW8v9aVmQQaeX0lLktYJJfvb3dGWCxwMtBmi/YsHfK8rTNCygw4CkwwSTEZaw1ZbEDgAOkkLs8Tn5eEVBn3SSDUsLDaFb/e3l1P1UJ1zN4zExMkIqkERGRNKgTYDaBpN9w74w5cMcwarZjHLOn05SQSeU4PLe+ntUaCzQD6DOVy0Q3ttlw8LSiADQosiaPqx2KS1LVcBy0Y2W4G7BGiFoCzlNgmT3Sslkz+RwnJao0M4MNy3IndOETbgmAseD7t9DpBWCTkoFNEDVgpB0n8Bhb2rNYWew1I0ZjLR90tyKMXIamMDkf3CHz0gqrngbt0SEyOERRCwkMCDmkojRU0oUZFE1KVWW7WCa6cFuvMWNaGkAsHgIU8rSIecI0e9BWBNnsmG3IuhTS/lyNkcelhIINRgPejovRok/i+gGn0oYUcQEEidg+Tn0hvHDsW66nu8WXDX6Id3d5b9XSRAsu/mHvHWzqI0YRNlKQyBiQvVnkhZddh4JfCgJGn3WDCaUrmGNknf7sf8AHVokhYRywQhrHUdwGDKiQ8QPD6B7DA7h7nDvo3qGG5Ha45NTTsi9XLHZCdk+Fdw+mGMpucMPmHoMmQFsdB1+DW9j037ddj9wOhKR7lLDayxz0GqYVoBK0lAIi5GngQeKgT7rSSKFIIxkslI+MEaWrNJieydB2jDKzz8CfTG5CE7tABAAMBp6Y52sOyTRP+YaBIQgO6Nnc09nqdteQf72+m/AOB1GnoqVv8sblwfdOIfUJeWfE1l2CllSGAkualnx0dihhNmX3A80dpp92kSNKV7BxtrLDunydIbzaEKDURRqenLuZ4NJ4KCYKASRBn1mwBh30XtualLxS/R/ZqOp0CXmT5xf19MDJRm4F/XRQnBtLL3uBylAoBJoEB64ns/n/dCFIvuk6wmW5RKD+taiEafdsiUwUg2G+3yPUZycYJVtVlNiaHQRwI80gY+fXfCZCysnZy52dCOhLot4PwDy/TIpIxN9bjaIPDoAkEfbT9me6+he+HdEw9jV9jhki0PAx4OsWllJpEXw91QDj7uO3m1LPyT3LSeWTz0B5lWwbu09BFJATLMp8p60nOd0JDWYgNiIaDhITvSQREZE0oVCALiGjbL3NPos/ElADKrgq2kI0izMN1v2g0pfIxFp7kGgAgID15SSEhYWCdVsctSzl3SZWnujBwU7u0dEhNgcwEv4pRcU+ZTK+7RY+7hJxTLYgHveXoAuxCEWLwkiBiyDUT5xZByh1LWdS9SRQpG0n4XXZ+gjgg2uLjDx7nSXJFw8lf70oYSAT2d0HvfDHrQxJeALqrgoAVLBDwNvy7Zp4YOXKyE8H6AJ0hphl++h2WvQRRzpEkOjcvGIWRbpPpZJPdZtBPNYtp93mQo1bQMWZ8iTzUHLd8JJ0mSEpKNzpCSNociukHyA7j/Ae4cessOZPXbpFuGyNk4bVhHNQnLkeJ8Yq3HSU1LAmR4eoFJUIAarUY8kGmcWnGO09qyNkuITaWVYzacB1j30/WVoRVneeGr+0pwbrdVqK3KqJLFEhLLyEAyKGCwBABgDpEpChsqH2QHcaIDj7wAkaUsGKzat+BZ7cOkr0L4FCSXO5CZKtjOnC3QAugCMjACiPiWhRhHRrP8AY47jT4HTIeolzI9rQfn6SbkSIwjR8FRETnstQGjlPcokDkCn7vpQCJ0czRO/6vqeBBd3xZWj5dBrCgIFtEGgf9ytFVKXdZVcABVQAVQFovQhGHeFuYrEEuQ0DIM2b4NjL4NaQplSLquVoII+8AcaR+9+nI8JI8LVwU3DKOV/XEdeiwruQURYYZbwiKIpGauYAV0HNoZbJDCIVK8HiCHQymlmTYqQD5tf9XdO1CUmZYG4nRm7LZIzFtLL4HeBxf8ADBsHAWPSNamAErQAa3FM/Ffwn6oebPOib3PTnCmYdx4SR71f8RdHW2pfJbozMCVWAKk8XkSTxJY90qWQyTYF9cWbSmjTPxISpyrq1fJSBaYF1iklIE0Be4ckN64ISsLBQHQI7LQX0Qar/WoU4VgZ0A/3q0BAR95MBJqZbDJoP0DR/wB1Gg/ZWomibdI+6/nmS24giXEEhKWQqADswzBaIAAvZpw2iQkEBCWRua9MWImB5KsRa/rWlgtKJV3XrAwL84/pnihCz+m90S6YKPCU1lfnQlIgYHYPQUEmAU9ygEpa1n8bUmY5TecTlbWTtSShhhHI9EgiIyJkoMAhYCP80pZtSvd6AAUYAJVq+4xAO9nhuAnEEMKLACmBCCGS3UCBLAnpgsAF9EGq/wBam6M4WQ/bu/qjgEfei4SmIuzWO5sPnDuD5BKx3E0TCdVgVgRWGylkMWYhEkpwqnIg4DkNo3Wyg9BihtsUwBjKvsNEj2CwH9mdfpCkGjVbHkUR7+mD6wQb8A78EoWIBO+jBJyQwyCLIgvjrEi+l1aAarSjdJJp/YXV/UUGAj72bjKkxgwTLabmu52ILupCQOEeowGQEiORKSXCJRFlsFULYNoEjR/fLMMyCRvlJp1TANawSSnGR7zp9OFiADk47TXmMRfoGFiewJmIkA3EYVSIzAgGRXUYiZkIx9BNgSjAG9FTBQ5HJm7psczQ8CPvix2lTbKSu5ueH8NvThOqoMICcEsCE0Sp72kukliEQmwSxcpCOIRFXBKzdpnjoSIlJldu5sdMYwT8SUgcI6n0AKGbEGzM/Bpe5QPTg8IKKugRRAS1yoUcFNGFoG0G6hG9TH5AiwAAcHpWlHMdz3SOy1hJb75YSV2T5L1gwCTT0IWRFEavbvXMLLlShuRcl0gjSSucryys4tuNTpIupJF4xjvDxR42lEibj6FZohDyMw8pVqeQyB+TWxBvPS2g9UJWWSyHgo5UDw9OsGVXKKqpVVVV9ZmeZbQfgNEMG33uoZShZRQFHG9MpOD5C8+W/YPoIhGQSIRGyJpQsOpRIVls1i8XMAFG7LCOyYdHI4THRpO7g94aKPBv/uppCSO4e5QaUsgkeBY6BeS0QwAq8Fd9BgkxoqLi5SsvBCvwEzALF1e6/QOWL7J/YfIU/BJZouRPvIy7U1ZWn/elQQXEuakguw94LUycQx9k/Cl83yQf8hu+x9NzFaGR3KMJyh5pKiQBJoB5Rn3qU6gG4pNPYafj2r/MnzTxIgfLAA81MBVNcTK6D4ONLslHk5pRcsYOYlMm90GgfTMIqbZXk0eTyNNJrQbG8mDvFDZoYb1oetHVgRWEfutQJaZqCKvWGoi7M/hzVnI10nNoKFpEGIMfnSaopDBL2/8ACeJhEo90p5sgFPEx7leIh8JA/NLnNAUOLXfFToJC37WE8ZoZAaQJH7fUMtI6K4lD4FT6migpKTKE0nXh8vEyAAAgAgD/AMk3vwME5GmcVvO/lhxnvpbjU4BUm5SWRXCofAqTfrJv9qLBSpQVAZFInYLtGXUiVPZD8VDe/grNx4BP3tAloZODuN6OLKDkHVsriljCkttDy/BLtIqQCQAsB/5k+CulLfk5L7zTDWJkN9R5Cu7BA+wUQyc4P1qPNCkxcMuv870ptpIE/e0hQEYVMdkaI8PelqAxiFNI/hjWIq0GTJOKCIj9pO1YivN5wA/Y+N4MEu117rd8+ji8CPzT5zsKp7snv4pq80UG6l/IKKsGeaasfelAoMAtft2D4L0gcvpdWU1X+t/6YEARIR1rcDf/AJUdMEAEB0gQJHtjl4xuVcihiiJkdktPigNH7QkWkIFpX1PAC+KMydwD6Dx8ZZN3gWrRhZmFPYwoApwMHYP/AGYCmU2GPe48LV6rMYc/aE84qwlBlvdqvEEOg3BeEJzUARqESUgJJPKzYg4AGh0UgsnkSo6mARSlRXN4+KSHgh1cBLZhQkYbyA/xVayQYozpcpwhMG9NRVQByPC5UrExJ/mrdPgIxU7DRGGBRDCKs9AqX70kD/Ig+attSVrGCAAbhK301NVLdncRuDIoEREGmlyDClhylAW9KhRs3EILU6kqyTKLDCBVE4FbR0LZDsyLEhHCjxTgfs/wihIBcHgAPz7+hdQL8Z+yyyYJjBV4DGyAXmstclQZEgoISSg4kvQTErWUWpJTUsI4pqliyJIjqIz/AIv9/f8AzxO4aDLQ50hMXRJO9f8AxVRmC7E7KxyLtRJiL0hgLLDcwiMIgzGgYosAG6hREiLbVzAKxJBPZayoqpm1lMMgE6s0rJIe53jEsEsTHS0cQS3ZXtD3KkH2e47FARLtN7Z8B6l00immDZqnCBUvC16DQDSIyN5A+ejkjTSJ1ZxICsMFH4mB23hx7miCiFht8H2TQbUBssWgRgETMCU1CXE+RGiBstplB6BzNLDLDALiBCYXJq7HM/sjPmnSnFqdW0FtQqALRck6FxtABmBQUSJADaZmI7wLFKYs7ASISUKc9YFLfD9w0FKIYF3wXZNDp5i927hdYAxfr/f3owdYCZrikGXbCMQX1AiJNOvd0g8J80mFkSvUCQqWycrehAVQC6ulLR2LewjEF9hDNKuA0g8B81fZ+RVAJVCADW3VhzqToSuBcFdSBxTlyMBBBIjDIMN7CCiaVwGmUUkMlwYWoro1Dy5KwZbnYaGfE4YIGRER5o6eK3YAFMgwCXhRkpBb2EAhvYEJFIZmjlYMApECLWhOjRBcJGxhkPQQFsMoKXPgDkEgFQlZVsMQAAMQNMSpAUFsiklxekT2V0IJCZFAJCXG1OvxomgpikwllIS/quORiBCWlyb3Jt3UlwK2FAj7lMgASqwBTpG5OojK5oPDUiWdYECb3E6CNo+5/wA057H2f8ClPZfQrsLxTOjgJAZVbBT3puOwNiYQFErlUk1kUFAGqqFLCGXAjOQvmiwMRoC7JArdCILApFVJGiy2C265SqpzSDVcILB3o0UqEQZspjigKFEGyJiTiX3p5LIQiRo9Moq5CykbdiJiiUdMkmVVuq60DHLAGEInJT1+PgGERwlOj+nSEm3GFpkJDM0tBhEqt5aliJtS0ikBTeFYrkKiOQEUq1MaXJFxnglWsahSSxkSzJJeyqdklV0/v70WLUZKLJCeRSgVgJWj4hYMtZ2OZ6DzfJ1shdlmsRcjpQRJeALqrgp9/mzSeY1JwEwVHnwmKJILTAYAm7TBoQVmyVeCWlTAE+QJCEsjc1p8/T0rKXRAm7gyOlC1BoTYX/SVaRS6QLoopLkyQ9BWAJEhMiCRfN9Jo1DiIIAG4KWNqauq1aHmHk3MaxKJpyUyRomBK2NCl6fzE5FKEBEpdBruQRQEw5Jv11RGUcrNiAe1KehYlYWV+D29FwzyHvSLqBjHEoBTWNjChZV5SJB04imk2bBuZayY1SC7S4XghEhR6GHQFTYAeADx0UPo15VVI7fZ5nsUytJ3n1heNO7SUs7idRIsEVZaewhljWEjhVQwBW2ADYHYJwF6xgvUCTV5VurdVVWo2mvAmSVayCbINEUm2eoFW7NBcylRdacrjT6nkaSdyOKDynCQVFwCgGCRcYQEYn2ySncrCduD6BBIkAAlSG9JUSGqogRMEqLaBBR6aIHQrZJhkQOMThN0hNZcGTQCtUi6lW6rUffBW2YcJkS43KJyYkJARXVqHlKzTzK+UJhEoDywiZ6f396Eh2TKmADVWjBCPSwOyCiLtVt0B4vamTYBFIF7hEqgoiMJhqTfzolJYWJW+FACmEokUNxJjZ0/Y5hlUMQsEpiwNGvooLflF7BAAAdGjJjHTo2VcrHBAFzNhMii4ChAYuI61K0NQSIIAceLdeRMcPBLlgWJNxBdd1dkSyrK1XQEqrAK2KNkZL1CTkHDYCWUnp7sP6G/1xLk9G30RMAu2F7FTTGOkoQmRBK0gSPSBjKbeP4/3TnsfZ5ntUrGw+hXJ6BisLFQSoJpnYewYZYcCc0UjKnWCRG5iSt7IvRywR1EhaZscRpIiJIyNPqQMuwJ8BTnHK838upu83gZBwvtnWnFUyMKINkIUkJFhGArlLsogKS5UIKXA56FWoC4piSSu2CUOuEUAzDRBQWYRodNBL4DyULwPuPVtlylzQdld7KRFH4zAp89P7+9AEzsRMI8k89UERJGyVdU7ExoXkijtAcLgng8q+acVEVHVc/17+pmnNK4AXBE3ESyPTKbK8jIAnBXD0nYQL8uLnQLI0D192H9Df6IlxRArwCKm8ML0UHXOYy/ozT9uYM5MLSnRR6hjJVnWvIok7H2eZ7FDuD4P+l9S6YDe/dPfb+enNS3Sl8zSUmMTIQ3ZUxsm9W483Ou5M5wKKAvUmLlKwQCMgubHAL0ps5eN8iQpIEEJRiZQ1zk5YYFuTDDcYYWGpf+KXcrcaWl56SUORBrES4RRQJPYRAeGITZeugtsN2fZOYNEGEagR0ackxwA2WCg3acLI6jIbJQWBCtoWvT+/vQrgvACyNm4Wqx9kLBWe44YIQlnoOLDXCMgjv3IA1KUM8CDNyU8xKaJFPuFE2ZA1svKp6U88pahISVHto8KBJFpjhEEiL/AF36p9KR9iVEgAvLQgkRJNiVsrP0Ml3f9vbqfYE2RyeEg7NMZcAACVbAmriTp0cDscBJX/hdwVCUKyXBFpEHj6sS45GMo36H4H2f4BSjYvvR/XqXTI9KJIIzVB5dALSNZHbwOgxKLKxViRYbhCVbARCxFwDRwGnm0IXESEaij8QIAItAAADQoX8Qp1kZg4SxLI+imOttlJDqTM2CiUBhvfBNSTI6jZ1pGIIC+1eeVSppDBMTFEYJQlglYKz+WIATSVYzE7y9GiGehAgAi0AAANClzoIIEIZSFFQRuUvDybqALqqAGaUSIiG7IdSQUsoL3q/v79AcBPJw5lXgJNQrBwzz3Y8FNC8V4JBK6AAGAALFDfSRBFn1JLzBJIohYgpEC6IGhJLjDkRMl6vRWOn4UILBoNy5MBHhAImADHKIMSxFAHAJK7oBPYCgxnGaaRJF4oJOGlXa4VE5eFSjJnCEnryXd/29uou38CJDmQdJIMCljviC5Eoy6gWgBSgCwQNqvOyJ+ikDNGSSwn1olxyMZKaJg3ifzNeMfZ8Gq8wBY1QE+Dpl2ZXQoM1YRrFJcBu51iAkQYpThDhwLoECdAA6i/CoLi82JluF8AFPrEjs2OWKTlVVWAdAUJChCREo2AWKGUqtKc3K1I2OfZQ2bEmToR8c0LfllMJgQFIReG6oQ9JzfigYQuSDAmFJ4SBSyAiOzTnwUC2bBE7rAaUKyeWUVO1UXWTkHS0JyeCUz00GqwC6VAEi2NjroyX3OTIjIVhFJYSWmYWQ5dgVOZO1I8XJK2jY59lNbwSkkgAAEUkSFFHWIhIUJqqS4CEJDNpKeBTVrohYCSAETBKipAkwWwQAva61drw/ckQwZJEpiEcLjMUHhIkOwAAGx1FPUS5OiZCbBEyJRSW5IUqhbAgBa110dDsAmXwjDOgkQa9kq+FaCmAKLtBKKxd6CI+7ECuFFKA5CXGl1OvwotUFYBWVT0AnWF1iyc5QhDMKMUduZKBADe/BbqlpPQTwxCBokEsYDF5SasLdmrUjY59lBSYUGcaERYEpNqSSElYWYKEbrZlD7HpbeoyzDqwJLcMCEnpsTk4bhAFiLenFOd5pHcUoDUjYXxM5sBaQHKCb8N5IaK0hUar0NPIgTabPKD3VAOPs8SigXIUuFHDw47NLpausrVcn/p6AJZjCQUgNWDFPSl6k615llslo2jeR87/zSS78b3uOW6SMLTFP+VVkLrdQkhLYFAcBZeCgl1XKt1VfpwO7AX0Qar/1sUBBdgwNBwEHioE+0FQkzQAl5DPPw8nziggll/iGR+KN7Cftold6IV8L81nO/Zxvz4ozGyJvmZfDV3lso4UNll/BagFuq1y8IfcopuwCPMR7NPiMIUV2iZnjooCrAZamRWYgE8F6gB/UBHkB80hZ9x/S/wA0goB0h3kE+auliI59z0SSRZwSQIwkQjEiK5lSbtBKJDSAwiHQKg0m8AXjScc1AdWy3sE/qmUnleUjswfNMQ10nZ8we9GC62sJbKudIS8EmN8tSpP4Ah5IEPNNBiwC7oP5oadqk/pzU82Cx7tIeHb5LiT5Cm5ZlKPt0kAIwky9l/ih+7EgfCfE07DmkifIfmscnYm9iC1bnSj4aFaLlT+K1JkC5H+ilLics/8A1FRUCfA94I81xnhH3OqCIkjRZSISkVQ6AQCVr0dlcIhG8IhQMLFYwZFgGNNvim1qKS+W3aAlcAEAB0ZmBKrAFMIJa6btJZ5aeQBbR/yUTQDgFCqZqGGGq4GcwL+ST4qM1YMXs3PtTdvtUKX2wHljLtB3KDsLSgnQafli60IAj7SCuUvcUForSntXG9qPwpLGhuNBlWlaYJDkSh9rZFrWpWoyZcpa057Vp2rWNDttQr7D+1JpWhX4HKRYdo81ixUsn/3j0xDpspW3PDBrtStglspy0GIUkwrQ9BshHig0HYCC1NZLMQqDt9qLw9qCMKKw9qDbasUhhi5QUCQEXEGCigABxQ1T6k6PahuHtR9PtQak1BNtIDAlQHcSh8PtLZfDyvzTUaX55/Ytz6h4bIwDdWibTsKHsWfgctBLnkaO0LHeKKLa0ZWCFLaKyIrR1E0/FWDFD2PuQBcpfIfFK1NnJLbU/OyUqEY7rnGJ2Y4mhEERG4lYCxIDy0nKlkHhHI5ztGaKAkcUJgP8dByUsEUgImWOwSmgasEB3sHxHZqTainD3Vz26cHgR92iS16D7y74I5oeIMi8H9mXmgVtEwH3edCUCyaXRxkQ9wSaJEeEI8q0GgEUAg/ygEJQzIackM0ZYQdPAxQ9nJbtCFvtQ9j7zg2qDb/Pg2//ADJ//9k=;" vertex="1" parent="1">
          <mxGeometry x="508.69" y="275" width="247.62" height="130" as="geometry" />
        </mxCell>
        <mxCell id="Ybopkq_XPydpxg8CJSxO-14" style="edgeStyle=orthogonalEdgeStyle;rounded=0;orthogonalLoop=1;jettySize=auto;html=1;entryX=0;entryY=0.5;entryDx=0;entryDy=0;flowAnimation=1;" edge="1" parent="1" source="Ybopkq_XPydpxg8CJSxO-5" target="Ybopkq_XPydpxg8CJSxO-10">
          <mxGeometry relative="1" as="geometry" />
        </mxCell>
        <mxCell id="Ybopkq_XPydpxg8CJSxO-16" value="" style="shape=flexArrow;endArrow=classic;startArrow=classic;html=1;rounded=0;entryX=0.5;entryY=1;entryDx=0;entryDy=0;exitX=0.5;exitY=0;exitDx=0;exitDy=0;flowAnimation=1;strokeWidth=1;startSize=4;endSize=4;" edge="1" parent="1" source="Ybopkq_XPydpxg8CJSxO-15" target="Ybopkq_XPydpxg8CJSxO-10">
          <mxGeometry width="100" height="100" relative="1" as="geometry">
            <mxPoint x="530" y="530" as="sourcePoint" />
            <mxPoint x="630" y="430" as="targetPoint" />
          </mxGeometry>
        </mxCell>
        <mxCell id="Ybopkq_XPydpxg8CJSxO-18" value="" style="shape=image;verticalLabelPosition=bottom;labelBackgroundColor=default;verticalAlign=top;aspect=fixed;imageAspect=0;editableCssRules=.*;image=data:image/svg+xml,PHN2ZyB4bWxuczp4bGluaz0iaHR0cDovL3d3dy53My5vcmcvMTk5OS94bGluayIgeG1sbnM9Imh0dHA6Ly93d3cudzMub3JnLzIwMDAvc3ZnIiBzdHlsZT0iY29sb3I6IHJnYigwLCAwLCAwKTsgZm9udC1zaXplOiBtZWRpdW07IGZvbnQtc3R5bGU6IG5vcm1hbDsgZm9udC12YXJpYW50LWxpZ2F0dXJlczogbm9ybWFsOyBmb250LXZhcmlhbnQtY2Fwczogbm9ybWFsOyBmb250LXdlaWdodDogNDAwOyBsZXR0ZXItc3BhY2luZzogbm9ybWFsOyBvcnBoYW5zOiAyOyB0ZXh0LWFsaWduOiBzdGFydDsgdGV4dC1pbmRlbnQ6IDBweDsgdGV4dC10cmFuc2Zvcm06IG5vbmU7IHdpZG93czogMjsgd29yZC1zcGFjaW5nOiAwcHg7IC13ZWJraXQtdGV4dC1zdHJva2Utd2lkdGg6IDBweDsgd2hpdGUtc3BhY2U6IG5vcm1hbDsgdGV4dC1kZWNvcmF0aW9uLXRoaWNrbmVzczogaW5pdGlhbDsgdGV4dC1kZWNvcmF0aW9uLXN0eWxlOiBpbml0aWFsOyB0ZXh0LWRlY29yYXRpb24tY29sb3I6IGluaXRpYWw7IiBvdmVyZmxvdz0iaGlkZGVuIiB4bWw6c3BhY2U9InByZXNlcnZlIiBoZWlnaHQ9IjE0MyIgd2lkdGg9IjI1NCIgdmlld0JveD0iMC41IDAuNSAyNTQgMTQzIj48ZGVmcz48aW1hZ2UgaWQ9ImltZzAiIHByZXNlcnZlQXNwZWN0UmF0aW89Im5vbmUiIHhsaW5rOmhyZWY9ImRhdGE6aW1hZ2UvanBlZztiYXNlNjQsLzlqLzRBQVFTa1pKUmdBQkFRRUFZQUJnQUFELzJ3QkRBQU1DQWdNQ0FnTURBd01FQXdNRUJRZ0ZCUVFFQlFvSEJ3WUlEQW9NREFzS0N3c05EaElRRFE0UkRnc0xFQllRRVJNVUZSVVZEQThYR0JZVUdCSVVGUlQvMndCREFRTUVCQVVFQlFrRkJRa1VEUXNORkJRVUZCUVVGQlFVRkJRVUZCUVVGQlFVRkJRVUZCUVVGQlFVRkJRVUZCUVVGQlFVRkJRVUZCUVVGQlFVRkJRVUZCVC93QUFSQ0FDb0FTd0RBU0lBQWhFQkF4RUIvOFFBSHdBQUFRVUJBUUVCQVFFQUFBQUFBQUFBQUFFQ0F3UUZCZ2NJQ1FvTC84UUF0UkFBQWdFREF3SUVBd1VGQkFRQUFBRjlBUUlEQUFRUkJSSWhNVUVHRTFGaEJ5SnhGREtCa2FFSUkwS3h3UlZTMGZBa00ySnlnZ2tLRmhjWUdSb2xKaWNvS1NvME5UWTNPRGs2UTBSRlJrZElTVXBUVkZWV1YxaFpXbU5rWldabmFHbHFjM1IxZG5kNGVYcURoSVdHaDRpSmlwS1RsSldXbDVpWm1xS2pwS1dtcDZpcHFyS3p0TFcydDdpNXVzTER4TVhHeDhqSnl0TFQxTlhXMTlqWjJ1SGk0K1RsNXVmbzZlcng4dlAwOWZiMytQbjYvOFFBSHdFQUF3RUJBUUVCQVFFQkFRQUFBQUFBQUFFQ0F3UUZCZ2NJQ1FvTC84UUF0UkVBQWdFQ0JBUURCQWNGQkFRQUFRSjNBQUVDQXhFRUJTRXhCaEpCVVFkaGNSTWlNb0VJRkVLUm9iSEJDU016VXZBVlluTFJDaFlrTk9FbDhSY1lHUm9tSnlncEtqVTJOemc1T2tORVJVWkhTRWxLVTFSVlZsZFlXVnBqWkdWbVoyaHBhbk4wZFhaM2VIbDZnb09FaFlhSGlJbUtrcE9VbFphWG1KbWFvcU9rcGFhbnFLbXFzck8wdGJhM3VMbTZ3c1BFeGNiSHlNbkswdFBVMWRiWDJObmE0dVBrNWVibjZPbnE4dlAwOWZiMytQbjYvOW9BREFNQkFBSVJBeEVBUHdEOVU2S0tLQUNpaWlnQW9vb29BS0tLS0FDaWlpZ0Fvb29vQUtLS0tBQ29ieTh0OU9zNTd1N25qdGJXQ05wWnA1bkNKR2lqTE16SGdBQUVrbnBVMWZML0FPMzk0aXZ0TCtGMmphWmF6TkRhNnBxWWp1d3B3WlVTTjNFWi93QmtzRlkvN2c3WnJwdzFCNGl0R2tuYTV6WW11c05SbFZhdll6ZmlUKzMzbzJqM2sxbDRNMFp0ZktFci9hZDdJWUxZbjFSQUM3ajY3TTlzam12RU5hL2JhK0srckZqYjZycDJqWk9RTk8wNk1nZTM3N3pLN0g5amo5bmZ3djhBRkxRdFk4VGVLWUgxT0cxdnZzRnRwNnpQRWdaWTQ1R2tjb1FXL3dCYW9DNXh3eElPUmpudjJ3L2dUb0h3ZTFyUWIzdzBIdE5OMWRKbGJUNVptazhpU0xabGtaaVdLc0pPaEoya2RjRUFmWDBLZVgwOFI5VVVMeTd2WHovclN4OGhYcVpoVXcvMXR6dEhzdFBMK3RibklOKzFmOFhYWWsrT0xySjlMTzFBL3dEUlZYTk8vYkErTG1ueUt6ZUxUZUlPZkt1ZFB0U3ArcFdJTit0ZU4wVjdUd21HYXQ3T1AzTC9BQ1BFV0x4S2QvYXkrOS81bjFkNE0vNEtDZUk3R1JJL0ZQaHpUOVdnemhwOU1acldWUjY3WExxNTlzb0srcy9oWjhZL0MveGowWnRROE9YM212RmdYTmxPTmx6YkU1d0pFeWVEZzRZRXFjSEJPRFg1UFYyM3dYOGYzL3d6K0p1ZzY1WVNzaXBjcEJkeHFlSjdaM1VTeGtkOGprZWpLcDZnVjVPTXlpaFVnNVVWeXkvQm5zWVBONjhKcU5aODBmeFg5ZVorc1ZGRkZmQm4zWVVVVVVBRkZGRkFCUlJSUUFVVVVVQUZGRkZBQlJSUlFBVVVVVUFGRkZGQUJSUlJRQVVVVVVBRkZGRkFCUlJSUUFVVVVVQUZGRmVWL0VyOXB2NGZmQ3krazAvVnRaKzFhdEg5L1R0TmpOeE1oOUh4OHNad1FjT3luQnpXdE9sT3RMbHB4YmZrWlZLc0tNZWFwSkplWjZwWHlaL3dVUDhBK1JIOEgvOEFZV2YvQU5FUFdwL3c4RytIL3dEMEwvaXIvd0FCclgvNUpyQzhYZnRsZkIzeDdhUVczaVB3THJ1dDI4RCtaRkZmV0ZuS3FOakc0QTNIWEhGZXpoTUppc05YalZsU2JTUEZ4bU13dUpvU3BScXBOK3A4emZDSDQ4K0xQZ2pjM3IrSFpyV1cydmNHNHNOUWlhVzNkd01LK0ZaV1ZnRGpJWVpHTTV3TVVmaXQ4WVBFdnhtMTZIVmZFbHhDejI4Wml0clcwak1jRnVwT1dDS1NUeVFDU3hKT0FNNEFBOSsvNFh6K3pkLzBTQzcvQVBCUFkvOEF5UlIvd3ZuOW03L29rRjMvQU9DZXgvOEFraXZwRlZ0VTlyOVdmTjMwditaODI2VjZmc3ZySzVlMnR2eVBreWl2b3o0bWZGNzRIZUl2QXVyYWQ0VitHMXhvbXYzQ0t0cmZ2cGxwRUlXRHFTZHlUTXd5b1ljQTlhK2M2OU9qVmxWaTNLRGo2bm0xcVVhY2xHTTFMMENybWpmOGhpeC82N3gvK2hDcWRYTkcvd0NReFkvOWQ0Ly9BRUlWckxaaWdyTkg3R1VWem5pYnhsSDRidTRvSHRYbk1pYjl5dUJqa2orbFpLZkZTM0xEZnA4eXIzS3VwUDVjVi9QK0o0bHluQjE1WWV2WFVaeDBhdExUOExIN1BUeS9GVllLcENGMC9OZjVuYzBWbjZOcnRucjF1WmJTWGZ0NGRHNFpEN2ovQUNLMEs5K2hYcFltbXExR1NsRjdOTzZad3poS25KeG1yTkJSUlJXNUFVVVVVQUZGRkZBQlJSUlFBVVVVVUFGRkZGQUJSUlJRQVVVVVVBRkZGRkFCUlJSUUFVVVVVQUZGRkZBSHo3KzJIOGM3bjRVZUM3YlNORXVEYitKTmMzeHhYQ0g1clMzVUR6SlI2UGxsVmVuSkxEN21EK2RKSlptWm1MTXhMTXpISllua2trOVNmV3ZiUDJ5UEZFbmlYNC82OUVXM1FhVkZCcDBQUFpZeEkzL2tTV1FmZ0s4VHI5SHl2RHh3K0dpMHRaYXY1N0g1eG1tSWxpTVRKTjZSMFh5Mys5aFJSUlhySGtoUlJSUUNWd29vb3FUWkt3VmMwWWY4VGV4LzY3eC8raENxWUdhOUErQkhnQzcrSlB4WDhPNlBiUnM4SzNTWGQ0NEdSSGJSTUdrSjlNZ0JCL3RPbzcxalZtcWNKU2xza2JVNHVjMUdPN1oraHZ4US93Q1F4YS85Y1A4QTJZMXhsZFg4U2JwWi9FU3hLUWZKaFZXOW1KTGZ5SXJsSy96OTRvbkdwbk9KY1g5cTMzSkovaWorbTh1VFdFcHA5aTdvMnJUYUpxTVYzQVRsRGhrN092ZFQ5ZjU0TmUyVzF4SGQyMFU4VGJvcFZEcWZVRVpGZURWNno4UGJzM1BobUJXT1doZG9zKzJjajlDSyszOFBNeG5IRVZjdmsvZGt1WmVUVms3ZXFmNEhqNTVRVHB4cnJkTzN5L3I4enBhS0tLL2RqNDBLS0tLQUNpaWlnQW9vb29BS0tLS0FDaWlpZ0Fvb29vQUtLS0tBQ2lpaWdBb29vb0FLS0tLQUNpaWlnRDhudmpsY3RkL0dqeDNJMmR3MXk4ajU5Rm1aUitpaXVJcjBUOW92VGpwWHgyOGRXNUJCT3FTVDgvOEFUWEVvL1NTdk82L1ZzTzA2TUd1eS9JL0tjUW1xMDArNy9NS3RhWHBWN3JtcFcybjZkYVQzOS9jdjVjTnRiUm1TU1J2UlZBSlBBSitnSnFyWDNaK3hmOE45TzhEZkRPYjRoNm5iaDlXMVhldHM3TDgwVnFyN1ZSZlF5T3BZbnVObnB6eDVsbUZMTE1OTEUxblpML2g5ZkpMVTZzQmdwNCt1cU1EeDd3eCt3bDhSdGJ0VXVOUmwwZlFGZGMvWjdxNWFTZGZxSTBaQi93QjltdHcvOEUrL0Z3UFBpYlF4L3dCL3YvaUsraTlaOFY2anJjckdXZG9ZVDBnaFlxb0h2Ni9qK2xZMnhmN28vS3Y1d3huaS9WalZhd3REbWozYjVmdzVaZml6OWFvY0U0ZFFYdEphL2Y4QXFqd3ovaDMzNHQvNkdiUS8vSTMvQU1SUi93QU8vUEZ2L1F6YUgvNUcvd0RpSzl6MkwvZEg1VWJGL3VqOHE0ZitJd1k3L29GWC9nZi9BTm9kSCtwV0QvbmYzUDhBK1NQSDlFLzRKOGFtMXdyYTM0MHNiVzFCK1piRzBhUjJIb0dkbENuM3dmcFgwRjRFOEdlQi9nQm9NOWg0WWgrMWFqT0I5b3VwWkJMY1hERE9ESzRBQ2daT0ZVQURKd3ZKTmM3c1grNlB5cGE4Yk0vRkxNOGZSZEtsU1VHK3Q3L2h5eDE3WHV2STlEQjhLWVBDVFU3My9yMWY0V0picTVsdmJtVzRtZmZOS3hkMjlTYWlvb3I4WWxLVTVPVW5kcyswU1NWa0ZlbC9DMXM2TmVMMkZ5VC9BT09ML2hYbWxlbi9BQXhoTWVnenVmOEFscGNNUjlBcWorWU5mZjhBQXNXODZnMTBqTDhqeE01YVdFZnFqcjZLS0svcFErQUNpaWlnQW9vb29BS0tLS0FDaWlpZ0Fvb29vQUtLS0tBQ2lpaWdBb29vb0FLS0tLQUNpaWlnQW9vb29BL1ByOXZId1JMb1B4YXRmRU1jV0xMWHJKQzBnSFc0aEFqY0gvdG41R1B4OUsrYksvVnI0M2ZDTFR2alY0RHV2RDk3SjlsdVF3dUxHOUM3amJYQ2c3V3gzVWdsV0hkV09DRGdqODBQaU44TFBGSHduMVdXeDhUNlROWUJYMngzZ0JhMXVCMk1jdU5yWkhPT0dIY0E4Vjk5bE9NaFdvcWpKKzlIVDFYUStCemJCem8xbldpdmRscjZQcmM1U3YwbzhLNHQvd0JuajRaUXgvS2ttaldFamU1TnFwUDZzVFg1cEM1aEp4NXFaLzNoWDZXK0d5Ry9aKytGcEJ5RG9lbmtFZjhBWG9sZkUrSlRhNGZyVy9yVkh1OEhwZjJpdlFvMFVVVi9FUisrQlJUa1JwR0NvcGRqMFZSa21wZnNOei96N1RmOSsyL3dxNDA1elY0eGJKY2t0MlFVVlA4QVlibi9BSjlwdisvYmY0VWZZYm4vQUo5cHYrL2JmNFZmc2F2OHIrNWk1bzl5Q2lwL3NOei9BTSswMy9mdHY4S2ZEcGQ3Y09FaXM3aVJqMldKai9TbXNQV2s3S0R2Nk1IT0sxYkt2MEJKOUIzcjJyd3pwaDBmUXJPMVlZa1ZOei83eDViOVNhNWZ3ZjREa3RMaU8rMUpRcm9kMFZ2a0hCN00zYkk3Q3U4cjk0NEg0ZnI1ZEdlT3hjZVdjMVpKN3FPN3YydTB0TjFielBqTTR4c0s3VkdrN3BhdCtZVVVVVitySHpRVVVVVUFGRkZGQUJSUlJRQVVVVVVBRkZGRkFCUlJSUUFVVVVVQUZGRkZBQlJSUlFBVVVVVUFGRkZGQUJUWFJaRUt1b2RTTUZXR1FhZFJRQlYvc3V5LzU5SVArL1MvNFZ5UHhRUlk5TTA5VkFWUktRQUJnQWJUWGNWeEh4VC9BT1FkWThjZWNlZitBbXZrdUxmK1JKaWZSZjhBcFNQVHl6L2ZLZjhBWFJubkZGRkZmeXVmcEJjMGpVNU5HMUdHOWhWWGtpemhYemc1VWpuSDFycGYrRm42bC96N1duL2ZMZjhBeFZjZFF4MmduMHIyY0ZuV1laYlRkTENWbkNMZDJsYmV5Vi91U09TcmhLR0lselZZM1oyUC9DejlTLzU5clQvdmx2OEE0cW5SL0UzVW5rVmZzMXJna0Q3cmYvRlYwdGo0QjBpUFRraW1nOCtWbEcrY3NReE9Pb3dlQi9ubXZNOVFzeHB1clhGcXIrWUlKaWdmMUFOZmU1clY0bXlXblNyWXJGWFUrejJlOW5vdnd1dnd2NDJHamwrTGxLRk9ucXY2N251VkZGRmZ2NThRRkZGRkFCUlJSUUFVVVVVQUZGRkZBQlJSUlFBVVVVVUFGRkZGQUJSUlJRQVVVVVVBRkZGRkFCUlJSUUFVVVVVQUZGRkZBQlJSUlFBVm1lSXRFajhRYVhKYU8yeDhoNDVNWjJzT2gvbVBvVFduUlhQaU1QU3hWR1ZDc3J4a21tdkpsd25LbkpUZzdOSGh1cWFSZDZMY0dHOGhhSnM0VnVxdjdxZTlVNjk2bnQ0cnFJeHpSSk5HM1ZKRkRBL2dhdzdyd0hvbDB4YjdINUxIdkM3S1B5emo5Sy9Fc2Y0ZDE0emNzQldUajJsZE5mTkpwL2NqNitqbnNHclZvdFB5UElhSzlSYjRaNlNUeEpkS1BRU0Qrb3AwZncxMGREbHZ0RW5zMHVQNUFWNHE0QnpodTN1ZitCZjhBNi83YXd2bjl4eGRwNDUxZXhzRnRZNTBLSXUxWkhUYzZqc0FlbjVnMVA0VDhMWFd1MzhkM09yclpLL21QTEoxbE9jNEhyazlUOWU5ZWdXWGhEUjlQWU5GWVJGaHlHbHpJUWZiZG5GYkhTdnVNRHdiaTZzNlU4NHhQdEkwOW9KdHI3M2JUVFhUWHVlUFd6V2xGU1dGcDhybHU5UDAvd0F3b29vcjlYUG1nb29vb0FLS0tLQUNpaWlnQW9vb29BS0tLS0FDaWlpZ0Fvb29vQUtLS0tBQ2lpaWdBb29vb0FLS0tLQUNpaWlnQW9yRjhVZU5mRC9naXpXNjhRYTNwK2lXN2toSkwrNVNFT2ZSZHhHNCt3NXJrZE0vYU8rR09yM3lXZHQ0MzBjenlNRVFTM0FqRE1lZ0ROZ0VudHp6UUI2UlJTQWdqSTVGWTF6NDEwQ3o4U1dmaDZiV2JGTmV1OXhnMHd6cjlvY0toY255ODdzQlZKempGQUcxUlJXRGYrUHZER2xlSWJmUWIzeEhwTm5ybHhzOG5USjc2SkxtVGNjTHRpTGJqa2dnWUhPS0FOdWFhTzNpZVdWMWlpUUZtZHpoVkE2a2s5S282RDRqMHJ4VFlHKzBiVWJYVmJMekdpKzAyY3l5eGwxT0dBWlNRU0RrSEhRZ2l2SGYydy9GT2gySHdSOFQ2SmVhdnA5dHE5OWF4dGE2ZFBjb3R4Y0FUeDVNY1pPNWdNSG9EMHJrL3dCaS93Q0kzaFBSZmcxb3VoWC9BSW4wYXgxdVcvdUk0OU11ZFFoanVYWjV5STFXSXNHSmJJd0FPY2pGQUdCL3dVSzhYNjc0YzB6d2ZaNlRyTi9wZHRmSnFIMnFPeXVYaEUrd1crMFB0STNBYjI0UEhOZlhOci94NncvN2cvbFh4ZjhBOEZJLzlWNEIvd0N1ZXAvKzJ0ZlhPcytNTkI4SGFaYlhPdmEzcDJpVzdxRldYVWJxT0JXT09nTGtaTkFHNVJXQjRYOGYrR1BHNGxQaDd4RHBldWVUL3JScDE1SE9ZLzhBZUNra2ZqVy9RQVVWeC9qTDR3ZUNmaDljaTI4UmVKOU4wcTdLaHhhelRnemJUMGJ5eGxzZStLbThHZkZUd2g4UXpJdmh2eEpwMnNUUnJ2ZUMydUZNcUwvZWFQN3dIdVJpZ0RxcUtLeFBGSGpmdzk0SXRWdWZFT3VhZG9rRDVDUGYzU1FoeU95N2lOeDloUUJ0MFY1dnBmN1Ivd0FNTll2MXM3Ynh4by9uc3dWUk5jQ0pXSjZBTStGSlBzYTlIQkJHUnlLQU9kMWY0aGFGb1Z4ZnczOXhjV3BzSWtudVpIc3AvS2pqY3NGWXliTnBCS3NPRDFCclUwL1hMSFZMN1VyTzF1Qk5jNmJNdHZkb0FSNVVqUnBJRnlSZy9KSWg0ejE5YzFSMVh3ZlphemQzczF5MGpyZHhXa1VzUEd3ckJNOHFqcC9FWkNHOXVtT3ROOEkrRDdmd2ZiWEVVRjFjM2pUdUpKWnJ0bGFSM3hnc1NBT1QxNmZwUUJ2MFVVVUFGRkZGQUJSUlJRQVVVVVVBRkZGRkFCUlJSUUFVVVVVQUZGRkZBQldkNGt2NWRMOFBhcGV3WTg2MnRaWmszREkzS2hJeitJclJyRjhhL3dESW02OS8xNFQvQVBvdHFBUGpQOWtUNGU2TjhmZFI4VWVML2lISE40czFtM25oU050UW5ZeC9Nck1jb0NBUjJDSDVGSEFVVjcxOFZmMlV2QW5qVHdYcUZsbzNoblM5QTF0WVdhd3ZkTnRrdGlzd0h5aDlnQWRDZUNHendTUmc0SThxL3dDQ2N2OEF5S3ZqSC9yNnR2OEEwVzFmWU5BSHlkK3dUOFdyN3hMNGMxUHdYcXN6enlhTEhIUHA3eWtsMXRtSlV4SFBPSTJDNHowRGhSZ0tLNWJTd1A4QWg0NWRIL3BzL3dENmFhNS85aUpsbi9hUThUVFdvemF0cGQ4d1plbXczY0JYK2xkQnBuL0tSdTUvNjdQL0FPbW1nRDdhcjRsK04vOEF5Zlg0Ry8zOU0vOEFSc2xmYlZmRXZ4di9BT1Q2L0EzKy9wbi9BS05rb0E5Zy9iSDhENkRxL3dBSGZFUGlLODB1QzQxelRiV05MTytjSHpJVk02WkNuM3lmenJqUDJPUGhCNE04Ui9DZlEvRTJwK0hyTzgxNjMxR2FXSy9rVStZcnhUa3hrYzlWS3JqNlY2ZisxdC95YnQ0MC93Q3ZlTC8wZkhXQit3Ny9BTW0rYVYvMSszbi9BS09hZ0R5bi9nbytRcS9EOGtiZ0UxSWtldjhBeDYxNmw0US9ZKzhLeUVhejQ4dXIzNGdlSjdsUTA5OXFWeElzUzhmY2pqVnZ1ak9BR0xZeHh0SEE4ci80S1IvNnJ3RC9BTmM5VC84QWJXdnRDMS80OVlmOXdmeW9BK0JmMm1QaHpCK3kvd0RFZndyNHk4QU5KcFVOejVzaVdubk15eFN4RlM2WkpMR0tSWHdVSk9NTjBCQUgwMSswbDhhNWZoWjhIZjdjMHZDYXpxeGp0Tk9MZ041VHlJWE1oQjY3RVZpTWdqZHRCNE5lT2Y4QUJSMy9BSkFmZ2ovcnRlLytnUlZIKzNkYlR2OEFDMzRjWENraTNTVXh0NmIydHdWL1JIL1dnRHBmMlpQMlpmRGVvK0JySHhwNDIwK1B4VjRoOFFwL2FKT3FrM0VhUlNmTWhLdGtPN3FWZG5ZRTViQTZFbkYvYW8vWjUwcjRmZUg0L2lSOFBZVDRXMWJSWjQ1TGlMVENZMEtNd1FTeHFPRVpTd3lCaFNoYklOZlNId2F1WWJ6NFErQjVyZkFnZlE3SW9CMkhrSngrSFNzVDlwZWFLSDRCK09tbUlDblM1VUdmN3pjTC93Q1BFVUFjejRTK09OOTQ1L1paMXp4emF2SGFlSTlOMGErTXhSQXlSM2tFTGtPRk9SZ2tJNFU1d0dBT2E4bC9aQitHWGgvNHo2UjRnOGNlUExWL0YvaUZkVmF5V2JXSlduakVZaGlrSDdzL0tlWkc2Z2dBQUtGNXpSL1p3dFo0ZjJNZmpETElHV0dhTFZtaUJIRFkwNk1GaCtJeC93QUJOZHYvQU1FOWYrU1IrSXYreGdsLzlKYmFnRFMvYVUvWm84QzNmd3E4UTYzbzNoL1QvRG1yYUxZemFoRk5wZHV0dWtpeElYZU40MEFWdHlxUUNSa0hCQnhrRmYyRHZGV3BlSXZnMWRXZW9YRDNNZWo2bTlqYU5JY3NrSGxSU0xIazlsTWpBZWk0VVlDaXZWdmp2L3lRL3dDSWYvWXU2ai82VFNWNGwvd1R6LzVKWjRsLzdEci9BUHBOQlFCOVQwVVVVQUZGRkZBQlJSUlFBVVVVVUFGRkZGQUJSUlJRQVVVVVVBRkZGRkFCUlJSUUFWaStOZjhBa1RkZS93Q3ZDZjhBOUZ0VzFXTDQxLzVFM1h2K3ZDZi9BTkZ0UUI4RWZzai9BQnJtK0RPZ2VJTHUvd0RDMnFheDRZbm1oTjNxdWxxSkdzWkFod0pFT0J0SU9keFpjWXdOeE9LOWQrSjM3ZGZodS84QUM5enBmZ0dIVWRTOFM2akdiZTJsYTI4dGJkbUdOd0dkenVNNVZWVWdrY24xcGY4QUJPWC9BSkZYeGovMTlXMy9BS0xhdnJXMjBiVDdLNGU0dDdHMmduZjcwc1VLcXpmVWdab0ErZS8yTVBnTGYvQ253dmU2NXI5c2JQWGRaV05Vc24rL2FXeTVLcTNvN0U3bUhZQkFjRU1LODAvYU84TWVLUGdyKzBKYmZHUFNOTmJWdEdkNDU1MkNrcEF3Zyt6eXhTRUFsRmVNRXJJUmdNK093QisyNktBUG0reC9iMitHdDdwOE1pd2E0MnBTakM2WEZaQ1Nkbi91cVErd2s5dm0vS3ZCZFk4WjZ0OFEvd0JyM3dIcnVxZUdiM3dxYmk2c1JhMkdvS3dtYTNXVndzckFxcEc0aCtNWUdPQ2VwL1FLM3NMYXpabWd0b29HYjd4alFLVDljVjhkZUlMdUQ0by90NzZFbWxPTHkxOFBRS2wzUEVkeUlZRmxrYm4ybGxTTS93QzBjVUFmU1h4MDhGWG54RStFZmludzlwNERhaGVXWit6SXpCUThxa09pRW5nYm1VREo0R2ErZHYyUy9qcjRlK0hPZzIvd3k4WUxlZUhQRkNhb2JlMXQ3dTBsL2Z2UElOaUhDa28yOWlQbUFYRzBoams0K3hLamt0NHBYUjNpUjNRNVZtVUVyOUtBUGkvL0FJS1FvelErQXNLV3hIcVhRWi81OWErejdYL2oxaC8zQi9LcGFLQVBqai9nbzJqUG9mZ2phcGI5OWVkQi9zUlY3dDhUL2hUQjhaZmdtbmh4NUV0N3hyU0M0c2JxUVpFTndpQW94LzJUa28yT2RydGptdlVhS0FQamo0SS90RGY4TS9hS1BoMzhXZE8xSHcvUHBqeUN3MUEyN1RSU1FsczdQbHlYQUxIYTZCbDJrQTdkdk1meG8rTTkzKzFGWncvRHY0VmFYZTZ0WlhWeEUrcDZ4Y1FORGJSb2pCMFZpd3lpaGdya3NBVHNDcXJGcSt4YnF6Z3ZvVEZjd1IzRVI1S1NvR1g4alMyMXJEWndyRkJFa0VTOUVqVUtvL0FVQWVQZUlQaHpaZkNuOWxEeFg0V3NITTZXWGhqVVJKT1Z3WjVtdDVXa2t4empjN01RTW5Bd08xY0gvd0FFOTFLL0NUeEVDQ0QvQU1KQkoxSC9BRTYyMWZVVkZBSERmSFlFL0JENGhnREpQaDNVZUIvMTdTVjRsL3dUMVVyOExQRW9JSVA5dXYxLzY5b0srcHFLQUNpaWlnQW9vb29BS0tLS0FDaWlpZ0Fvb29vQUtLS0tBQ2lpaWdBb29vb0FLS0tLQUNxZXNhY3VyNlRlMkRPWTF1b0hnTGdaS2hsSzUvV2lpZ0R5TDltdjRBWGZ3QnRmRWRqTnJFR3RXdC9ORExienh3bUZ3RlZnUTZFc0IxSElZNTlxOXBvb29BS0tLS0FQblB4UDhEZmpGNDgxalZJTlcrTGgwcnd6TmRTbTN0ZEp0QWszMll1ZGtic2dpT2RtQWNzd3pucUs5SStEdndJOEtmQkRTcGJidy9iU1BkM0FBdXRSdTJEM0UrT2dKQUFWUm5oVkFIZkJPVFJSUUI2SlJSUlFBVVVVVUFGRkZGQUJSUlJRQVVVVVVBRkZGRkFCUlJSUUFVVVVVQUZGRkZBQlJSUlFBVVVVVUFmLzJRPT0iIGhlaWdodD0iMTY4IiB3aWR0aD0iMzAwIi8+PGNsaXBQYXRoIGlkPSJjbGlwMSI+PHJlY3QgaGVpZ2h0PSIxMzQ5NTAyIiB3aWR0aD0iMjQwOTgyNSIgeT0iMCIgeD0iMCIvPjwvY2xpcFBhdGg+PC9kZWZzPjxnIHRyYW5zZm9ybT0idHJhbnNsYXRlKC0xMzIgLTE0MSkiPjxnIHRyYW5zZm9ybT0ibWF0cml4KDAuMDAwMTA0OTg3IDAgMCAwLjAwMDEwNDk4NyAxMzMgMTQyKSI+PGcgdHJhbnNmb3JtPSJzY2FsZSgxIDEuMDAyMjYpIiBjbGlwLXBhdGg9InVybCgjY2xpcDEpIj48dXNlIHRyYW5zZm9ybT0ic2NhbGUoODAzMi43NSA4MDMyLjc1KSIgeGxpbms6aHJlZj0iI2ltZzAiIGhlaWdodD0iMTAwJSIgd2lkdGg9IjEwMCUiLz48L2c+PC9nPjxwYXRoIGZpbGwtcnVsZT0iZXZlbm9kZCIgZmlsbD0ibm9uZSIgc3Ryb2tlLW1pdGVybGltaXQ9IjEwIiBzdHJva2UtbGluZWpvaW49InJvdW5kIiBzdHJva2U9IiM1OTU5NTkiIGQ9Ik0xMzIuNSAxNDEuNSAzODYuNSAxNDEuNSAzODYuNSAyODQuNSAxMzIuNSAyODQuNVoiLz48L2c+PC9zdmc+;" vertex="1" parent="1">
          <mxGeometry x="585" y="170" width="106.57" height="60" as="geometry" />
        </mxCell>
        <mxCell id="Ybopkq_XPydpxg8CJSxO-19" value="" style="shape=image;verticalLabelPosition=bottom;labelBackgroundColor=default;verticalAlign=top;aspect=fixed;imageAspect=0;editableCssRules=.*;image=data:image/svg+xml,PHN2ZyB4bWxuczp4bGluaz0iaHR0cDovL3d3dy53My5vcmcvMTk5OS94bGluayIgeG1sbnM9Imh0dHA6Ly93d3cudzMub3JnLzIwMDAvc3ZnIiBzdHlsZT0iY29sb3I6IHJnYigwLCAwLCAwKTsgZm9udC1zaXplOiBtZWRpdW07IGZvbnQtc3R5bGU6IG5vcm1hbDsgZm9udC12YXJpYW50LWxpZ2F0dXJlczogbm9ybWFsOyBmb250LXZhcmlhbnQtY2Fwczogbm9ybWFsOyBmb250LXdlaWdodDogNDAwOyBsZXR0ZXItc3BhY2luZzogbm9ybWFsOyBvcnBoYW5zOiAyOyB0ZXh0LWFsaWduOiBzdGFydDsgdGV4dC1pbmRlbnQ6IDBweDsgdGV4dC10cmFuc2Zvcm06IG5vbmU7IHdpZG93czogMjsgd29yZC1zcGFjaW5nOiAwcHg7IC13ZWJraXQtdGV4dC1zdHJva2Utd2lkdGg6IDBweDsgd2hpdGUtc3BhY2U6IG5vcm1hbDsgdGV4dC1kZWNvcmF0aW9uLXRoaWNrbmVzczogaW5pdGlhbDsgdGV4dC1kZWNvcmF0aW9uLXN0eWxlOiBpbml0aWFsOyB0ZXh0LWRlY29yYXRpb24tY29sb3I6IGluaXRpYWw7IiBvdmVyZmxvdz0iaGlkZGVuIiB4bWw6c3BhY2U9InByZXNlcnZlIiBoZWlnaHQ9IjE4MCIgd2lkdGg9IjE4MCIgdmlld0JveD0iMC41IDAuNSAxODAgMTgwIj48ZGVmcz48Y2xpcFBhdGggaWQ9ImNsaXAwIj48cmVjdCBoZWlnaHQ9IjE3MDQ5NzUiIHdpZHRoPSIxNzA0OTc1IiB5PSIwIiB4PSIwIi8+PC9jbGlwUGF0aD48aW1hZ2UgaWQ9ImltZzEiIHByZXNlcnZlQXNwZWN0UmF0aW89Im5vbmUiIHhsaW5rOmhyZWY9ImRhdGE6aW1hZ2UvanBlZztiYXNlNjQsLzlqLzRBQVFTa1pKUmdBQkFRRUFZQUJnQUFELzJ3QkRBQU1DQWdNQ0FnTURBd01FQXdNRUJRZ0ZCUVFFQlFvSEJ3WUlEQW9NREFzS0N3c05EaElRRFE0UkRnc0xFQllRRVJNVUZSVVZEQThYR0JZVUdCSVVGUlQvMndCREFRTUVCQVVFQlFrRkJRa1VEUXNORkJRVUZCUVVGQlFVRkJRVUZCUVVGQlFVRkJRVUZCUVVGQlFVRkJRVUZCUVVGQlFVRkJRVUZCUVVGQlFVRkJRVUZCVC93QUFSQ0FEaEFPRURBU0lBQWhFQkF4RUIvOFFBSHdBQUFRVUJBUUVCQVFFQUFBQUFBQUFBQUFFQ0F3UUZCZ2NJQ1FvTC84UUF0UkFBQWdFREF3SUVBd1VGQkFRQUFBRjlBUUlEQUFRUkJSSWhNVUVHRTFGaEJ5SnhGREtCa2FFSUkwS3h3UlZTMGZBa00ySnlnZ2tLRmhjWUdSb2xKaWNvS1NvME5UWTNPRGs2UTBSRlJrZElTVXBUVkZWV1YxaFpXbU5rWldabmFHbHFjM1IxZG5kNGVYcURoSVdHaDRpSmlwS1RsSldXbDVpWm1xS2pwS1dtcDZpcHFyS3p0TFcydDdpNXVzTER4TVhHeDhqSnl0TFQxTlhXMTlqWjJ1SGk0K1RsNXVmbzZlcng4dlAwOWZiMytQbjYvOFFBSHdFQUF3RUJBUUVCQVFFQkFRQUFBQUFBQUFFQ0F3UUZCZ2NJQ1FvTC84UUF0UkVBQWdFQ0JBUURCQWNGQkFRQUFRSjNBQUVDQXhFRUJTRXhCaEpCVVFkaGNSTWlNb0VJRkVLUm9iSEJDU016VXZBVlluTFJDaFlrTk9FbDhSY1lHUm9tSnlncEtqVTJOemc1T2tORVJVWkhTRWxLVTFSVlZsZFlXVnBqWkdWbVoyaHBhbk4wZFhaM2VIbDZnb09FaFlhSGlJbUtrcE9VbFphWG1KbWFvcU9rcGFhbnFLbXFzck8wdGJhM3VMbTZ3c1BFeGNiSHlNbkswdFBVMWRiWDJObmE0dVBrNWVibjZPbnE4dlAwOWZiMytQbjYvOW9BREFNQkFBSVJBeEVBUHdEOVU2S0tLQUNpaWlnQW9vb29BS0tLam1MN1AzWURON25IOURRQkpSWGh2aFQ5cVhTYm5YTHJSdkYxaS9oUFVvSm1nZHBaUE50MWRXd1F6NEJVNXp5UnQ0SFBOZTIyMXpGZHdKTkRJc3NUZ01yb2R5c0NNZ2c5Q1BjVnk0ZkZVY1VyMHBYdDk2OVZ1amp3Mk1vWXVMbFJsZTIvZGVxZXFKYUtLSzZqc0NtdTRRTVNlZ3lRT3VLaXZubGpzcDJnakVzNnhzWTR5Y0JteHdNOXNtdmdUeHo4YmZHL2pZeVd1cmFwTFpRRE1jbW4yUU52RURraGxZQTViMElZbnBYa1pobVZQTDRybmkyM3Q4dk04UE04MXBaWkdMbkZ0eXZhM2wzZno4ejY5OGMvSHp3YjRDTXNONXFpM3VvSU0vWWRQSG5TNXgwSkh5b2Y5NWhXdjhNUGlOWi9GRHd2SHJWbGJUV2tiU3lRdERQZ3NqS1J3U09PUVFlUFd2enNWUW93QUFQUVY5YWZzWWF5Si9DL2lEU2k0YVMydlV1ZHBQUkpJOW94L3dBQ2pQNTE0bVhaeld4bU1WT2FTaTA3TDhkejUvSzgrcjQvSEtsVVNVV25aTHZ2dWZSdEZGRmZaSDNnVVVoT0JtdkhmakwrMFhwWHczODdUTk9DYXQ0aTJrZVFyZnViVThZTXBIZm5Pd2NudVZ5RFhQaU1SU3dzSFVxeXNqbHhPS280T202dGVWbC9XeDdGa1V0ZUMvc3E2L3J2akt3OFU2NXJlcTNWL0pQZlJ4SWtzaE1jWlZOemJFNklEdlVZVUQ3dGU5VkdGeEN4VkdOYUtzbi9BSmtZUEVyR1VJMTRxeWwzOVFvb29yck8wS0tLS0FDaWlpZ0Fvb29vQUtLS0tBQ2lpaWdBb29wc2piRVpzRTRHY0RxYUFBeUFNQnlTVGpnRTA2dnlhOGVmdE4vRUQ0ZytMSk5majhVYXRvMXY1eGxzYkRUcng3ZUsxakp5aWxVSURrREdXYk9UbnR4WDZBL3NuZkZMVi9pNThITERXTmRJbDFXM25sc2JpNUNCZnRKakl4SmdBQUVnaklBeGtIR09sZVRoY3lwNHFvNmNVMTI4ejlJNGc0RngvRHVBcDQ3RVRqSk5wU1N2ZUxhYlhydFp2djNXcDUzKzF2OEFDdjdQT25qZlQ0VHNrS1crcElpNUFiN3NjeCt2eW9mZlo3MTVCOE9malA0bytHVWlSNlhlQ2ZUUVNXMDI3eThCejFLaklLSDNVajNCcjc2MW5TYlRYdEx1OVB2b0Z1Yk82aWFHYUorakl3d1JYNTZmRXZ3SGQvRGZ4bHFHaDNPNTBpYmZiVHNNZWRDM0tQOEFYSEJ4L0VHSGF2bHM2d3M4RlhXTXc3c3BiMjZQL2cvNW44Mlo5aEttQXhDeDJHYmlwYjI2UC9KL25jK3d2aHQrMGQ0VytJSWd0Skpob3V0U0hhTEM4Y1lkaWNBUnlZQ3VTY1lIREgwcjFVSE5mbCtRQ0NDTWcxNjk4TVAybGZFbmdGWUxHL1p0ZjBSTUtJTGh5SjRWSGFPVHIvd0ZzamdBYlJYUmd1SWIyaGkxODErcS93QXZ1T25MK0o3MnA0MWY5dkw5Vi9sOXg5eDE4TGZ0TWVDRDRQOEFpaGUzRU1MUjZmcTQrM1FzZW04bjk2bytqODQ3QnhYMXI4UHZpOTRaK0pWcUgwaS9YN1dGekxZVC9KY1IvVk80SDk1Y2ozcmhQMnNmQlgvQ1MvRHBkWXQwM1hXaXlpNExkekF3MnlBZlQ1SC9BT0FHdlZ6YWxESFlGMUtUdnk2cTM0L2dlem5WR25tT1h1clJhbHkrOG12TGY4UHhQaTZ2b2Y4QVl3YTRUeGI0ajJReVBiTlpSK1pLQjhpdUpQbEJQcVFYSS8zVFhoM2hUd3JxWGpYWDdUUnRKZ054ZTNMWUhIeXhyM2R6MlZlcFA5U0srLzhBNGEvRHpUdmhwNFZ0dEcwOEY5cDh5ZTVmNzg4cEEzT2ZUcGdEc0FCWHkrUllPcFd4Q3JyU01QeGR0djhBTStRNGN3Tld2aWxpVnBHSFh1N2JmNS84RTZ1b3JtNGp0TGVTZWFSWW9ZMUx2Skl3VlVVREpKSjRBQTV6V1Q0dThaNlA0RjBhYlZOYnZZN0cwajREUDk2UnV5SXZWbU9PZ3I0dStNWHgvd0JYK0tNMGxqYnErbGVIQTN5V1FiTWsvd0R0VEVkZlpSOG85eUFhK3p4K1owY0JIM3RaZEYvbjJSOTVtV2JVTXRoNzJzM3RIL1BzdjZSNkw4YVAycDJuTTJqZUNKeXNSQlNmV1FDQ2V4V0QwLzN6L3dBQjdOWHpNU1NTU1NTVGtrbkpKOWFXTkdsa1NPTldra2NoVlJCbG1KNkFBZFQ3VjZUNFMvWjI4ZCtMSGpZYU0ra1dqRVp1ZFZQa0FEMTJINXovQU44L2pYNTFXcTR2Tkt2TTA1UHNsb3Y4ajh1cjFzYm5GYm1hY24wU1dpL3k5V2ZTUDdLR2l2cGZ3anRiaHVQN1F1cDduR093WVJqOUkvMXIyV3VkK0gzaE1lQnZCdWthQ0ovdElzYmRZak50MitZL0pac1pPQVNTY1YwVmZxT0RwT2hoNmRON3BMNytwK3Y0R2k4UGhhZEo3cEpQMXRyK0lVVVVWMW5jRkZGRkFCUlJSUUFVVVVVQUZGRkZBQlJSUlFBVVVVVUFmbWYrMXg4Tk5EOE1mdEoyT2o2UkEybldXdnBaM2wwa0xjSk5jWFVzY3JSZzVDZzdRd1hvQ1R4aml2ME84QWVDZEcrSGZoU3g4UDZCWml5MHV4RFJ4UlpMTVR1TzVtWThzekhKSlBjMThOL3RxLzhBSjJmZ3ovcjAwbi8wdm1yOUFMYi9BRmJmNzcvK2hHdkN3Rk9FY1JYYVd6UDEvakhHWWl0a2VVUXFWRzFLRGJ1OTJ1Vkp2dTBtMG41dnVUVjVKKzBQOEhuK0tIaHlDYlRFaUhpQ3dmTnNaWDJMTEd4RytJbm9NOE1DZTQ5elhyZFoydjhBaUxUUEMyazNPcDZ2ZjIrbTZkYkx2bnVycVFSeHhyNmxqeCtIZk5lcGlLTlBFVXBVcXZ3cy9HYStFampxYncwbzM1dExMZS9TM25mWStLSC9BR1lQSGNjb2prZzB5QnpqQ1RhZ2dZL2dNMVcxL3dEWjQ4UitFYkUzdmlIVi9EV2dXZ0JQbmFscW9pWGpyZ2xlZm9LZDhhLzIvdFExQ2E0MHI0YlFmWUxNSGIvYjk5RUdtazRPZkpoWVlRZENHZkpQUHlqclh5UHIvaURWUEZlcVBxZXQ2bGQ2eHFMakJ1cjZkcHBNWnpnRmljREpQQTQ1NlY4RGlNTmwxTjh0TG1rL1hUOHRUOUZ5THdIZU5pcTJaMUpVWXY3T2puODFaS1B6dTExU1BYZGI4WGFSNFAxQ0o5UDhUV21xM2NUYmxuMEkzSDdzK29rZU9NZjk4azE2djRUL0FHK1VzUERkMXBQaXZRcnZ4U1prTUltUXhRbDRtWGF5eTU0WSs0WHBuT2ErUEtLNThQVWxoWk9WRjJ2MDZmY2ZzZVYrRFBDK1Z2bWlxaysvTlBSK3Fpby9JK3F2Z1grMWY0SCtFbHRldGQrRjlkdnRVdTMydGZRdEFkc0lQeXhnTkl1UFZ2VSt3QXIzKzEvYmg4R2E1NGV1NzNTZE8xZHIrTWJZck84dHhFcnY3eUJtWGFPK01uMEZmbXRWcVBWYnlLMEZ0SGN5eDI0SlBsbzIwYzllbGRkTEg0akQwbFJvV1NYbC9XcGxtM2hQbHF3Q3d1UUpVS2wwdWFUbEpKZFh5L2FsMlRhWGQ5RDYzK3krUC8yai9FRXQ5RkdkVEVUK1ZrU0xGYTJhOWRvQlBIVVp3Q3g3NXIxbndkK3hwQWhXYnhQcmJ6bFNDYlBURjJJZU9oa1laUDRBZld2ejAwRFg5VThLYXBIcVdpYWxkNlBxRWZDM1ZqTzBNbU01d1NwR1JrRGc4SDByNjIrQ243ZnVwYWRjVzJsL0VpMy9BTFJ0R0lRYTlZeEtzOFk2QXpRcUFIWHFTeVlJL3V0VllLbmdwVDVzWmVVbjFiMC9yMXVqOG16VHdPcjVlbmk4UFZlTGU3VDkyWHlqZHFYcHpYNkpNK3lQQ1h3dzhMK0JvOXVpNkxhMlQ4ZnZ3bStZOGQ1R0pZL25YVVl4V2Y0ZjhSYVg0cjBpMjFUUjlRdDlVMDY1WGZEZFdzZ2tqY2V4SDh1MWFOZmZVNFFoRktta2w1Ykg1MHFDdzE2U2h5MjB0YTF2a0ZNZVpVS2doanU2YlZKL2xYUGZFYnhsQjhQL0FBTDRnOFJYRVRUeDZWWVQzcGhVY3llV2hPMzhUZ2ZqWHlaOE52MmZmRS83UmZoYTMrSVBqSDRsNi9aYXRxN1BkMk5wbzgzbDI5aW00cWhDazhBN0RnSnRPTVpZbkpybnJWNVFtcWRPUE5KNjcyMFBxY3N5ZWppOE5QRzQzRUtqUmpKUnZ5dVRjbW03SkxzbGR0dlRUZTU5ckFnOURtbHI1eC9aTThlZUtHMWZ4eDhOUEdPby93QnRhdjROdUlvb2RWWmkwbHpBNWNLSEo1Skd4U0NTVGlRQWtsY242T3JXaFZWZW1wcFcvd0Exb3p6czF5MnBsT0xuaEtrbEsxbW10cFJrbEtMWHJGcC9nRkZGRmJua2hSUlJRQVVVVVVBRkZGRkFCUlJSUUFVVVVVQWZueisyci95ZG40TS82OU5KL3dEUythdjBBdHY5VzMrKy93RDZFYS9QL3dEYlYvNU96OEdmOWVtay93RHBmTlg2QVc1eEVmOEFmZkgvQUgwYThiQS94Ni9yL21mcWZGdi9BQ0pjbS82OXkvOEFiVEg4YitOdEcrSG5oalVOZjE2OVN3MHV4ajh5YVp1VHljS3FyMVptSkFVQVpKT0svTHY5b0Q5b0xYUGoxNGtNOTJaTER3N2F5RnRPMFlQbEl1b0VzbU9IbElKK2Jvb0pWZU1sdXUvYkYrUFUvd0FWL0g5eG9XblhKLzRSVFFaMmdnVkQ4dDFjcmxaSno2Z0hjaTlzQWtmZTQrZmE4UE1zZTY4blNwdjNWK1AvQUFQK0hQMS9nTGc2bmxHSGptV05qZkVUVjFmN0VYMC94TmJ2ZGZEcHJjb29vcndUOWpDaWlpZ0Fvb29vQUtLS0tBUFV2Z0grMEhyL0FNQnZFWDJpeFo3L0FFQzZjSFVOSFo4SktPQVpJK3lTZ0RodWh3QTJSZ2o5UmZBdmpmUi9pSjRXc05mMEs5Uy8weTlUZkZLb3dSNnF5OVZkVHdWUElJTmZqUlh2MzdIL0FNZkpmaEY0OGkwZlU3Z2p3bnJzeVEzSWM1V3puUHl4M0M1T0ZHU0ZjLzNjSCtEbjNjdHg3b1NWS28vZGY0ZjhEL2h6OGQ0OTRPcDV2aDVaamdvMnhFRmRwZmJTNlA4QXZKYlBkL0QydCtrdmlidy9aZUsvRDJwYU5xTUl1TERVTGFTMW5qT1BtamRTckRuMk5mQ21zL0VMNHIvc2QzMWo4TmJhNjBUeERwVnd4azBLNnZvWkRJa2J5N1FHQ3lKdCtkajhyYmdDZUR0d0I5K2c1RmZDUDdlWC9KZC9oeC8xd2gvOUxLOTdNazRVMVdnMnBMUzY3Tm40N3dGT09LeHp5dkZRalVvVFRrNHlWMXpRaTJwTHM5MCs2ZG1mUWY3Tkh3UDFiNFcyZmlEWHZGZXBKcTNqZnhSY3JkYXBQRWN4eDdTNVdOVGdaNWtja2dBY2dBWVVFKzJVVVY2ZEtsR2pCUWhzajgvekRIMTgweFU4WGlINzByYkt5U1Nza2wwU1NTUzdJS0tLSzFQT0NpaWlnQW9vb29BS0tLS0FDaWlpZ0FxT2E0aXRrM3pTSkVuVGM3QUQ4elVsZk9mN2ZTaC8yYzlSREFNRHFObGtFZjhBVFlWaFhxZXhwU3FXdlpYUFh5akFMTk13b1lGeTVmYVNVYjJ2YTd0ZTExZjd6d0g5dEM1aHVQMnIvQnNrVXFTUmkwMG5MSXdJSCtuekhyWDB2KzFiOFdsK0dud1MxaWZUYjZKTmExS1E2YlpHT1FNeXRLVzN1TWRDc1FrWUhzUVBwWDVjcERIR2hWSTFWVDFWUmdHblJScEFqSkdxeG94RE1xakFKR2NFL21mek5mRlJ6R1VQYXVNZForZTM0SDlZVnVCcUdJamwwSzFibWpoTkxjdng2cDYrOW90TlZyY0ZVSW9WUmhRTUFEdFMwVVY1QituaFFTQjNyMFA0Q2ZDS2Y0My9BQk1zZkRDWEpzclR5bnU3NjZUNzhWdWhVTVV5Q041TG9vendDMlRuR0QrbHZodjluWDRhZUZ0SlRUclB3VG9rc0tqQmx2TEpMbWFUM2VTUU16SDZuNmRLOVhDWmZVeGNYTk95UitjOFRjYjRIaHFySERWSU9wVWF2WldWbDV0OStpKysybC95UG9yN1IvYkwvWlgwUHdwNFhmeDE0TTArTFNZclNSUnFtblcrVmhhTjJDckxHbklRcXhVRlJnRUVucU9maTZ1VEU0ZWVGcWV6bWZTWkZubUY0aHdTeHVFdmE3VFQzVFc2ZS9kTmVUUVZ2K0dQQUhpZnhySGNQNGU4UGFwcnFXNUN6SFRyUjUvTEp6amR0QnhuQjYrbFlGZlFQd0o4TytNdkJQZ0NmNHhlQlo1THk2MGJVWkxQV2RFUCtydXJCVWprWnVtVGdzYzkxd0dYb1FabzAxVW5aM3QxdHZZNk0yeDBzQmhuVXB1S20yb3g1cnFMazlrMnRyN0o3SjJ1ZWNmOEtJK0pYL1JQL0UvL0FJS0ovd0Q0bXN6eEQ4THZHWGhIVFRxR3UrRmRaMGF3RHJIOXAxQ3hrZ2ozSG91NWdCaytsZnFYNEErT25oTHgvd0RESi9IRnRxS1dta1cwTHlhaDlwY2JyRmtVTTZTNHpnZ0VFWSs4Q0NNNUZmT25oblM5Vi9iTjhleitNdkVFTTFsOEt2RDhrcTZOcEV4SS90Q1pjamU0eHowK2ZuamlNRS92Q2ZacTVkU1NpcVUzS1V0dlR1L0kvS2N2NDd6S3BPdFBNc05HalNvYVRidmZtNlFpdXNwUDVKYXZUZjRZcEdVT3BWaGxTTUVIdlVkbzVrdElXWTVaa1VrK3B4VXRmUExWSDdnMVoyUDFBL1pQK05FSHhDK0RlbFM2enFVYTYxcHBiVGJ5UzZtVkdsYU1EWkp5Um5jaklTY2RkMWZQMzdkR29XdC84Y3ZoMUpiWE1OeEdrRU81NHBBeXIvcGZjanBYbS83SC93QUpmQlB4bDhlNnpvWGpMVG0xQUpwMzJ1ekNYTWtES1ZrVlg1UmhrWWtYcjB4WDEzSCt3WjhHb2xLcDRldlVCNmhkV3VoLzdVcjZ5SDFuSDRSUWlsYlRWdDMwOHJmcWZ6Vmlsa1hCM0V0WEVWSjFPWnFUVUkwNDhxVlJQYVRxSjJWLzVWdGJ6UGU3UFU3UFVkLzJTN2d1dG1OM2t5Qjl1ZW1jSGpvYXMxOGovc1UrR05POEYvRjM0OGFGcEVIMmJUTk8xR3p0cmVJc1dLeHBKZXFvTEhrbkFISjVyNjRyM2NOV2Rla3FrbFo2L2cydjBQeDNQY3RwNVJqNTRTbE56aWxCcHRXYlU0Um5xcnUxdWEyN0NpaWl1bzhBS0tLS0FDaWlpZ0Fvb29vQUtLS0tBQ3ZuVDl2ai9rM1hVUDhBc0kyWC9vNWEraTYrZFAyK1ArVGRkUS83Q05sLzZPV3VMRy83dFU5R2ZXY0pmOGovQUFQL0FGOWgvd0NsSS9OU2lpaXZ6ay91a0tLS0tBUHBUOWdUeFZZNkQ4YkxuVHIyU0dGdFkweDdhMmtsWURNeVNSeUNNWjZsbFZ6OVVGZnBDRGtacjhUb0o1YldlS2VDV1NDZUoxa2ptaWNvOGJxY3F5c09RUVFDQ09RUlgwVDRlL2I0K0ttaGFXbG5QL1lXdHlJdTBYdW8yTW5udDZGakZMR3A0NCs2TzJTZWMvUjVkbU5QRDAvWlZWNkg0WHh4d0xqYzh4eXpETDVSdTBsS01uYmJacDZyYlJyVGJyZlQ2NC9iTDhWYWQ0YitBSGlpSzdtUmJuVTRScHRwQ3hHWlpaR1hPMGR5cWhuOWd1YS9McXUxK0tYeGo4V2ZHVFY0dFE4VWFrTG93Qmx0clMzakVWdmJnNDNCRUhyZ1pMRXNmWEdLNHF2T3grS1dMcTg4VlpMUkgzSEJuRGxUaHJMWGhxOGxLcE9UbEsyeTBTU1cxN0piMjN2MEN2ME4vd0NDZU8wZkJyV21iR0YxeVU1UGI5eERYNTVWN2Y4QUNqNGg2enFYdzUvNFZIb04vYStIVHIrcVMzR3JhOWZ6cERGQlpHT05HUUZtSFhheElCQllZVWZlSkJsOVpVSzNPMWZSNmQySEd1VjFNM3lwNFdFbEZjMFhLVDJqRmF0K2RsMFdyZWc3NHJRNlZxL2p6eHhxUHc4MHJXTGo0VVd0NVp2NGtYVFpObHJPVWx5NWo2QUxrc1VKenRKTDhJUmo5RFBodHJYaFhYdmhWcGwzNEw4bFBEUDJIeTdLR0Zkb2hWVndZMlhxcnFRUXdQT1FjMXpQdzRYNFRmRER3REI0UjBueFA0Y2JURmpaYmo3UnFWdTV1MllmdkhseTJHTGRDT2dHQU1BQVY4NGFucnRoK3lSOFJwTlI4RmEvcC9pTDRXK0k1U2wvb2RsZlJUemFmSVZ3R1FCaTNHRHRiR0NvMk44MnhxOStrdnFVdmF5YWFsdmI3T3ZUeTExKzgvRjhmVS8xdHByTHNQQ2NKME5hVG5mOThsRko4N2VpcXRSdkY3TmU1Mlo4WTJQL0FCNVcvd0QxelgrVlRWSGJSbUczaWpPQ1ZVS2Nld3FTdmpWb2tmMU5MV1RQZC8ySXBXVDlvelFvd3pLdHhhWGtMbFRnbFRBemZ6VUg4Sy9UK3Z4NCtGSHhNMUg0UWVPTEx4VHBWcmEzbDlhSktrY1Y2R01SM29VSk8wZzlDZTllL3dCdC93QUZEZmlMZVhVTnZENGM4TlBOTklzVWFlWGNEY3pFQURtYnVTSytteTNIVWNOUmNLamQ3OXZRL0F1UE9EODB6N000NHZCUmk0S0NUdkpMVk9UNitUUjdMK3luL3dBbkEvdEZmOWhpMi84QVIxOVgxSFh6Uit5UDRFOGVlSHZHM3hUOFNlT3ZEdzhQM1BpVzV0THFLTkpvNUkyY1BkTklGMnU1QUhtcDk0OSsvTmZTOWU5Z0UxUVhNcmF5My94TS9GK0w1MDU1eFU5bE5UU2pTVjR0U1YxU2duWnJSMmFhQ2lpaXZRUGpRb29vb0FLS0tLQUNpaWlnQW9vb29BSzhZL2EyOEE2cjhUL2cvZGVIZEROcWRVbXZMYWRFdTdoWVZLeHlCbStadllWN1BSV1ZXbXFzSFRsczlEdnkvRzFjdHhkTEdVYmM5T1NrcjdYVHVybjVmLzhBREZYeFAvNTk5Qy84SEVWYzE4UnYyYmZHL3dBS3ZDZzhRNi9hMlkwNDNjZHA1bGpkcmNCV2RXSUxiZnVqS2dmVnhYNnkxeUh4WitIMW44VXZoNXJuaGU5T3lMVUxjb2twL3dDV01vSWFLVC9nTHFwL0ExNGRUSnFQSS9adDM2ZjFZL1ljRDRwNW84VlNXTWhEMlhNdWEwWGZsdnJiM25yYnlQeDRvcS9yK2czL0FJVzEzVWRHMVNBMjJwYWZjUGEzRVJ6OHJveEJ4bnFEaklQY0VIdlZDdmptbW5abjlSeGxHY1ZPRHVucW1GRkZGSW9LS0tLQUNnZ0hxTTBVVUFKc1grNlB5b0NnZEFCUzBVRENpaXJtamFQZStJdFlzZEowMkEzV28zODZXdHRBT1BNa2RncWpQYmtqbnQxcHBYMFJNcFJnbktUc2tlby9DUDhBWmI4Y2ZHdnc1UHJuaDV0SmcwK0s1YTAzYWxkU1JNN3Fxc3hVTEcrVkc4RE9ldVIycjBYUS93QmdUNG9hZnJ1bVhjOTE0YThtM3VvWjMyWDh4YmFyaGpnZVFPY0QxcjdrK0V2dzZ0UGhSOFBORDhMV2JpWk5QdHdrayswS1pwU1Mwc2gvM25KUDVWMkZmWlVzbm9xRVhVdnpkZGVwL0t1WitKMmF6eFZhT0M1ZlkzYWplT3ZMc205ZDJ0UW9vb3I2QS9GUW9vb29BS0tLS0FDaWlpZ0Fvb29vQUtLS0tBQ2lpaWdBb29wQ2NVQWZILzdiWDdORng0cmhrK0lYaGUwOC9XYmFJTHExbEFuejNrS2pDeklCOTZSRkFERCtKQU1jb0ZiNEpWZzZobElLa1pCSGV2MmdieFZvakRuVnJIcm4vajZUL3dDS3I0MC9hYi9aUTB2WDcrOThYZkR6VWRNVytuTHozMmdmYW8wV1orcGt0em5DdTNKS0hnazVCQnlEOHJtV0E1bTY5SGZxdjFYNm45RmNCY1p2RFU0NVRtdDFGYVFtNzJTL2xrK2kvbGV5MmVscmZGZEZTVHdTV3Mwa00wYnd6UnNVZU9SU3JLdzRJSVBRMUhYeXgvUmFkOVVGRkZGQUJSUlJRQVVVVStHR1M1bWpoaGphV1dSZ2lSb01zekU0QUE3a21nRzdhc2paZ3FsbUlBQXlTZTFmZW43RVA3Tk54NFdTUDRpZUtiUXdhdGNSRWFQWXpLUkphUk9wRFR1RDBkMU9BdU1xaE9lWElYbnYyWlAyVDlKMFc5c3ZGbnhGdjlOYThoS1QyUGg4M1ViTEMvVVBjYzRaaHhoQndDTW5QQUgybGIrSTlKdXBsaWgxS3ptbGM0Vkk3aEdaajdBSG12cWN0d0hMSlY2Mi9SZnEvd0JEK2RlUHVOUGIwcDVUbFRiaTlKeld6WDhzWDFYOHoyYTBXbHpSQUFHQndLV2lpdnFqK2RBb29vb0FLS0tLQUNpaWlnQW9vb29BS0tLS0FDaWlpZ0Fvb3JsZmlWOFNORStGUGhpVHhENGl2RFk2VkZJa0x5cmJQTzI1emhSdFRKNVB0VXlrb0p5azdKRzFHalZ4TlNOR2pGeWxKMlNTdTIzc2t1ck9xcEQxSDFyNTQvNGJ2K0VBL3dDWm11UC9BQVMzZi94TktuN2Qvd0FIdDQzK0pya3I3YU5kai8yU3VUNjloZjhBbjdINzBmUi82cVovL3dCQUZYL3dYTC9JL010N0szM3QrNGk2bitBZXRKOWl0LzhBbmhGLzN3S25ZNVpqMkpKcjZ3L1lrK0NuZzc0dGFGNHVtOFQ2TERxdHhaWFZ2SGJQTkpLb2pWa1lzTUk2NXpqdlh3T0hvU3hOUlVvYnZ1ZjJqbldkVXNpd0U4ZmlWSnhqYTZqYStyUzZ0THIzUGs0REF3T0JSWDZpL3dEREd2d3Ivd0NoUzAvL0FMK1hmL3lSWHhQKzJGOFA5QStHZnhrR2llR3RPVFM5TS9zbTJ1REJHN3VESXp5aG15N01lUXE4WjdWMjRuTHF1Rmg3U2JUVzJsLzhqNVRJT09zdTRpeG4xTEMwNXhsWnl2SlJ0Wlc3U2Zmc2VKVVVVVjVSK2pCVFRJcXNGTEFFOUFUWFcvQ2Z3U3Z4SStKbmhyd3U4N1dzV3EzaXdTVElBV1NNQXU1R2VNN1ZiSHZpdjFUOFBmQkR3RDRYOFBSNkxZZUVOR0dub213cFBaSk0wbzlaR2NGbko3bGlTYTlUQjRDZU1Ua25aSS9QT0tlTk1Md3ZVcDBhbE4xSnpWN0pwV2plMTIzM2Q3SzNSM2EwditRTkljWXdjWVByWDBCKzFuOENkUDhBaGw4WU5MMHJ3cWl3V1BpUkk1TE94ZGpzdHAybDhveGhqazdDeFZoNmJpQndCWDIzOE12Mlh2aDk4T2ZERnZwcDhONmJyVjhZbEY1cVdwMmlYRTF6Smo1amx3ZHFrNXdpNEE5TzlYUnkycldxenAzUzVkMllacng3bDJXWmZoc2ZHTXArM1Y0eFZrN0xlL2F6MDB2ZDdhYW41UDhBMkszL0FPZUVYL2ZBcjFEOWw2MWhqL2FIOEFsSWtVLzJrT1ZVRC9sbTllc2Z0dmZBVHcvOEs5VDBYeEQ0WHRScG1tNnROSmJYR25SY1F3enF1OVdpSDhLc3U3S2o1UnRHQU00cnduNFRlTG44QmZFencxNGhpMCtUVnBkUHZGa1N4aWZZODdFRlFpbkI1SllkalhLNlR3dUpVS25Sbzkrbm1jT0k4aHFZbkJYdFZwelNUMGQ3T05ucmJmcmUzVS9ZcWl2bFkvdGMrUFNmK1NGK0xSLzM4LzhBa1d1ditCbjdTZDU4WVBGWGlEUWIzd3JlZUZyL0FFV09DU2VHOXVBNy92Sk51MWtNU0ZUam5uMUZmY3d4bENjbENMMWZrLzhBSS9rREU4TFp0aE1QUEZWYWE1SUs4bXAwNVdWMHRveWIzYVd4NzFSUlJYYWZLQlJSUlFBVVVVVUFGRkZGQUJSUlJRQVVVVVVBRmZOMy9CUVVsZjJhZFhJSkJGOVprRWY5ZFJYMGpYemQvd0FGQnY4QWsyaldQK3YyMC84QVJvcmh4Mys2MVBSbjEzQ0gvSlE0RC9yN0QvMHBIcXVpZkNud2pQb3VuU0h3M282bHJhSWtEVExZODdSenpHVFY1UGhQNFFTUldQaHJSbkhkVzB5MndmeWp6Vzk0ZS81QUdtZjllc1gvQUtBS3ZucVByWFRHbkN5MFI0VlhHWW4ya3Yzc3QzMVorSmJmZWI2bXZ0VC9BSUo3ZUxORzhOZUh2RzQxVFZMS3dra3U3Wm80N3E2amhaeHNjRWpld3pYeFczMzIrcC9uVFdSWCs4b1AxRmZuZUZydkRWVlZTdlkvdUxQOG1obitYVHkrYzNCVHRxbGZacDdhZGo5aXYrRnJlRS8raGcwbi93QUdkdC84Y3I4K2YyNk5Zc05lK1BBdTlOdmJiVUxVNkxhcDUxck1zcWJoSk5sZHlrakl5T1BjVjg5ZVRIL2NYOHFWVkNqQUFBOXE3OFhtVXNYVDltNDIxdWZIY05jQlVlRzhkOWVwNGh6Zks0MmNVdDdlYjdDMFVVVjR4K3BtbjRZOFNhaDRPOFI2WnJ1a3pDRFU5T3VFdWJlUmwzS0hVNUdSM0I2RWR3VFgzbG9IL0JSSHdWYytIVm4xblJOWXNOYVZEdnNyUkVuaVo4ZndTRmw0Si92QVlyNU4rSFg3TXZ4QitLdmhtUHhCNGIwcTN2TkxrbGtoV1dTOWlpSlpHMnNOckVIcUs2Zi9BSVlkK0wvL0FFQUxUL3daUWY4QXhWZXZoWlkzRHE5R0xzL0s2OVQ4eTRqb2NLWjFWVlBOTVJCVktUYS9pS01sM2k5ZS9ScTY2V3V6aWZqajhhOVcrTnZ4QWJ4TGN4blNrZ2pTRFRyV0dVc2JTTkNXVTc4RExsaVdMWUhKQTZBVjljL0RiL2dvTDRUdVBDOXN2alcxMUhUdkVFU0JKM3NyWXp3WExBQWVZbTNsTjNVcVFBRHdDZXRmSC94VCtCL2pENE1mMlgvd2xlbncyUDhBYVhtL1p2S3VZNXQvbDdOK2RwT01lWXZYMXJncXloaThUaGFzcFA0bnZjOUhGY05aRHhGbDFDakJKMGFla0pRbHN0bWs5VTlWcmUrcTdudUg3VW43UnY4QXd2dnhCWXg2ZFl2cDNoM1N6SWJWWjhlZmNTTmdOTElCd3Z5cW9DNU9Cbko1d1BMZmgvOEE4bEM4SmY4QVlhc2YvU2lPc0d0NzRmOEEvSlF2Q1gvWWFzZi9BRW9qcm1sVm5XcSswbTd0cytodytYWWJLY3QrcFlTUExDRVhaZmUyMzV0NnMvWSs2Z1FRelNBRU9GSkJ5ZXVLK1dmZ2wveWVGOGRmOTdUL0FPYVY5VTNmL0hwTi91Ti9LdmxiNEpmOG5oZkhYL2UwL3dEbWxmZDRuK0pSL3dBWC90clA0NnlEL2NNMC93Q3ZLLzhBVDFJK3I2S0tLN3o0b0tLS0tBQ2lpaWdBb29vb0FLS0tLQUNpaWlnQXI1dS80S0RmOG0wYXgvMSsybi9vMFY5STE0aisyTDhQZGY4QWloOEQ5UTBEdzNwejZwcWsxM2JTTGJKTEhHU2l5QXNkMGpLdkE5NjQ4YkZ5dzFTTVZkdE0rcDRXclU4UG51Q3JWcEtNWTFJTnR1eVNVbGR0dlJJOWU4UGY4Z0RUUCt2V0wvMEFWZlBVZld2bFd5K0ozN1RkalpXOXNud2UwcGtoaldNRTZoRGtnREgvQUQ5ZTFUajRzZnRPa2ovaXpta2YrREdFZiszVllyR3dTK0NYL2dNdjhqdXFjTFltVTIxaWFHLy9BRC9wZi9KSDUzTjk5dnFmNTBsS2Z2SFBYSnpTVitmSDl2SUtLS0tBQ2l2ZGYyUVBoRjRhK00zeEMxWFIvRkZ0UGMyTnZwalhVYTI5eThEQ1FTb3VTVUlKR0dQRmVrL3RmZnN6ZUEvZzE4TTlPMXZ3dlkzbHRxRStyeFdidmNYMHM2bU5vWm1JMnV4R2NvdlBYaXU2T0Rxem9QRUszS3Z2UGo4VHhWbCtGemVHU1ZGTDIwN1dzbHk2cTYxNXIvZ2ZLMm4rTE5lMGUyRnRwK3Y2dHAxc0NTSUxQVUpvWXdUeVR0VmdNbXJQL0N3UEZuL1EyK0lQL0J2Yy93RHhkWU5GY2ZOTHVmVVBEMFpPOG9KdjBSZjFUeERxMnVpSWFwcStvYW9JcytYOXZ1NUovTHpqTzNleHhuQXpqcmdlbFVLS0tUYmU1dEdNWUxsaXJJSzNQQXRwcWw3NDIwQ1BSTEJ0VTFkYitHYTBzbFlLWjVJM0VnVEpJQXpzOWF3NjlQOEEyWWYrVGhmQVAvWVNIL290NjBwUjVxa1k5MmpnektzOE5nYTlkSy9MQ1RzOW5hTGRuNUgxK2ZqdiswSVZLbjRGb1Flb09vTC9BUEZWRit6WDRWOGVENHkvRWJ4cDR6OEpUZUZ2K0VnV3phT0Y1VWtUZWtnQlZTckU5QUR6anJYMWJTRUE5ZWErK1dGZlBHYzZqZkxycmIwNkkvakNyeEhTK3ExOExoY0ZUcGUxaW95Y1hVYnNwS1gycHlXOFYwRm9vb3IwRDRvS0tLS0FDaWlpZ0Fvb29vQUtLS0tBQ2lpaWdBb29vb0FLUTlSOWFXa1BVZldnRDhTMisrMzFQODZTbGI3N2ZVL3pwSy9MRC9SVmJCUlJSUUI2Zit6NzhjcHZnRjR0dnRkZzBTUFhtdXJJMlp0NUxzMndRRjFmZHVDUG43bU1ZNzlhN1A4QWFCL2E3dXZqNTRMdFBEMC9oT0hRbHQ3K08vRnpIcVJ1Q3hXT1JObTB3cGpQbVp6bnQwNTQrZmFLNm80bXRHbTZLbDdyNmFmNVhQbnEzRCtWNGpNSTVwVm8zcnh0YVY1YVcyMFQ1ZndDdC93RDRUYngzNDMwTHc0bDJMRnRWdkk3TVhMUitZSWk3WTNiY2pkajB5UHJXQld6NE04VTNQZ2p4Ym8vaUd6aWludTlNdW83dUtPY0VvekljZ05nZzQraHJDSEx6TG0yUFp4UHRYUXFLaDhkbnkrdHROOU56NjQvNGRxWHYvUlNJUDhBd1FOLzhsVWY4TzFMMy9vcEVIL2dnYi81S3JtZitIaXZqNy9vWHZEdi9mdWYvd0NPVWY4QUR4WHg5LzBMM2gzL0FMOXovd0R4eXZvTDVUL0svd0R5Yi9NL0QvWWVKUDhBeitoOTFMLzVBcGZHSDloNjUrRWZ3NzFmeFhKNDNoMVpkT1dOalpMcEJnTW0rUlUrL3dDZTJNYnMvZFBTdk1QMllmOEFrNFh3RC8yRWgvNkxldXgrSi83YUhpNzRyZUNOVDhMNm5vMmkybGxmaEZrbXRFbEVpaEhWeGpjNUhWUjJyanYyWWY4QWs0WHdELzJFaC82TGV1R2YxZDRtbjlXVm8zWGZlL21mWllTR2VReURHclBwS1ZYbHFXdHkvRHlhZkNrdDcrWitzOUZGRmZmSDhZQlJSUlFBVVVVVUFGRkZGQUJSUlJRQVVVVVVBRkZGRkFCUlJSUUFVaEdTS1dpZ0Q1SFAvQk9Ed1lTVC93QUpkNGs1L3dDdmIvNHpSL3c3ZjhHZjlEZDRrLzhBSmIvNHpYMXhSWG0vMmJoUDVQelB1djhBWG5pUC9vTGw5MGY4ajh5UDJxLzJiOUYvWjlIaG4reU5YMUxWVHF4dVBOL3REeXYzZmwrWGpic1Jldm1IT2M5QlhnRmZiZjhBd1VuNmZENzYzLzhBN1FyNGtyNDdIMDRVY1RLRUZaSzM1SS9xWGd2SFluTXNodytLeGMrZXBMbXUzMXRPU1cza2tlay9zOC9DMncrTXZ4U3NQQ3VwWHQxcDlwY3dUeXRjV1d6ekZLSnVBRzlXSFAwcjYxLzRkdjhBZ3ovb2J2RW4va3QvOFpyNSsvWVovd0NUanRGLzY4N3ovd0JGR3YwNXIyc3J3bEN2UWNxa2J1LytSK1UrSVhFdWJaUm04TVBnYTdoQjA0dXlTM2JrcjZwOWtmSS8vRHQvd1ovME4zaVQvd0Fsdi9qTmNQOEFHcjlpRHdyOEwvaGo0aDhUV1hpWFhiMjkwMjFOeEZiM1hrZVU1RHFwRGJZZ2NmTjJJcjd3cnh2OXJqL2tnUGpiL3NGdi93Q2pZcTlDdmwrRmhTbktNTlVuMzdIdytUOFo1L2lNeXcxR3JpbTR5bkJOV2pxbkpKclkrR1BDSDdIdnhNOGMrR05MMS9TYkRUWk5OMUszUzZ0MmwxQlVjeHNNcVN1T0RqdFR2RmY3SEh4TzhGK0dkVjEvVk5QMDJQVGRNdHBMdTVlTFVGZGxqUlN6RUxqazRCNHI3Mi9aaC81SUo4UC9BUHNBMmY4QTZBYXUvdEgvQVBKQVBpTi8yTDk5L3dDaUhyaC9zdWg5WDlyZDN0ZjhQUSt2bDRpNXdzNGVBNWFmSjdYaytGM3R6Y3Y4MjlqNVgrQ3Y3RHZoZjRvL0Mzdzk0cXZ2RW11MlYzcWNCbGt0N1V3ZVdoRHN1RjNSay93OXlhOVkrSG43Q25oWDRjK045RzhUMmZpWFhieTcwdWNYRVVGejVIbHVjRVliYkdEakJQUTEzSDdJL3dEeWJqNEcvd0N2TnY4QTBhOWV2VjM0YkE0YjJjS25KclpQcnVmRjU5eGRuaXgyTHdheEw5bnp6amF5K0c3VnR1MmdVVVVWN0IrWmhSUlJRQVVVVVVBRkZGRkFCUlJSUUFVVVVVQUZGRkZBQlJSUlFBVVVVVUFGRkZGQUh4Si93VW42ZkQ3NjMvOEE3UXI0a3I5UXYyblAyYXJqOW9iL0FJUnp5UEVjWGgvK3lmdEc3ekxFM1BtK1o1ZU1Za1RiankvZk9lMks4TS80ZHE2aC93QkZHdHYvQUFSTi93REpOZkg0L0E0bXRpWlRwd3VuYnF1eTh6K24rRE9NTWl5dklzUGc4WmllU3BIbXV1V2J0ZWNtdFZGclpycWVXL3NNL3dESngyaS85ZWQ1L3dDaWpYNmMxOHRmQVg5aXE3K0MzeEtzZkZjM2pLSFdVdG9ab1RhSnBaZ0xiMEs1M21ac1krbGZVdGV6bGxDcGg2RGhWVm5mL0xzZmxuaUJtK0J6ck5vWW5MNm5QQlFTdlpyVk9UdGFTVDZyb0ZlTi90Y2Y4a0I4YmY4QVlMZi9BTkd4VjdKWEZmRi80ZVA4VS9BV3RlR0Z2eHBnMU8wYTIrMkdIenZLSmRHenMzTHUrNmU0cjBhOFhPbE9NZDJuK1I4VGxGZW5oY3h3MWVzN1JoT0RiN0pTVGIwMTI3R0YrekNwSHdDK0g3WTRPZzJZQi80QlZ6OW8vd0Q1SUI4UnYreGZ2djhBMFE5ZUxhVit4OThTdEMweTEwN1RmajlxOWhwOXJHSVlMVzIwNlZJNGtIQVZWRjNnQWVsTHFuN0lIeEwxdlRidlR0UitQK3IzMWhkeE5CY1cxeHAwcnh5eHNNTXJLYnZCQkhHSzh6bnhIc1BaZXhkN1czajJ0M1B1WGhjbGVhdk1QN1RoeSswNTdlenJYdHpjMXY0ZTU2aCt5UDhBOG00K0J2OEFyemIvQU5HdlhyMWNkOElQaCszd3IrRzJoZUZHMUFhbzJsd21IN1lJUEpFdVhaczdOelkrOWpxZWxkalhwVUl1RktFWmJwTDhqNGJONjlQRlpsaWE5RjNqT2MybjNUazJucnJ0M0NpaWl0enlRb29vb0FLS0tLQUNpaWlnQW9vb29BS0tLS0FDaWlpZ0Fvb29vQUtLS0tBQ2lpaWdBb29vb0FLS0tLQUNpaWlnQW9vb29BS0tLS0FDaWlpZ0Fvb29vQUtLS0tBQ2lpaWdBb29vb0EvLzJRPT0iIGhlaWdodD0iMjI1IiB3aWR0aD0iMjI1Ii8+PGNsaXBQYXRoIGlkPSJjbGlwMiI+PHJlY3QgaGVpZ2h0PSIxNzA0OTc1IiB3aWR0aD0iMTcwNDk3NSIgeT0iMCIgeD0iLTAuNSIvPjwvY2xpcFBhdGg+PC9kZWZzPjxnIHRyYW5zZm9ybT0idHJhbnNsYXRlKC03NjAgLTExOCkiPjxnIHRyYW5zZm9ybT0ibWF0cml4KDAuMDAwMTA0OTg3IDAgMCAwLjAwMDEwNDk4NyA3NjEgMTE5KSIgY2xpcC1wYXRoPSJ1cmwoI2NsaXAwKSI+PGcgY2xpcC1wYXRoPSJ1cmwoI2NsaXAyKSI+PHVzZSB0cmFuc2Zvcm09Im1hdHJpeCg3NTc3LjY3IDAgMCA3NTc3LjY3IC0wLjUgMCkiIHhsaW5rOmhyZWY9IiNpbWcxIiBoZWlnaHQ9IjEwMCUiIHdpZHRoPSIxMDAlIi8+PC9nPjwvZz48cGF0aCBmaWxsLXJ1bGU9ImV2ZW5vZGQiIGZpbGw9Im5vbmUiIHN0cm9rZS1taXRlcmxpbWl0PSIxMCIgc3Ryb2tlLWxpbmVqb2luPSJyb3VuZCIgc3Ryb2tlPSIjNTk1OTU5IiBkPSJNNzYwLjUgMTE4LjUgOTQwLjUgMTE4LjUgOTQwLjUgMjk4LjUgNzYwLjUgMjk4LjVaIi8+PC9nPjwvc3ZnPg==;" vertex="1" parent="1">
          <mxGeometry x="830" y="160" width="100" height="100" as="geometry" />
        </mxCell>
        <mxCell id="Ybopkq_XPydpxg8CJSxO-20" value="M" style="dashed=0;outlineConnect=0;align=center;html=1;shape=mxgraph.pid.engines.electric_motor;fontSize=45;" vertex="1" parent="1">
          <mxGeometry x="830" y="300" width="80" height="80" as="geometry" />
        </mxCell>
        <mxCell id="Ybopkq_XPydpxg8CJSxO-21" style="edgeStyle=orthogonalEdgeStyle;rounded=0;orthogonalLoop=1;jettySize=auto;html=1;entryX=0.45;entryY=1;entryDx=0;entryDy=0;entryPerimeter=0;flowAnimation=1;" edge="1" parent="1" source="Ybopkq_XPydpxg8CJSxO-10" target="Ybopkq_XPydpxg8CJSxO-18">
          <mxGeometry relative="1" as="geometry" />
        </mxCell>
        <mxCell id="Ybopkq_XPydpxg8CJSxO-23" style="edgeStyle=orthogonalEdgeStyle;rounded=0;orthogonalLoop=1;jettySize=auto;html=1;entryX=0.5;entryY=0;entryDx=0;entryDy=0;entryPerimeter=0;flowAnimation=1;" edge="1" parent="1" source="Ybopkq_XPydpxg8CJSxO-19" target="Ybopkq_XPydpxg8CJSxO-20">
          <mxGeometry relative="1" as="geometry" />
        </mxCell>
        <mxCell id="Ybopkq_XPydpxg8CJSxO-24" value="RockyBorg Library" style="text;html=1;align=center;verticalAlign=middle;resizable=0;points=[];autosize=1;strokeColor=none;fillColor=none;" vertex="1" parent="1">
          <mxGeometry x="821" y="130" width="120" height="30" as="geometry" />
        </mxCell>
        <mxCell id="Ybopkq_XPydpxg8CJSxO-25" value="Python" style="text;html=1;align=center;verticalAlign=middle;resizable=0;points=[];autosize=1;strokeColor=none;fillColor=none;" vertex="1" parent="1">
          <mxGeometry x="608.28" y="140" width="60" height="30" as="geometry" />
        </mxCell>
        <mxCell id="Ybopkq_XPydpxg8CJSxO-26" value="" style="group" vertex="1" connectable="0" parent="1">
          <mxGeometry x="565" y="470" width="130.22000000000003" height="98" as="geometry" />
        </mxCell>
        <mxCell id="Ybopkq_XPydpxg8CJSxO-15" value="" style="shape=image;verticalLabelPosition=bottom;labelBackgroundColor=default;verticalAlign=top;aspect=fixed;imageAspect=0;image=data:image/png,iVBORw0KGgoAAAANSUhEUgAADwAAAAhwBAMAAABikNZBAAAAD1BMVEVHcEwAAAAAAAAAAAAAAADTrAj/AAAABHRSTlMAt2YunPNP4QAAIABJREFUeNrs3VtOG0EQBdBgb4CBWcDMwALGNhsw9P7XFASJeCgkxLKrX+d8+tNu6aqqq9o/fgAAAAAAAAAAAAAAAAAAAAAAAAAAAAAAAAAAAAAAAAAAAAAAAAAAAAAAAAAAAAAAAAAAAAAAAAAAAAAAAAAAAAC0ZXvYL8vw6pjeGV8/u1mWw2H1PQHAmYJ3mZ/zNX3TSxQLYgA4PXr3zxXvmE5yHIblTgwDwH9m73xq9H6M4RspDADfcp7s/ZjCvlUA+Hv4posQwgDwZ4dLhe9bCB98ywDwznZ/3rbz1+3ou9W3DQAv6bsMKdCwyGAApO8cmr6/m9EyGADpm4MMBqDX9N1nS99fGWwwGoDuBE1dyWAAeCt+5xLS93UuWisagG6K31QUZTAAHRS/uzEVZ1j8MAA0Hb9zgfGrEw1A2w5DKtgw+YUAaNC+6Ph1GQxAm/E7pgocRTAA4lcEA0AX8SuCARC/IhgA+olfEQxA9TZDqpSlJACqtZ1TxTzNAYD4FcEA8C27MVXveOt3BKAq+wbi1zQWAJWpv/usDw1AfeYxNUQfGoAqbJqK35cInvyqABSupe6zPjQAtdiPqUmGsQAoufwdUrMGRTAAhdqNqWGGsQBQ/iqCAaCD8lcRDECZ5e+cumAcGoCS7MfUCePQAJRjTh258XsDUITNmLriYSwASrBL3TGLBUBu7S8fWUgCoDy9tZ+1oQEowZy6ZRYLgFy2Y+qYNjQAeWy6zl9taADy2KXumYYGINwsf10EAxBtO0rflzb06iwAEGcjf10EAxDO9a+LYADiuf51EQxAONe/nz2uTgUAl+b61ygWAPLXKBYAPTB+ZRQLAPkrgQHogfFnw9AAhDP+bBgaAPlrGBqAHhh/NgwNgPyVwADIXyQwAJdwJVqtIwEQzvqvBAZA/kpgAOQvEhiAS/D8lUexAJC/EhgA+YsEBkD+SmAA5K8EBgD5K4EBkL8SGADkrwQGQP5KYADkLxIYgEjen/QqJQDyVwIDIH+RwADIXwkMgPxFAgNwmiuZeV6TMwXAv20kpgQGID5/R4EpgQGItpW/F3BcnSwA5K8EBkD+SmAAuncvKS/l0ekC4Cv+gOGC/DEDAF/wAIcHOQCQvxIYgB54AMs6MADxPMARMAotgQH4xAKSZSQAMpC/MQnspAHwngVg68AAxDMAbRQagHgGoANdO28AvPIPwJaRAIhnANooNAAZyF+j0ADEMwBtFBqAeAagjUIDEM8AtFFoAOJ5ATrTNfDk7AH0zAC0UWgAMjCAZRALgHgGsAxiARDPC1hexAIgngtg18AAZCB/vYgFQDwXwK6BAYjnBQ7vcQAQzwscBrEAyED+ugYGIJ4XOLzHAUA8F8CugQGI5wUO18AAZOAC2DUwAPFsABflyYkE6IMLYNfAAMTzBHRxTejVqQTogPx1DQxAPBfABfIoNEDzbCDZRQIgngtg18AAZHAv68p042wCtMwGkl0kAOJpQBdsdT4BmqUBXTD/iwTQLBtIdpEAiGcDqfBJ6MkZBWiSC2APYgEQTwNaExqAeBrQFZicU4DmaEBrQgMQTwO6Ck9OKkBbNKA1oQHIQANaExqAeBrQJqEBiKcBrQkNQAYa0JrQAMTTgNaEBiCeBrQmNAAZaEBrQgMQTwNaExqAeFt5Vl8JPDm3ANXTgK7Qo3MLULsraVajaycXoG5bBXCdTejV2QWo2r0s04QGIJwGtCY0ABloQFsGBiCeFeCKPTm/ALXyBmXVJicYoFIa0JrQAMQzgWUOC4B4VoAtAwOQgRVgy8AAxDOBZQ4LgAw0oM1hARDPBJY5LADimcBqxOosA1TFBFYjvIcFUBUTWOawAMhAA9ocFgDxTGCZwwIgngmspkrg1YkGqMSD1DKHBUA4E1jmsADIwApSYzwJDVAFE1jmsADIwASWVSQAFMAogQF6YAXJKhIAGVhBsooEQDwrSFaRAMjACpJVJAAUwCiBAbpgAssqEgDxrCBZRQJAAYwSGKALOynVslsnHKBM3uBovARenXGAIj3IqLZ5jQOgzAJYQrVOCQxQonsB1TqvcQAUyBscHZiccwAFMEpgABTASmAAcrCC1McqkpMOUBaPUHbi2lkHUACjBAZQAKMEBkABjBIYQAGMEhgABTBKYAAFMEpgAE7ibwiVwABksJNJfbl15gEUwGQogdef7N1rdtrKEgZQ22QAyDAADAxANgwATpj/mK7jJDd+YevRqpbUe/+86651FMmtT1WqFv7qARTAKIEBFMAogQFQAKMEBlAAowQGQAGMEhhAAYwSGAAFMEpgAAUwSmAAFMAogQHyUwCXWwL76wfIx88gFWzp7x9AAYwSGEABjBIYAAUwSmAABTBKYAAUwCiBARTAKIEBUACjBAZQAKMEBkABjBIYIJM76cPlsrESAILthQ+Xy39WAoACGCUwwOwdRQ9KYIBwC8nD7zGs2moAUAAT76fVABBYANuDhBIYIN6j3OGvpfUAEEYBzL8S2HoAiOIrlCiBARTAKIEBFMAogQEYxl7k8JqPcQCE8BVK3tlYFQABjgKHt3yMAyCAr1DyQW1dACiAUQIDzJE9SNiJBBDPHiTsRAJQAKMEBlAAowQGYBh7UcNnfIwDYFD2IGEnEkAG9iBhJxJAhgLYCBbXxrCUwADDMYKFMSyADBTA2IkEoABGCQxQBHuQsBMJIJ49SNiJBJCBPUjYiQSQgREsjGEBxDOChTEsAAUwSmCAItzJF76zsU4AkjOChTEsgHj2IGEnEkAGRrAwhgWQgREsjGEBxDOChTEsgAz2ooUmfBAaICkjWBjDAsjACBbGsAAyMIKFMSyAeEawMIYFkIERLBrzNSyAZIxgYQwLIAMjWBjDAsjACBbGsADiGcHCGBZABkeRgjEsgHgShXasGYAUjGBhDAsgAyNYGMMCiGcEC2NYABkYwaK1lXUDoAONHjTABBnBwhgWQAZ7YUJ7/1k5AP34HQY6qa0dAB1o9KABpsYIFsawAOLZBExHG6sHoIejIKEbv8gAoAONHjTAtBjBwhgWQAZ7MYIeNEA8KUJ3tQUEMPYO9Lmq7p9VVSW2BjzH2+1u+7StqqA3+3rQAOPuQJ/vD6/+m4dtVD4UFb67N+Xo00PEf9XnKAE6WuQqlJ4eZPBQDzh//NCDBii+A/3pbfpJMzqNapfv2p6sIYBOYsrQa/tFF8rgBMVvnbO7YSswQCdBn6G8/qZw8SiC+8Vv7qerjVUE0MExJiZOXx2DKniY+A0KYFuBAboYx2aVB1HaydXmc+TjlR40QAdRP4T0TVDcLERwh9Gr785q0ITdxjoCaC2oA31p8CigD92y8NyN5flKDxqgvaDUa/S1BkVwyu7zb1lH3AG4KuozlM1qpIUiuHHmbcb0gLW0kgBa2gflRdM79KNoTVj+3kS9YvA5SoC2ogJj0/SAvAlO9PY3tMVxri0lgFbCfgipxQ3am+CUcRd0hZfWEkArUR3oVlM6j4rgr9vPbU5m0E9t6EEDtLKIyox292dt6DTt5xdB57K2mgBaCOtAn1oemDZ0sretQU2OpdUEML6bc4fbs2noBO3nFzFj0HrQAG2EdaA7fKtQG/ozq/F2OWrrCWB09+YmH6L8+HQggT/YdTiPUR/7XlpPAI2FdaC7fapQAr87i5suZzGqzaEHDTC6W3Pnm7NRrF7jV8HPMbUVBdBQXAf61PEIjWL1z9+wAF5aUQANhXWgu9+bJXD38ee/gsag9aABmorrQPf4wfY70dszf0f5uVGAosV1oPvcmm1H6pm/cdd5aU0BNBLXge71e+0SuNP23wydDj1ogHHdl/vemW0IXvW70lNodAAUJLAD/bPno8Ja/vYRdvqWVhVAA3Ed6Mupb7G+lr9TuNJ60ABNQi0wQnpXRiUncO/8vfmhBw0wIoEd6B67kCTwakqXemldAXwrsAN9SXC4pSZwgvwN3EutBw3wfaAFhsg5yQGv5e/4r3VtZQF8I7IDnaYuKjGBV2ku9oTe9gPMXmQH+meaQy4vgRPlb+DvOupBA4znnny5nBIdc2kJnCp/I5+2rCyAr0V2oNP1JctK4GT5G/Z7SHrQAGO6JafYhfRXSd+Fvk93tafz0TOA2QsNsjrdcZfz64Qp36YGBvDZ2gIYT45N98jzOU/1pG2sLoAvHCebJTePZeRvnfKcRW761oMG+EpoBzrx1pRH+Tvm660HDfCF2D5u6proYf75u5nwA9fG+gK46kdonJxSH/7sEzh5hu2nfLkBZiR2M89y4scfLv0Ji3znrwcNcNVi4vXczD/IsUp/xUNbHrUVBnDFbWygDHBDnnMC30/9ii+tMIAr9rGJMsQ/Yb7bgc+TP11+kAHgWvk4g0SJq+nWl3W1Xl/OE92AlOOS19YYQN7sGnQoZ7DtwOeqqh62u93hcHj/33z+n56224fn/8N6Uvkb+YvAetAAVx1jA3iojuRD+uC93x4aB+BzFD8n8VQ20Ya+M/cxLIAR3IwHvB2n+3dU1XbXsfRcPKWM4dUsrrmNSACfip5fOg31D0kyCv2cvYf+h3LYJmlKD5a/wXN3G6sM4BPBHegB3wj2/HXgc5LsfVMLj3Z8+DiPpgfApK1nE8A9xsnO1f1hiCPqE8JDDWD9EvolDj1ogE8LteiNrZsB/zHdRqGr+92QJ/ipWzv6POSJmv63VwAm7zY6gAe9Gbd/t1ltA9Lh0KEQXs7oqi+tM4AEkTXCD2H9s27XeN6F1WaLlhm8GvRogifvfAwL4KNZfFrxVc41T+BqF3yqF9tqLJG1mNVTF8AU3c4sgJvWdiGd58/q4GYPCOehj+6iBw2QV/QmpOG7kQ0Gsc73db4zftckgzdDH8Vcvr4CMFnRm5ACbsX7sbWeP5TBT1X2gnE9r74HwOTE/4zfKe9DRdbi91UGf1kGr/KeIx/DAhje7RwD+PoXsbIXv68i+HGds1yMHn5fWmsAWe/DMXfiK48V4yh+/7nSiT5HHGb0u38bkQDeuswygD8bxDqPLX5fyuAqV7f2R/R1t9YAGpSK038ZuJ5C/L5E8EOGF8A5rvzSagN45RgfwDFB+PZ7HOfViK/Bu3msoF5teADbiATwVaE4n+/y304kft9Xwef482MjEkC4+E1Ice8CH//ffJ7AhfgXwZvZXvqN9QaQrwyKLIT2k4nfVxEcVqzHB/DSegN4m1FzDeBfr4HHOnr16fFWkZt1wn8G2kYkgFcucw7gm7spxe/LAVf1nK+99QbwV4YOtDqo3IevpZMO8MdRAJcrfgD+5KQDZLsH2w5a8MW3EQngj0WG/FUGFfz0VTvrAC9uBXDB9l4CA+SS4xWwm3DBAez1A8BvawHs8ctLYIBwOb5DKYCL7n9snHaAm0yvgAXwWPxw8QEy2WcJYEVQwQFsEzjAL2sBrAHia5QA4fK8ArYXtOgA9vgFkKcFKYALD+CT8w6QqQMtgIsOYBuRALL8FKG3gCNy5/IDlFMAuQOXHsBLJx4o3lEAC2BfowSIl+kVsJeAY7Fw/QHKuf26ARf/F1A780DhbgWwAPYSGCDeUQALYC+BAeKtBXDp/AEAlFP+uP8WH8BeAgOFuxXAAthLYIB4uV4B+0G64gPYS2CgbGsB7G9ADwQgXLZXwALYQ1jt1AMF+x9793brug1EARSyXYA/VIA+VIA/VIADuP+aggA3yQ1wch5+zaZmrRJMglscDulJADM7BAZ4u00AMzsEBmiz9gpgk8AhMNBZ3RGwABbADoGBxiYBTF0An/32QFubAKYugB0CA5Zei69Z4BAY4H0Kj4DtgAWwQ2Cgr0kAUxnAZz8+0NQmgKkMYOcQgJXX2msaOAQGeJubHTCl32F+fKCngwCmNoAXvz7Q0kkAUxvAV78+0NIqgKkNYLMAsPBaevuqnAZ+faCj0iNgDbAC2CEw0NUkgKkO4LOfH2hoFcBUB7CTCKCjWQBTHcCmAdDQ8SaAKZ8IFwMAtDMJYOoD+GwAgHY2AUx9AHsTHOhnFsD8xXU0gPe6FTMCAtg8ADqaBDAJAXw2AkAzJwFMwqeYAAa6WasD+GIMBLCnOICGZgFMQgDrwgKaOVbnr2f4BbAvMcCqK4BNBYfAAG+xlQewdTdEdTuepziAXmYBTEYAOwQGerkJYEKKIYYA6OQggEkJ4MUYAI3U92DdrkYhw+pTDKDRoiuAzQVPcQAd1fdgaX41F3RhAf3UP8Nh3yOAPcUBNDQJYHIC+GwQgDZOAQGs8BhCOwDA+6wCmF+OiiEA7zMLYH45mAoAnTY9HkASwLqwgH6miAC26poMurCAZraIAF4MhAB2JxzoZRbAJAWwQ2BAAKs7tpNwJU0/ANDE4SaA+dumGgLwLhk9WLerkUiw+hgDaLXn0XkTYjYXAFotud4/Mht0YQHd3AQwWbNBAAMthPRgWXQjZLyKpgsLaGESwKR9jp2NBNBASA+Wtyh9junCAnqZUwJ4MRYCWDkEaOQmgPnHKWQyGAlg/w4xAXw2GPU2X2MAbzLFBPDVYNRbfY0BNNvyaLyJMJsMAM22PF7iEMAmA2DF1fna1NFkAOi24lpzE+S05F0MBrBzOT1Y1lzTQRcW0MgpKIAXwyGA9cQDXaxBAWzTUy6nJ14XFrB3c1AA2/T4HtMRAHQR1IPl7qfvMR0BQB+HpABWdSynIwDgTZKaoFUdFUR0BABtbEkB7C9wFEQcSABdzFEBfDEgCiLqIUAPUfmr6ljtpB4C8B4HAcxvkm6F68ICdm3KCmDHfsVmn2MA73HKCmDHfsWiZsPVeAA7tgpg/hX1LItr4cCuZTVBa4MuNvkcA+i449F3I4B9jgFNHNIC+GxMKm0+xwBa7ni0QRebfY4BtNzxOPYr5nMMoOeORwDXOpgNAF0DWN9NpUkAA7xHXBO0Y79SJ59jAD13PF4/qrX6HANoG8BePyo0C2CA99gEMMkBrA0asODa8/gg04UFsOMAtuJWOpoOAD3XWxtgW2Bt0EAHkw0w/+FtcICmAazpptgsgAHeIK8J+mJQfJP5IgNsd9xBMiecSQB0CODFmNgCC2Bg/1w6IX5SXAwJYLOj46aFzZwA6BbAf9jtBDgIYIBmex0drxlmkwLgxVYtWKQXRjTGA7Y6WrCaOM5mBcBrF1otWHwk62jiYkCA3TnYAJM/MRYDAuxOWBO0bpsYs8IIwCudtGCR/2l2NR7A7qwq0HwoqjtAGzSwP1lN0GcDkmPzZQbwQt785X9E1aANB7A3WbeQFBpVR3yaAXY5KtDdnUwNgB4B7KAvy0EAA7xM1HtHLgGHmc0NgFeJuoW0GA/1Ee0BgD2OCnR7R5MD4FW8dsQYBRKDAezLQQWaT0xmB8DuF1hFRhUSbdBAHycVaD6zmh4AL5F0C+liOJRI3EMCuphVoPmU+QGw9wA+G41EqwAG2PX+RgU6VE4N2lgAe3JQgWaUb7TFWAC2N5pcG1mdUQA8X9AtJPsbH2k+0YA+NhVovhDzHrR7SMCeeGaBYSaJ/0MC9mRWgeYrkyIJwNOpQPOlmBq0oQAsrc731EncFAd4QM4tpLPBME1MEsDKqrrIbw4CGODJYq4Ba3CNFlKDvhoJYDc8csR3bD7TAHa5s9FeEy7kqEKrPCCArazNmCYATxVzC+lqLLKtCiUAzxTzZ4SLscg2mScAO1xWlRbVSvTqAQJYdysfmAUwwBOl/BmhddVU8WAp0ErKNeCLoVAsUSoBOgm5heQIeABmCsD+Alhh0VwRwEArKdeAz4Yi38lhBcDTpFwDtqqaLC4CA6144ZfvUywB2FsAOwIewiqAAZ4l5BqwRdXnmo81wJ7GETAfizgEdhEY2IeMW0iOgE0XkwWwoqoqklwwEcDAPjgC5gcibgIbBmAPQq4BX4yE+eIiMGBBVVQkuWIigIE9yLgG7Ah4GKsDC4CnyHjd14o6jIR741fDAFhPHQErmSiYANwj4h0OR8DjSPj3LC9xAHsQcQ3YgmrG+GADLKeOgPnMJoABniChoOhayVASDoGNAjC+jGvAxsGU8cUGWE1VFPnULIABHuf/XfmpgMb5s1EAhhfxDofl1JzxEgfQTcQ7HItxUDVRMwGa8feu/FRA57yL48D4Eq4BW01NGt9sgLVUPZH8sokABsanB4sfC+jCMgjA6CIewroYh7FM5gzAoxLe4VBO9NmmcR6wl9GDxddmxxYAOwhgPVjDWQUwwIMSHsKylpo2nsIC2kl4CGsxDAonyiZANwkPYRmF4dT37mkcAEYX8A6HJugBmTUA4wewYqJ5I4ABOxk9WHzH5uAC4CFHAcw96ruwLgYBGFrCQ1hWUgGsdx6wjjrMY4zSicIJIIAFcEezAAZ4RMBDWJqgBbCnsIB+Ah7CspMxcwQwYBkVwHxP+eGFp7CAsQW8RHkxCgJYAAPt1D+EpQdrTEcTB0AAU8DEARh5FdUE7dvNW5RARwEvUV6NwpjK2wcuxgAYWMBLlGejMKbyK+SLMQAEsGW0ocnMARh4EXWS5+NN7QQQwHpZ+b6jAAa430kAc6/qNuirIQAGVv8SpVtIAtjUARqqf4nSNsbk8RYlYA11kMf3nQQwwN3qX6JcDMKoqjv4tA8AAthzRi0dBDDA3VwD5m5Hcwdg2CXULsbnm+oJIIA10vAjswAGuFP9U9Ducg6suod+MQTAsOpforwahHFVP+NyNgSAALaGdnQyeQCGDeDFIJg+AhiwhdFHw0ABfDUEwLDq/4vBGAysuodPBx8wrvKnoF0DHln1LTZ32AABLIB7mgUwwJALqCXU/PH5BlhAtdEwWAVFAAMC2EWSnjYBDHAf73DwiOprbEYAGNVRAPOI6ovAF0MADKr+vxisoALYO2qAABbAjDWBBDBgA6OLpqWjEwz+ZO9ujlzVoSiMFj8BeOAAPCAADwiA7nb+Md3hm3S/MmDD2dZaKUilz8JCAAKMAAMIsAC3QYABNjn9Y0guwgp38ovkixEABNjnbARYgAGedfrXCC2g4SY/4AACl0//4fkJ5y8MQIAFmPVGAQbYwrcYiA6wU/SAALvJqE2dAANEBvhuDARYgIEGnX4VtCEI15tAAAKMAANkOP1zwJ4gmkL+wwCsngJM3EMUAQYynf45YK9xCrBj9IAACzDrXQUYYL3Tv0boKl8BdpMLIMACjAADtBHgxRikmwQYIDDAls94sxkEsN4owGQH2DMUQIAF2BwSYICM3YsAC7BjfIAAe4uTLToBBlhvEmCyA+wqF0CA3eQrwAIM8KSrAJMdYJ/zAATY11zb1AswgAAjwAACbPUUYFMI4HcPAWanwUMUAAFGgAEEWIBNIgEGKLl5EWAB9iYbIMBuUUCAAY7RCzC7nXyU/mYEAAEWYAEWYAABRoABiurODrBvyQnwXhcjAAiwAAuwAAMIMAIMIMACLMACDFAmwIsxEGABBho0CjC7TeYQgAAjwAACbPEUYHMI4DezAJMeYAf5AAEWYAEWYICMAF+MgQALMGDpFGDyZpH7xAFLpwCbRQIMIMAcZBZgAAHGDhggwFWASQ/wlxEABFiAmzQLMIAAI8AAAizATfAIGkCAEWAAARZgARZgAAHmTfwHDCDA2AEDJHgIMOkBfhgBQIAFWIAFGECAEWAAAf7dYgwEWICB9gwCTH6A74YAEGABFmABBhBgBBhAgAVYgAUYQIARYAABRoAFGGhJL8Dsd/aFpjdDAAiwANsB2wEDJAT4xyDYAdsBAwIswAgwgAAjwAIMCLAAI8AAAowACzAgwAIswAIMEBXgb4MgwAIMtKezAyY/wBdDANgB2wELsB0wQMIOWIAF2A4YEGABZouHAAPEBfjLIAiwAAMCLMAIMIAAI8ACDAiwAPO7QYABBBgBBhBgARZgAQYQYAQYQIAF+GP0AgyQF+CHQRBgAQYEWIARYAABxiwSYMDS+SZ3o2AWCTBg6RRgBBhAgDGLBBiwdL7HzSiYRQIMNKcXYPIDbA4Blk6LZ4tGO2CAwB2wxVOA/YgD7IAFGDtgADtgIsx2wAB2wDQYYHMIsAO2eLZosgMGCAzwYhQEWIABARZgBBigiQD/GIV0VwEGEGAEGECAn/FtFARYgAEBFmAEGOD9hvMD/GUU0vmkJYAAI8AAAizAJpEAAwgwAgxg7fyPUQjXCzCAACPAAAJs9WxCZwoBrCfA5AfYGAAC7BYFARZgAAHmCKMAA0QG+GIUBFiAAQEWYFaaBRhgvasAkx5gd7kAArzJYhSyTQIMIMA0OIcEGLB4bvJjFMwhAQYsnsf7NgrmkAADFk8BZiUf1ALIDLDlU4DNIKA9kwCzz+AZCoAAc7xegAEyA+weIwEWYECAfY+QlToBBggN8M0wCLAAA62ZBZj0ALvKBRBgX2No0CjAAAJMi1NIgAHbF19jaNBkAgEIMMe7mkAAoQH2BFGABRhoTlcgwN4iEWCHCAABdhcl6zjFByDAHG8QYAAB5ni9AAOkBtjXGARYgAHLp68xkPYT7mYUAAG2gAqw+QMQE+CLccg1CjDAFoMAs8vsLwyA2AAvxiHXJMAAsQF2F2Ww8y/CcooeyFQhwO6iFGABBgRYgAmbQAYBsIFxFVZzBtMHQIA5Xm/6AOQG2DNEARZgQIDdpMAKnQADbDMJMDsUuAjLGT5AgF2F1Z5ZgAFiF9DHYzEOfsC5xwUQYEsoT7uaPQDBAfYQUYA9PwFaM1YIsHOssfyBASDAHK/CxzwuhgGI1FUIsJs4UvUCDBAd4LuBMH0EGLCCuokDAQZ4s75EgK2hoWa/3gAEmONNAgyw0VAiwO5SCFXhWx53wwAIsJs4BFiAAZ5UIsBeBDZ7vMMGWEIFmCf15g7AZtcSBb4biESdAAOEB/hmIARYgAEB9h4STxkFGGCzSYDZqsI9HE7QAwLsRWCPTwQYIGoTYxUVYL/dgOaMJQLsj7xIFabOYhgAAXabQmN6AQbYrsb3CL0IbO44vwdYRL0IjAADNBJgy2ig2cwB2K7GB4Efi5HIM3kPUqisAAAgAElEQVR2AhAfYC+TBCpxi9rdOAChanwQ2HtIiRzfA4hfRQXYbzcvsAECbCPDMzq/3AD2qPE5JGdpBFiAAQH2NglPmAUYYI8an0N6LEbCzPEZD8AyaiEl49mJeQPkqvE9Qo8S83iBHGCXIp9D8jpJmt5fFwAfEeC7ochS4xbxi4EArKNWUr/cTBsAAebNJtMGYJciX2NwmiZNjRfIbwYCEGDHoNvi6ADAPoMAk/vDTYABOxlLaVuKnB0wEECwIpdBO06TZfTcBECAOd4kwAAfEmDHoE0bV0EDtjI2M/w/3/AA2KvI1xicp4nSe2wCsFeVy6DdqZCkyCHoxUgAllKnsDw3MWcAIgNsNxNkEmCAjwmwAzVBrv62ANirymXQjkEHqXKBqQAD1lKXUXpsYsoArFMmwLYzAuzVNaAlVa7CcqImx+RfC4APCrBbFcwZAQbsZiyn/KnKuQEH5wEB9o9eU3rPTABeoMxl0E5hpegEGOAFylwG7RSW32wuTwNsZ2xo+NPVLzaAjwqwU1gZBo9MAF6hzF2ULjYyYxwaAOxnLKj8ZfSDDeAl6gR4MRgJyry4ZiiAcGWuwnKxggnjzABgPbWi8rvBdAF4jTpXYflTL0HngQnAa9S5Cst7JQnKnMHy3jhgQbWktqTMXxaLsQDC1bmJw796CTwvAfi8AHuxpL5egAE+bkV1FYffayYL0JBCV2HZ1NRX59D83WAA6QoF2Jsl5V39XwH/2Lsb5LaNHQDAlugDUAkPIDs6gGTzAHKH9z9TM9P3ZpImbcOIP1jg+y7gGYNcLLDgCvItqaaw9Es8K4AErK3Ij/x6JcByAl2F5RA4utFxBUDCNdVVHNolHhWgkEBXYekrBhdoZP4uGkDzIt3E4RDYs+K0ArCoWlb5m0DHFWfRAJoX6SosJ3uxDRIwwHIiXYXlENij4h4OQFnjEJjv+eUsgLwJuBePuEYJGGBJkW7icL+CrZrnBFDXqGz4VqRxPdN6QAaRbuIw3RpYpA/W7sIBWFcdAlfh1nCAzAnY4V5Yg0YJwKJC3cThA0/Pic/VgDImPWj+27NtGsDCQn0IbL7VY2JYHrCyWlv5P1eWAizuEqsHfRWRiELN6hnVA3IYYyXgXkQ8JT4DBkqIdROH6iYmV4YDLC7Wh8AmXEM66pIAJF9bra7aJO7hAIrogiVgHyIFFGtU/iogQA7BErBvTGzSPCGA6kaDkadocwISMJDFRQ+alh4Rg/JAFqMeNP+qs0MDWEOwD4HN2IQT7Eu1XkQAy6uLjkq4SMAAa4j2IbAedDSm9ABWEe1DYD1oLRJ3pQEKHD1GLhokAOsY9KBpZ4Pm6QBUOHrQJUTrQPsMGMhj1IOmnf3ZXUgAJY4uYwV2ZwB1ErAetKdDAgYKOMZLwHdRieJicwawmkkPmn8Q7ytxMQESGeJl4LOoxHCwNwMolYD94o1nw1dIQH6jHjQ/19maAazoOV4CNutqb+bBAPIL+B2STmMMgwQMsKKA3yFNH1dx8WQYzwOS6yY9aH4m4HSAoACpDBFLYGGxM/NYABKwXmNFAYcDzAYAuVwiJmDfm9iYeSqA7CJ+h6TZuLuIw3l3YQFSifgdkjGs3Y0eCoCCpY4SeG9dxNGAs7gAuZbakAnYYqsv4iskILuQY9AGbjwUuiKAtdZqW03IcwlfIQHZjDF70L3IeCY0RYDUniclMN/pbMkANhDzOyTr7Y5uHgiADRyDJmBHfruJORZwFRggm6AJ2IKrJ+IrJEC9Y+jGA2EoAGBhl6AJ+EMJvIugZxKOJIB8xqg96F5sbMj8FAOQWNQxaE1HBbDtGCABW3M1RNwODrCsblICE/5puIoNkM+gBCZ6AWwzBkjAVl0FsCFogNRFjxJ4e7eoT4KvwoGMniclMH8VwIOtGMB24o5Bm31VAEvAQOayZ1ICE7sANgQN5DQpgYldANuIATkNSmBiF8AeAyCnS+QSuBcfBbAhaCCp50kJTOhZANswIKfIY9DW3s2MHgKAjR0nJTCRC2BD0EBWkxKYi00YwOYGJbA2iEcAQPHzN59FqPgzYAgayOo5dgJ2Arg+g3gAVt8f+S261Q0SMMAOuuAJ2IWUa7tpgQDsInoCNoSz8g7MGB7APoboGbgXozWNsaPvCAKwAO9XA10FaT3H4NE3BA3kFX0KyxpcugGi/wFIwOawRF/sARbUxU/ABnFWC374CYCrIAF5DfEzcC9K67jYewFIwOqgzcU/fjAEDWQ2NpCArcNriN+Anu6iBCiDNKFtvcQdYEnHFhKwj4FrBv4sTEBmLSRgTejltXD4L0qAhVgzMptbC40PYQJSu0ya0PU0cfTvEjQgt+dJE7qcbtD2AFALWY21PcxgARWLoUYS8IfluNqm6ypSQG5DKxlYqBZyHAQcIIBLIwl4+ixWpbZcjv2B7MZWErBj4GXcGgn3XaiA5A7NJGDfIpWKt/0WkN1xaicDi9bj4W7lzN8MFpBfOwnYMfDjBrstAEuytuTmmhm5M4MFFDA2lIBdzvCYWzuRdhElkN+hpQRsEOsRR80OAKuyo8HNtXEFtF4HUEdTCXj6JGAV8q+NFlDB0FYGNgr9my46HQCxjG0lYKeDv+elqSCbwQIqODSWgB0P/o6bXRZANMfWErBR6PT51yYLKKGbZGBdjmCEDChhkIE1OcxgAWxvnCYLdOr829wWywwWUMNhkoEz69prcfSiBtQokBpMwC7kyJx/zWABVbSYgP1cTuL8q78BVDFMamD51+YKYHPjpAaWf81gAWzuMMnAOR3bbG70IgdUWaYbTcDOCnPm3+kqdEAVU7MZ2FKdMP/aVwF1DDJwQm+tBtXRAlDHOMnA6dyajeld8IAyFp/C+jh9tU1d/XEWv595aXdT1YseUMaSP4h0en3/WpR2T9fu6en99bTBev1ZAFPlXzNYQCVLFasfX35YPDfIwTLwDzuqoeH8awYLqOSyzMr580z4tnoKdinW944t518zWEApz+vOQ72tnRCMYn3rMDWtF0HAkr1cElz7SNIo1nb/67UJJVBJt/q6uXpX1EHw/0I5NJ5/JzEEShlWT4CrJ4ZPV2Fs/fjXDBZQz+NXcfx3+tOGXl/r7efJTyEB1Tx8CPwro6ur381UvQ3dfvvZDBZQznGTZXP1DHy6Vg7iW4b86xoOoJptRldXz8AfdYvg7iVD+nUEDJRz2aZuWf8XAqrOYuUof13DAdQzbtQ4XD8DlyyCk5S/X929i0Axh40S8BZzuvVOgrOUv67hACqWUJuNzlw2WMVrXQ7dnaY8vIpAOcNWhcsm38pU+ib4JVH6NYMFFPTgIXD/639pm8uaqgxjJeo+u4YDqOnBQ+D7dn9KH/qbzcxpyqX3JgLlPHgVx6yvR24btTO/JI9Z9zJlc/UmAvU82Mrc8m9JwUnTryNgoKQHp5PPG5bbcz5JypqCu5chX/51BAyU9Lzl0nmYpGDp1xEwwAJV6czm4Zb5I10Kzpp+XcMBFLXp2tltuq6nOgvOePbrCBgo7cGqaubx3W3jpT3Ld8Fvpykvv8QA1PTgVRxzvyDZuouaIgW/DlNmd28hUNKjg1H9vD933H59b/wwOO/RryNgoLZHj2XnHuCNO6zwDZfBr6cpPS8hUNSwbQnc7VPPnV4bzMFvBbKvGSygrnHj9fOw10LfWCv6PX3r2REwUNzDCXFmCfy0Y145fWmkDn6rkn1dwwEU1k1VSuBWcnCl7Dv5JQagsIdX+88z/+Bl5xX/9Ok97nbo7VQq+zoCBip7eC75Y2YNcwyw6ocshN9eTlM5fokBqOvxlvDcq4wuIVb+06dISfj9tVrp6wgYKG+BC5rPzZXAoZLw+0vR5OsIGCju8cW/hds44p5B3qbCHAEDlS2QDmce5HWBMkC/fwtiKJyAHQEDlS3xXdC51RL4I0kAHAEDtGeJenTmJHScU+BzhAgULoGv3j+gsiXW/5mT0FFK4Bi/RVu3BHYEDNS2SDacdx3HUQGsBHYEDJR32CGXXRTASmBHwEB1ywwlzzsGPlr/lcCOgIHylln+P3b4m1lOIIuWwI6AgeoWGoma1dA9KIC/bULULIEdAQPVLZUMZw1iDeqv5fdAjoABmrLYzVRzMvDB8r9GCBwBA7RksWr0PCPlDJb/b1wK5l9HwACLNUDnjELv3XX9I1QIKo5hOQIGOOyR1fb+EukcKwYFx7B6bx5QXrfLorpv1zVa/7PgrxJ68QAWLL9mNKEPyq91NkGOgAGaseB57IyDvV27rtdoMSg3hnX33gEsWoye90j7jY9g7d8QcAgPsI9dUtueXdc+XAjK3YblrQN4Wrb/2e/yV9tf/cda+fcPbx3AV8+7DNccrP4h/ht6EAC7Oe6ytO7XdQ25+tfqQZ+9dQBLL/6/XgLv1nW9RoxBqR60j5AA/nLZpb7c6zasmOePpXrQ7qEEWGHx//XqZqeuax8zCJV60L13DmCFWvSXV9edLmC8FmhDBHf1zsGf7N1dcttGFgbQkNACQJkLgH4WAFlcAOlo/2uKPVOeqVQcCyQb6L63z6nKQ57oAgR8/C66QVihfS2uwHW2Are6A6ajGbRHwAA/nepU4CpT17HRc9DR+6A9AgZYp319q/Ox0cef/cygJ1ccwDrta6rzscHHn/3MoF1wACu1rz/rfGzw8ee+l/z1HkqA/3uoM+atUPrGdk9CLxuRRtcbwFrt68vCj60wg274JJw6CeDJ9QawVvta/KB18xl0y+PPTh4C24QEsGL7GlvNnHPD56CTjUg2IQGsmIRLi+Zg/LnaGMIjYIAIhkpBdzT+XG0M0ajZ1QawYhIuXYb1sO3Nv+0dMF08BLYJCWDVJFxaNTfe/HruagxhAg0QwL7SfXbbGfTU1RjCJiSACI51Jo3bPvds/Bx08BDYJiSAtW/+c53mHfru38FDYJuQANa++Z/rNO/Aj4C7eAg8utIAVr75L22bJ3f/Ot9G6nChAax+85/qNO/QW1BfbUIC6E/pJFz6tG+71tf+AqCH7AE8us4A/mFfKe5O6leVcYDXYAG04lin7WwXOufmT0H2VVg2IQFsUUWXFs7NZtBTf1+CbEICCKB4Fa0U/JHnn8lXYU2uMoBfqbTiZm/++T+5V2GZQANsU78am0FH2AKTexWWCTTARnf/ednnvlmD9VPuVVijawxgm7v/WOlzA9/+U6/Cml1jANvc/ZcOfV/d/rc9FF6DBdCWWjPoTZ58xlgBdEocwKMrDOBf7Gvdco8CeMvvIibQAK05Vgq9LXpfjCW4+7z5axMSwIZBuLD0bBE75xinIG8An11fANsF4Vipesd9Apl3GfTk+gLY7va/dOHrBo8+5xhnIO0yaBNogN+pNYPeoPj1ega8BgsgguJNdGwldy69ngGbkABCqPXyhdXfhhXlLRBZl0GbQAP8XvFHkHOtDw66Bjfr26BNoAF+r9oMem8Cus4MwgQaoM8Ctnj0u/IyrCnKGUi6D8mlBfCJ0qPgxc/+Vl59NPd6AtrghxgANs/BsY3qF+YE5NyHNLqyAD5RfAa9ePXNqhU4ziLcnPuQZlcWwNZF9FLtk2OOQFMGsAk0QIUAmFqInji7YFJuBB5dVwCfKj6DPrdQgc9xToAJNECn6s2gdyrYHyn3IZlAA1SJweX1Z73smQSwCTRA44Z6t9+dGWjKjcCzqwqgRgX7Vu+jI76IKd9GYD/EAFCnh17qfXTECMi3D2l0TQEsUnwGPS3/7FcBnC+AZ9cUwDKlB8Hn5R+90i7YSMtw020ENoEGqNXBrrkDr/MENNKv0ab7ReDRFQVQq4PNV8TPKuuwzpEOvwk0QLeOFTvQrvsSlmwjsAk0QL0QvGoCfBTAJtAAnRpqlqA1FiFNkY5+sjdxzK4ngHol7KoAfOs8BHIFsPdAA1xjV3UMWX4GG+rg53oV1uhqArjCULUGFR9Cx1oH9GACDdCv16oVdNd1AKd6FZYJNEDdEBir5r8ANoEGCKL0DPrKV1EVfh1HrBqW6l2Us2sJIFQH3deMfwFsAg1Qza5yE3rrN4AzvQx6dCUBXKv2nfip4Iefuz70NbmOAK5WeAZ9fQkt9xj4MsU69HneRfmn6wjgaoVn0NcvRC62EOsyBzv0eQJ4dB0BVI+B61OwUAJ/mzs/8vX4ISSAW5yql6F9iSR6jHfkX7MEsAk0wC329W/G9yfw5UvAI58mgCdXEcAtjvXHkfcmcLTlV6vMHkygAYJ5aOCdSPcl8OMc8sCfTKABulZ4Bj3e9I+4YyVWyPHzCt98vIYSIJqyM+jzxv+KQ9j7/4MJNEDfym4Fvvm1wE9d1d8/0vwc0ugKArhR4ZcS3/zv+Hp9CQ769DdVAM+uIIBbld0PM93+TeBw5fR5Cn3YcwSwH0ICaCUJxjv+JW9XlODDi8NuAg0QW9FlWHftShmWPgm+vIQ/6il+ENgSLIB7nBq6JS+K4MNLgqOeIoBtAgZoJwrmO/81w9PvG/kl9NKrZAE8uXoA7nFs6548fD38e/q+ZDnogwk0QPfemluW8z2D//Gt4HJ4nhMd9AwBPLp2ANrJgmKPBYf356fD4XD5/t/h8fl9znbUbQIG4LXlseSQ9KDbBAxA0T2pDmcvATw6iQD3lsySy7Amx7OPALYEC+B+J71oc8foAWwTMMD99u7LAtioAyB2GphM9hHAzjNACSWXYc0OZw8BPDqFAAUM7swC2PcsgApOAlgAe9QPsL2Cy7C8n6GHAPY1C6C5PLA6p4MAdpIBSim4DGtyNNMHsAIMUMrg5iyALcECqKDcLzJ4CJw+gJ1igHJ2ng8KYEMOgNCJMDmYW04cLMECUIH/6+xg5m7ATjBASYMnhBqwJVgAoSPBDTp1A/YFC6CscjPo0cHM3ICdXoBWS5kXBWduwJZgATRbgd2iMzdgBRigtHLLsCYHM28Dnp08gGZbmRl03gZsCRZAeXszaA3YBBogcipMjmXSBuy7FcAadmqSBuzMAmxvOOpJGvBvT+zs1AGs4WQGrQFbXgewvb0btQbsixVA4Fwwg07ZgJ1WgLXsVCUN2BIsgMDNzAw6YQNWgAECVODZsUwXwF+cN4DVDKaVAtiXKoAKTsaVAthroAG2V2wn0uRYJgtgZxRgVaXW51qGlSyAzTQA1mUZlgD2VB8gcja4YacKYAUYIEoFdsdOFcC+TwGsbVCBBbAnCgAV2IkkgK2pA6hRgU0tBbA9SAAV+E0kAewlHAAV7FVgAexMAgSOBxU4SQA7kQDb2ClOAth5BFCBHWAFGEAFVp26C2BnESBeBZ4dy/AB7CQCbOfNCxwEsHMIsL1iL+PwBof4AawAA2zoVGx+6VgGD2Av4QCIWYFHBzN2AJthAGzqtVgFnh3MyAGsAANsa+8OLoBNMAAiV2C38MgB7Bk+wNZ2H4bQAti3J4DIIaFFhQ1gpw4gcgX++OJoBg1gBRggdkq4j8cMYAUYIHgF9hg4ZgD74gQQPSZUqYgB7HsTQPgKbDdwxAD27B6gjuHoZt51ACvAAAkqsAQOF8B+hxAgRQWWwMEC2BNggHre/K5OvwGsAANkqcB2tYQKYAUYIE0FNoUOFMAKMECiCiyB4wSwAgyQqQJL4CgBrAAD5KrAH4+OaYgAVoABKjvZ3dJjAHtzGUC6CvxxmQSwAgzAZ97K3927H0MfPQEGYPsKbAx9VIABqFGBey/BRwUYgCoV+HsJfhHACjAAm1fgj49Dodv88C6AFWAAFfiaOXSBCP56CJgXRwUYgAV2q93q74zgr4djyD2rRwUYgJoV+Mcg+tZnwcPzIexLI44KMAB1K/CP5Vg31OCvT4fIje2oAAPQQmJcHq9YSPW38NWA7dEGUIHvuu8fnj8P4ffnwyHDe4tbDmC/VwXQX2RcDo/P778sYMP789OvslcAK8AAKnCxdVnfPT4+/8fjj/85ZHto2XAAj/7WAWRG2p/Oa/dgXvylA3RcgQWwAgzAT68COH8AK8AA7dnbuJo/gBVgABVYA1aAAfhhEMDZA1gBBmjSSQDnDuBv/sYB2qzAjeaGZ8CFTP7GAdr0prhlDmC/wgAgOARwBbM/cIBW7QRw3gD2KwwAksMzYL/CAEDzFVgDtgUJIL1XAZwzgL2DA6BtewGcM4AVYIDGnQRwxgD2Dg6A1g3CI2MAT/6yAVr3JoDzBbB3cABIDwFsCxIAv7ITwNkC2Ds4AEJ4/Yu9u0tqHIcCMIqdWUCc0QJiyAJi6AWMu7P/Nc0A011ABfJDbOtK57z2k92q+pAsKQJcVoAdQQKIoRXgsgK8NqYBYvghwCUF2AQYIIrMjiIJsCNIAJVoBLicADuCBKAgAuwIEgBfaQW4lACvjWaASHYCXEaA7cACiCWnfVgCbAcWQD0GAS4hwH4FCUBEBNgOLABOawU4foBdAg0Q0E6AowfYDiyAiLLZhyXAdmABVKUR4NgBdgcWQFBJgCO/ODuwAKJqBThygNdGMEBUgwDHDbAjwACBKUnc17Y1fAHiagQ4aoAdAQYIbSfAMQPsCDBAbDkcBhZgO7AA6jOYzEUMsB1YAOGJScB35ggwQHwrM+B4AV4btwDxDWbAl/LGAChgPhdvBrx0gPcGLUAJWvO5WAF2BBigEIMZcKQAOwIMUIxkBhwowHsDFqAUrRldnABbgAYoyCDAUQJsARqgJIveSCnAfgQJoFqtAMcIsAVogMIMAhwhwBagAYqTRCVAgLcGKkBpWgHOP8AWoAEKNAhw7gG2AA1QpCQrmQd4b5AClGglwHkHeG2MApSpEeCcA+xHCAGKtRPgfAM87g1QgFItcyGWAFuABqhdI8C5BtgCNEDRdgKcZ4AtQAMULglwlgHeGpoAZWsFOMcAuwILoHiDAOcXYFdgAVRgpy65BdgHYIAazH4WSYCdQALgbv6zSAJ8wsaYBKjDIMA5BdgCNEA1kgBnFOCtAQlQi3k/AwuwE0gAvGoE+Ku/T1xBCcBEBgHOI8A+AANUJglwFgHeGooAdZnxM7AA+wAMwB+NAC8fYB+AASo0CPDSAfYBGKBKSYAXDvDWIASo0VyfgQXYFdAAvNUK8JIB/mUEAtRqEODlAuw3gAEqtlOapQJsAxZA1ZIALxTgrcEHULM5NmIJsBs4APioEeAlAuwGDoDqDQI8f4BtwALgrlebuQNsAxYAd9NvxBJgG7AAONabJMCzBtgGLABeTH0jlgDrLwDHNAI8X4BtgAbgj0GA5wqwDVgAvNEL8DwBHrcGGwBvJAGeJcD6C8D76CQBniHANmABMF+BBVh/AfhUK8BTB9gGaACOaAR42gC7ARqAowYBnjLADiAB8IlegJ+1+gvAvHYCPFmAt4YXAPMWONpLmGQJem1wAfBFe5IATzIDdgAJgNkLLMD6C8ACBRbgjXEFwMn8JN+AXcABQAETwNpfgP4CsEiAKn9+F2ABcKZBgF3AAUD4Akd7+pX+AlBCgWueAesvAIsVOFqDbhjgcWsoAbBUgesNsP4CsGCBqw2w/gKwZIFrDbD+AnCVXoD1F4C4Ba4zwPoLwMIFrjLA+gvA0gWuMcD6C8C3DAKsvwDELHB9AdZfADIocHUB1l8AcihwbQF2/zMAWRQ42vOu9BeAEgpcV4D1F4CbadN3ilRVgPUXgEwKHC7Ad9/o709jBYCbzgpTRQG+/lk3RgoAuRQ43qQw6S8A8Qv8K9yj7q580r+NEgAmcOXF0P+Ee9Af+gtA/AKvwz3nX1c959YAAWAiQx1halw/CUBmabriQ/A+3FO2jv8CkFubUvmnkK44CKy/AEzs4s3QEa+mSI4fAZCdvvQ9WBdvg7b9GYD8CrwN+ISN7VcAZOix8E/AF/0cg/4CMJsLtmLF/HWC85+v2xsOAMw3RUwlfwK+4COw7VcAzKsv9hTwyxT/zOVn268AmNtjKncF+sw1aJ9/AVhilpiKXYE+7zron3uDAIAl9GXugX628vkXgHwNpU6AT/8msOVnABZ0Yhl6DPxkLn8GIGOrvswJ8IkpsOVnAJY2pOK2QL/+aWH5GYC8S5XKXKZtXH4FQN768hagn+389hEAeTu6Fyt+qJLlZwDCTYILmCgeWVy3+wqAvHy4mbKMieLHPd6mvwBkHauxmIniu78rTH8ByLNWffds81DUQ3UvDe66h73/YQCynQff7Yt8KgAAAAAAAAAAAAAAAAAAAAAAAAAAAAAAAAAAAAAAAAAAAAAAAAAAAAAAAAAAAAAAAAAAAAAAAAAAAAAAAAAAAAAAAAAAAAAAAAAAAAAAAAAAAAAAAAAAAAAAAAAAAAAAAAAAAAAAAAAAAAAAAAAAAAAAAAAAAAAAAAAAAAAAAAAAAAAAAAAAAAAAAAAAIIanp/u++894+Ggcx+d/6O7vn572XhQA3Kq9z+lNh7O8htg7A4BvxrfrDhcbu8292TAAXGX1eE1831b4QYQB4NL6psP3iTAAnO829f39WViDAeCMyW/fHW6s22gwAHyl7dNhCubBAPCpp+4wmXHjfBIAHJv9Tpjf/6fBXjIAvLfqD9MbfQ0GgHf5TYdZ/Mve3ea1qbQBHG7EBQRlAYlmAahnAaaH/a/p0fbpse3PlwDDMPdwXZ/6yUhS7n+GMFGCAeA/j5nyK8EA8Lb8bYesJBgAvn07dkNu51tPOwDbdnUc1tAePPUAbNhDN6zDdWgAtqs5Dus5WwQDsNH+dsOqbrwEAGzQ48r9HYa29yoAsDUPw/rOvp0SgI05DkWwIQmALWkK6a8Pgid6vJto0WsOzdTf6q7f7JnoKYOtnfXdUIyzQTLeQ5HveK46/wvynYm+zgb0V4Hz2815vvdF/rc6b/OVnPWUHZwJEM5VUf1V4Lxje7nUzbutb7/FF3LWO6nhuzMBrH8VONLYXix1nZqMdZr3SjpvQH8VONTY/nehCyuDmow9F4fBVQPQX/dCBzLzJVzoGvS1mmS+lLHUWylgS/21HzjnummhteZJgHMH+OxkAP1N4ODF2XiAN7ic+0eAYUNOpUA0mGoAACAASURBVPbXHZ2XuyrzzU4nwAIMfOg4lKv38giwAAswVOqh4P66o1OABViAoVa7kvvrjk4BFmABBnM79ofAzdOL3gspwAIMFKHcG6BTBri5a9sfP65rb2r9Y8MCLMACDKEU3t8kw+Sx/fNH3lS5DhZgARZgiOSh8P4mWAH/ld+fCRZgARZgYE270vs7PM89xPf3WFX4N9sEWIAFGALN7K74AO/nHeHHH3FX9y2XAizAAgxxlN/fmQH+7B1GbZehBViABRjCeCi/v/Oq8PkBfu8FWIAFGIg4sUv/Ksqv3mDUVWABFmABhiBK3wE8e5Z8fYdZVVehBViABRg2cpqXHuBL7jCrqcAC7MwUYIhhF6G/M7YBX7bAr+heaAEWYAGGGLoQAZ4+fk9rVkeABViAgQ88hOjv9F1Ilx7fuRdgARZgINC0LjzAlx/fjZdUgAUYyKcLEuDD8se3r+QlFWABFmAIIMgF6MnbgMccXy0XoQVYgAUYytdEWQAPOY6vkjuhBViABRjKd4rS33OW4ztU8aIKsAALMNQ/qgvfBnyV5VEEWIAFGMg8E0vfBnwqIz0CLMACDPxhF6a/w3OeElWxBBZgARZgsABedxvwqZT2CLAACzAQcwE8KcBTQlTDEliABViAoWxNoAXwpCacyomPAAuwAAP/eQjU3ynfw9FsdcwLsAALMJS9AI7U33O26VXB12EJsAALMFR9chcf4IkDfy/AAizAgAXw9HujdpsdWgIswAIMFsArfg/Hqaz8CLAACzAQbwE84bpws91BL8ACLMBgAbxegHfbnVoC7CwVYLAAXm8bcFdafwRYgAUYCLcAHr8NuNnwpBdgp6kAgwVwKqOPcLfhsSXAAizAUKyHYP0dP0hO5QVIgAVYgIEuWIDHbwOe9XDPAizAAgwsYTfUHuDdlueWAAuwAIMFcCLPmSdXL8ACLMCABfCEbcBd5scTYAEWYOBrp+oD3Gx61guwAAswVDqfy98GvNv04BJgARZgqPOsDhDgf3I/oAALsAADX2nC3YI1fo7MPsS9AAuwAAOJxbsFa/wcyX/btQALsAADS68Oy98GfJX9EQVYgAUYWDxO+Y0dvbv8a24BFmABBpY9pyPsQkpwjL0AC7AAAyk1wwYC3OV/SAEWYAEGPrWLGOCxQRBgARZgAYbSdBED3GcOUPBpL8ACLMBQ4WxexQqr/POWX2QBFmCguDM6xDZgARZgp6sAQ2lCXoH+nnlsRb8NWoAFWIChOCFvwRo9eU9r3PglwAIswMDCa8PsntdY5u8FWIAFGEgmZH/X2AYswAIswEBCu00EOM13jQQe9wIswAIMpTnFDPDIHqTZahX4zzEIsAALMBSmidnfNb6HQ4AFWICBdIJegT6vcpiBZ5cAC7AAQ2FOArzw7Dq2k90KsAALMNQq6hXosReDr1cL8MOcB0xXYAEWYAGGsgS9Aj168Cba7NznfofTp3qhBViABRjKEvQK9Ogduae1ArzLe5wCLMACDDFEvQK9VoAPucflswALsABDlaJegR6dg9UCfCokMAIswAIMRYl6BXr0teAuaICT7TwWYAEWYChKFzXAKx3oXoAFWICBBMJegR49RKIG2CVoARZgcC5H3gZsBSzATloBhpJ0AizAAizAQHZXUfs7PG8lwC5BC7AAQ42uwwZ4dAitgAVYgAUYytEJsAALsAAD2YX9GqwJXwnpErQAC7AAQzF2AmwFLMACDMQ7kwNtAxZgAXbaCjCUoxPg5SvkErQACzCQeiQH2gYc9o8xWAELsABDfQJ/BDx+7AqwAAuwAEMpTnEDvM8+tabe/OUStAALMPC3QYDLD7AVsAALMFQn8BXoCTG4XunmLwEWYAEGllkTxtgGnOjtRv4AuwQtwAIM1Ym7CWnKCNlZAQuwAAswFGHV76E8D13mEZJmz9WEHAqwAAswsMCScMx537Y3d/f3T09PzU8v/3p8vLtrX3SLVylqgF2CFmABBqfxnPbe3D31n/wy/dPj3YgMT5i6aRb8z1bAAizAwMqT72LtzX1/YSSfXiq8UAfTHO9egAVYgIF5Mn0EfL65H/uL3X29Ep7QwagBdglagAUYKpPlI+D20rXvXx6PbfIAn1Ic0CH741oBC7AAQ2Wuc+R3xgL96dilbUGSz7zzh1+ABViAoTJdyfn92eC7D5fBU9bVKZb8U0aXS9ACLMDA75b+7Pc+xS959f7HwZMmSIoAT1mOWgELsAADKcfx5276RL9n896V6EkTJMVdZ1OmvQALsAADv1n0I+BzylndHBNNkAQX3fcCLMACDMxzirD8/ZXgNkmUEhzyIf/DCrAACzDUZbl7sM636X/bq3b293AkuQ16yjsLARZgAQZ+W1TGuPz85o+PgveTfsT8u7AmTS4BFmABBlLG6KOTu1/oN/7to+CJA2T+fWeTYijAAizAQLpzOHt/Xzx2M2fu7Mvuk1beAizAAgwkbFH+/r4tgvu1DnpSggRYgAUYeBOxv78WwZNv8pq99WrSowqwAAswkG4Yr9PfF8cZ33C5W2VwCbAACzCQLEWr9XeWubd+PwuwAAswMM8SX8Ox0P6jgob9XoAFWICBdadeujxFmlyrvNkRYAEWYKjIEl/DcRvguK/WSKEAC7AAA78s8BHw9xAHvsYSX4AFWICB5QJc/A1YCWJ4WOExBViABRiqkv4erH2MA9+tMLYEWIAFGEg19EJ+APyqWWHSC7AACzCQIEPBz+hT/v4IsAALMJBqFOcZzUvY5Z9aAizAAgzMrlDkO6B/yvw1WAIswAIMpDuBY94BPfPYJx+kAAuwAAOJZl7MO6Dnrf6nd1CABViAgf/b6h1Ycwb+9HcZAizAAgwkmsSBF8BTl8AzZpYAC7AAA3MSVMMdWK+m7cGasdFZgAVYgIGfrje6BWnO+OoFWIAFGJjrtOUF8LQQ/bve0y3AAizAUI1u0wvgSUU85H04ARZgAYYaNdteAE8p0ayjFGABFmAgzSAOvgCekMRegAVYgIHZdhtfAI+/BjBvxguwAAswkOT0Db8A/vbtYdy8mrUAFmABFmAgSRBqOJObUVP/dtXnW4AFWIChFglvgt5HfQ52GceVAAuwAAM/Vn8WwOOqeMj3UAIswAIMFUt4E/Rz4Gfh4rl/O/ehBFiABRh4lfAm6H4DT8P8YSXAAizAwKvrje9B+uV42ayaXx0BFmABBhL0oIZbsEZM/v3qT7gAC7AAQyWS3QQd/TS+ZC/SbYLHEWABFmAgaYDDT76vb8S6KeCSgwALsABDHdLtQjqEfy6+KnCS/gqwAAsw8CrZTdA1nMWfFzhNfwVYgAUYSBrgfQ3PxmcFTtRfARZgAQZSnLxVbAJ+03y0G+l8n+ohBFiABRj4lm4XUjUn8fHdArR9Kc+4AAuwAEMdOlegv14Et/cJf74AC7AAAy9cgX4nTX+ugpPmV4AFWICBH8s9V6DffVoe27Z9Pay2vXlK/LMFWIAFGEh3E/Rzhe9NmqZfYl0vwAIswEC6AB88lQIswAIMXO7aFWgBFmABBsLVYMNTT4AFWICBFcdddZuQBFiABRgIFODeMynAAizAwOUS7UL67pkUYAEWYCDnEK52E5IArxTgkwALMGxCol1IB8+kAFsBCzCQPcBOYAG2AhZgIOup6yNgAbYCFmBgheWGTUgC/D/27jU7VWQNwHArGQBkMwC8DABjBqBZzn9MnV7nsvqctdsg1IWinrd/d7JVqMePQmMCBrCkDOOGLWAAm4ABLCkXwM5fAJuAASzppcJ8DNgWMIBNwACWlAHgmycSwCZgAEt6pTCfQho8kQA2AQNYUnqAR08kgE3AAJb0Sm/uwQKwCRjAkso7c2td8QBsAgawpKyLna/hALAJuCqAm+vx+N79p+PxdB2d0lKWxc49WAA2AdcC8Le9Xfeb//vb4avTWsoCsOtXADYBbx7g5tg9e2W67mQSll4qyMeAfQ0HgE3A2wb4W98JP+X95OSWEi7B7sECsAl46wB/dFNfE2OwlBjg1vMIYBPwZgGeMvz+jeCjE1yaVpDv4Rg8jwA2AW8T4ObSvfrDOheipWQAuwcLwCbgjQJ8mfVuqBud5FL8ExfAADYBbxbgj27uz3t3lktJAHYPFoBNwBsEuOkW/ERDsBR9rXMPFoBNwNsE+LDsdbjbCZYir3XuwQKwCXiLAC8af//VL2e6FB3gwq817buZvc9+4AuFuU//N55MwACeA/AlxMpgI1h6Vogvwir8Hqzd/JXmPlfgEBf+Q0whVU7ATTf7Hdfih3uY/avTAtwcwhx9X6M1VooKcNlfRNn0GR56QoCfvkmocQJe8oLfFz7eQ7RDLSzA+z7U4UdgKeIKXPwFv0sOgBIC/PTlqXECPodz6uWLLfFudQwK8KVP9AZQqrsQ38PRFv0M9OnffHwcEvr71IwKJ+B9xoO9j2d/SIDDHp4ElmICPJT8BOzj6fZP/HaPtA0m4HBSfeU71to0ADeh3x52llkpHsBFv8P9TPzgk/P7dOGucALuk7/j+m9vES+sBwO46YMfgO6FluKct8XfBH1+RBxL1sDv04W7vgm4yfiIFz6srxQAR/DX54GlSEtd8QD3CQHOwu/Thbu+CXjxI26zPax7AoD3fZRDkMBSJIDLvgk6HcCZ+C0R4IgT8K5cgB/xAY7k7+KPb0nbLMAJdyv58Tep1uNs/JqAATwV4Fj+uhVaigVwW/LjTwNwc+kfDwCbgOPd8BcC4H2f5SCUqi3AqVX01aUUADfHnPyagE3A0wBuoh6mtoGl4P48Sv9TDNHX4+aQl18TsAl4EsBN5ON0sNxKgRfg0m+Cjj0B5+fXBGwCnnQaxz5Q75ZbCcAJAV4DvyZgE/CU0zj+16O6CC0FXo6K/1tIEdfjdfBrAjYBryQXoaXQABf+x8+jrcdr4dcEbAJe/4EoATj1grThCXg9/JqATcBrqbXiSmFPWwDHmOFMwADe3ATs6zik0KftUPQTEAngywPAJmATsPuwpIijxqP0jwHH2QNuHgA2AZuA3YclxQW48E/3xZmAdwA2AZuA3YclRV0SANxGurBgAgbwBidgI7AUEuDC39LGAbgHsAnYBGwEliIDXPjHgKPsATcPAJuATcBGYCnq/Pd43EzA4VkzAQN4oxOwEVgKCHBb+TMAYBOwCdgILAEYwCZgE7ARWCqivfezADYBm4CNwFL6AnxedTQBA9gEbAKu575NaT0A134RHsAmYBNwVW/apdUAXPj3cAAYwCZgI7AE4CwBeFGna4xcgt70BHy38kpBztrSb2k0AW8xE/C6ay29UoiztvSrSQAGsAnYCCxl6AxgAAPYBJy6wdorBQC4+ItJAAawCdhtWBKATcAABnAFE7Br0FKIP4YEYAAD2ATsNiwpA8ADgAEMYBNwuGNSAnCIN+VFBGAAm4DTN1p9BeDqzyMTMIBNwK5BSwXqU/7NFAAGsAnYbVgSgAEMYADXMQG7Bi0AA9geMIBNwDm6WX9VefuYa7sJGMAANgG7Bi0BGMAANgG7Bi2tpl3MlQ7AAAawCTjGEykBeBMA2wMGsAnYNWipRICLfxdrAgawCdg1aAnAAAYwgGuZgF2DFoABDGAAm4BXdlxKAK7iTSyAAWwCtgksJW/5STuYgAEMYBOwa9ASgAEMYBPwBl4mCcAV3MgIYACbgF2DlgCcIwAD2AScqdEarIo7Lz6DFoyeH8f4/XyCm4ABbAK2CSwVCPD8a0hNn+IEvw8ABrAJ2CawBOCgw3eYfyCAAWwCtgkspa/PdgLtUp3iv+wBA9gEbBNYAnDqAfjnf6EJGMAmYJvAUoEAz/4yuXSn+ABgAJuAbQJLAE6/7rcABrAJ2CawBODUW8A/v8cGMIBNwDaBpfIAnnsF6W0V+piAAWwCtgks5SnbFs4ngAEMYBOwTWDVWwNgAAPYBGwTWCoR4LZ4gO0BA9gEbBNYArAJGMAArmoCLv8PmkoABjCATcAldrMOq9L2AAYwgE3AKz04JQDbAwYwgE3AsXIXlgBsAgYwgE3AORotxAIwgAEMYBNw+loLsQA8rwHAAAawCXhBNwux6mwHYHvAADYBr/XolABsAgYwgE3AsXIXlgAMYAAD2ASco9FKLAAnPXcADGAAm4CXPqESgO0BAxjAJmAASwA2AQPYBLyNF0sCMIABDGATcKzchSUAAxjAADYB58hKLADbAwYwgE3AGRotxQJwyveuJmAAA9gEvPgZlcrtAmAAA9gEnLmbpVgm4JS3TwAYwAA2AU/bJZJMwBsF2B4wgE3AeXMbtKrsE8AmYACbgAEsARjAAAZwfROw26AFYAADGMAm4By11mIB2B4wgAFsAv593XcAlgBsAgawCTjVKXXv3o/Xb/rHP8bmeuz6tC+XBGAAAxjANU7A9/fT//3S5qNLfY5KAAYwgAFc1wTcnX77qz5CT8FugxaA7QEDGMAm4J/4/atD4F9lLRaATcAABrAJ+Ed+ww/Bo8VYAAYwgAFsAv7rzP71w0PZBxW4tRgLwAAOtHY0xXAEYBPwb3r/eSRtegBLAF7hHvAf6+LoBmAT8Cun9WnKgwk5A/sckgBsAg62Hver4qgFMIBf2P2duCO7A7AE4BUC/LkqjkYAA3hyvyY/nEuw18vnkARgAAdbj1fl2rNnAMAAnnH5+d/nTg9gCcCr2wNe1TXoFsAAnnpGD688nnBHz2g1FoBNwKHW4xXB9pVmCQXwBgC+vwjhOdQLNliNBWAAB1uPd2uZgZ/fUgNgAE89VmJehAawAAzggOtxc33WwtHhfp3amOoiIoCLB/jr9QvBoe7Daq3GArA94FRLxznug8qwiwfg0gGec1CFGoFvVmMB2AQMYABXCvCM+TfcmeyDwAIwgAEM4EoBfvX+q1DnT+ADWgIwgAEM4KIAnulvqBuhfRBYALYHDGAA1wnwV94jCMACsAkYwAAGcNoH9fNDkwAMYAADGMDhn1AAC8AABjCAAfx6YW7DGizHArA9YAADGMDpr0G3lmMB2AQMYAADOP01aAALwAAGMIABnOEa9M1yLAADGMAABnD6a9C+CksAtgcMYAAD+MXeEpymEoBNwAAGMIAjHES+iUMAfjkAAxjAtQMc4ho0gAVgAAMYwABOfDQDWAAOviKUAbA9YAADeOERFeKDSKP1WACuDmATMIABvPCI2gNYAjCAAQzgDEdUgE3gwXosAAMYwAAGcHqAW+uxAGwPGMAABvCLvQFYArAJGMAATn9E7QAspWdwADCAAVw9wAG+DvpmPVZlXQAMYAADePkR1cd8ySQAbxRge8AABvDiI+oc/TyVttYOwCZgAAN4+RH1CWAp+QTcZjtfAQxgAK8G4OXv5X0XpUzAAAYwgAGc4TgCsABcH8D2gAEM4MVHVANgCcAmYAADOMMR1QNYAjCAAQzg9EfUefFrNlqQBWAAAxjAAE5/RgNYALYHDGAAAzjDWjJYkAXg17qZgAEMYAADWEp/0sz9/jgAAxjAWwJ4+YHUWpBVV3sAAxjAAA5xRAFYArA9YAADOMMR1QNYSrz6zj1tTcAABvCmAD4DWAIwgAEMYABLAAYwgAFcBcCfEV8zaYvl+wJXe8AABvCmAN4BWAKwCRjAAAawBGAAbx3g90OEjj2ASwN4H/lElQAMYAD/b0OUI/MM4NIAbgAsvdZy3ooH2B7wGgE2AQNY2nr9Yt5GEzCATcAAXv7g/EFgARjAADYBAxjAUgEAz1x/AQxgEzCAASwAVw2wPWATMIBDHFFnAEuJAZ65GpmAAQzgbQH8CWAJwAAGMIDTH1FvAJaSXjUCMIABDOAwT6z1WACuDWB7wAAG8CoAHi3IAnCwlc4EDGAAAxjAUiwHAQxgAAM4xKEEYAE4zXkLYAADGMAAFoAznLe71QBsDxjAAA5xRDXrPJSk1fa2mLeZnx1YD8AmYAADGMBS+na5AN4DGMAA3hTAix8dgAXgNAAH+AoQAAMYwACWKgZ4/X8OyR4wgAEMYAnAGa5Bm4ABDOASAG4tyAJwogX4AGAAAxjAAFa17fMBnExgAAMYwCmOqDOApcQAzz9rrqdJ//3J3r0eNo1tARiNHwXEQQUEowI8iQtIQP3XdIG5f2YmQGLtrfNaXwFgOdZZPg/bUy7A9oABDGAAS9t3KAnwO7vmAmwGDGAAA1hqEuCX7Mc4AxjAAG4A4CuApQ+1HuBv2Q8RwAAGMICl/ppWA/w1+yEmA2wPGMAABrDUJMCv2Q/RDBjAAAawBGAAAxjAAE55ZgEsAAMYwAAGMICl9ObVAKf/jLY9YAADGMASgPsD2AwYwAAGsFSg63qAH5MfIoABDGAASwAucNsAGMAABrDUX7vhAbYHDGAAA1hqE+Dsr8IyAwYwgAEsATjTAgADGMAAlgD8/rI/CAxgAAMYwFJ/7YcH2B4wgAEMYKlAAb9HuJgBAxjAAAawVADgC4ABDGAAA1j6YAEAP+Y+QgADGMAAljpsWg9w8n1jDxjAAG4B4D2AJQCbAQMYwGbA0ggAJ38TB4ABDGAzYKnD5vUAf637EQIYwAAGsNQnwK91P0J7wAAGMIClCruODrAZMIABDGCpRAHfRZn8QWAAAxjAAJYAXODGATCAAewUtATg/gC2BwxgAJsBSyUK+DWG5cUMGMAANgMGsLQ9wLmfQwIwgAFsBix1WMSvMeQegwYwgAFsBiz12DQ4wPaAAQxgM2CpVYBzP4dkBgxgAJsBSwAucOcAGMAABrDUYzOAAQxgAANY2r5rAMCpv4dkDxjAAAawBOBkDsyAAQxgAEujFPFVWKnHoAEMYAADWAJwgWPQAAYwgEcA+NForOGK+Cqs1FvHHjCAAWwGLAG4wK1jBgxgAANY6rGI76JMPQYNYAAD2BK01GVTAMCZp7AADGAAA1gCcH8A2wMGMIABLJVpDgA48xi0GTCAAQxgqcuuEQDf5z0+AAMYwACWAPyrXgAMYAADGMDSprdNLAibA2wPGMAABrDUMMCJp7DMgAEM4BEAvhiMNV4h38SRePMAGMAAbgHgI4CljxbyTRyJp7AADGAAtwDwFcDS5qNC8ikse8AABjCAJQAXOIVlBgxgAI8AsKFYIzZHAPxa7cMDMIABDGCpY4DzPkMAYAADeACAXw3FGrFjCMD3WQ/PHjCAAdwCwDOApQ8X8kHgvF8kNAMGMIABLAG4wO0DYAADGMBSn8V8E0fahwgADGAAA1jqtBiA75MenT1gAAO4BYAnAEvbDwu5m8BmwAAGMIAlABe4fwAMYAAPAPBXI7GGbA4BOGsTGMAABjCApU47Vr0JbA8YwAAGsNRpMZ9DytoENgMGMIABLHVa0OeQkjaBAQxgAA8A8DcjsYYs5heBs8ZiAAMYwA0AfFgALBUYF1I3ge0BAxjAAJYAXGATxwwYwAAeAOAXA7HGbI4BOOeDSAAGMIAbAHhf7nmVWu4aBHDKLQRgAAMYwFKvBX0OKWcXxx4wgAEMYAnAvy/lg0hmwAAGcAMA7wAs3VLU55BS7iEAAxjAAJa6LQrgjDVoAAMYwACWum0KAjhjDdoeMIABPADAj8ZhDdocBHDGu1gzYAADuAGAjwCWitw7mWvQAAYwgBsA+Jp4cVLPRR2DzliDBjCAAdwAwDOApTLDcOIatD1gAAN4AIANwxq1sM8hJXwftBkwgAHcAMArL+7VMKxhm8IEDl9IAjCAAQxgqd/CjkHHr0EDGMAABrDUb9cwgMPvI3vAAAYwgKV+CzsGHT8imwEDGMD1A3xYKnlJS80Vdww6/EYCMIABXD/AewBLhd6+Jh7DAjCAAQxgqePijkEvL00BbA8YwAAOeEXt8v5kUu/FHYOOPk1hBgxgAANY6ri4Y9DRn0QCMIABXD/Ax6pGDampAo9BB0+BAQxgANcP8BXAUrGBOO1esgcMYADXD/AMYOnmIgEOnQKbAQO4KoBfAJxxbQDWyE2RAkfeTAAGcFUAfyt3WT0D/GgM1sBFnsIKnQIDGMAArh/gJfHapN6LPIUVOgW2BwxgAFcP8AHAUsGROGsKbAYMYABXD/Dqp9UQrJE7hAK8fAIwgPsE+Gu5y+oYYD+GpLELPYW1vIatKAEYwACuHuAjgKWC0GURYQ8YwACuHuArgKWCa0hZ57DMgDOHKwBv+dx3DPC8VPKWUgJwoBEABjCAqwd4ArC0ouBTWGHnsAAMYADXDvDq28iPIWnwpmiBY8Zme8AArgrgpdxl1Qvw6tfRiwFYY3eNBjjmJLQZMIDrAvhS7LLqBbjkT1xIPRS9CRy0rwPg2FkYgMtdcr8AHwEslR2Lc7aBARw7CwMwgOMBnut8HUntFA9wxG1lDzhzvALwlpO1fgGeACwVvone2Ktcf1+ZAQMYwJUDvP4jFBfjrwbvuiQIvPrGAnDmlhmAQ//xUQFev31l+NXo7ZYaBe4T4LVvdl4AXAzgr8Uuq1qAS364Wuqjw1KjwPaA0w6YA3hjLLoFeAawVHrYe7vTpei93ecMOGrAAjCAAwBePXL4JkppTgF45RwYwACOBDjg03aXUpdVK8Dr1858E6W0W5IEXjNKAzgTPgBvec29ArwDsFR+NP6lwF+qBfiuUYDvK/mTjwjwfanLqhXg61LJy1lquSlL4OXBDDh2yAqaMgB4y+e+V4AnAEvrm9MAvn0Z+grgxE1gAG+JVacAl1zVl/rpuCT2cLnlIR0mAMeeBBoc4IAP272WuqxKAd4BWKphOP5tp4/vBB+e0j/gUAbgkl+ICOBSF90pwAELZxeDr3S35PbBw1hPnwM2peucAddybhTAW7756RPgkmsKUk/NSzbB712IPjx9PoX8j70CHDNmAXjDNz9/LV0CvAOwFNJxye90fv6Dic/f8Q07kN0rwDFr0ADezov1f/NEgF/L/bEWX4QlxYzH7zT4dP5yeUve5/P5dDqF/l+97gHHDFrjARzyWbtbrno/1Qzw7S+ngksKUmct2/Vd2tPDw/n88PBw+tk0TQn/Tbcz4PW/KZeYAQAADSJJREFU9AjgW3u5wamA/zcT4OXTjX+ra5nnU+qweemtbgEOWYMG8EYLthH+5gJ8q8BTJS9lqf12AN5k7NgXUQDAQWB8+LJD/E0G+DaBQ0YMAEtRMDQF8F27AEcMWwDeZNPyELOylAzwTQIXeT8jddo0GMANz4AjdoEBnGBhlr/pAN/wle277Z9Nqd+uAN4C4EPItX1a/eceEOB586c+Zv15C4A/LHDMpfkYsBT5jhbAmwC8nj8A568+hPm7AcDL6WOT0aAn07grRcpgD3iTpf7Vi9ADAhwk1bt3gfdh/m4B8Md+tmy/zT0qDdM0FsCHpgFePXQBOPvK/wq8obYA+COr61Fze9/DIf2/I4AbAviGYzOjAxz1An/X6sPhc+RreRuA378MHfUivjfsSqGrSgDeaKHhoexfuz2Adxs+80/T0iDA7/3VsnkBsGQNusE94LDBa3nv70sBOBjgPwocO/3dEOB3/XZ34NU9GnWllDvZDDgb4I8dmwFw4Dn/3wv8Ofyt7GXD2/b0h79s4NmyxaArJQxQAN5mvLx9EjwgwJF7LL/eBz48TfGv5S0B/v6q+t0sOPJsmU8hSXEkAXjzdYbXh7d/Y/n56fwFwHkAf3/iL28vz54yXsvbAvx9Fvyrd3ZPoZcHYCllddQe8FbrDK+n8z8MPjyfP//9y8q/PdM6IMDBbzD/+97ncD4lnaPYGuAfr57zf97aPUWvrfsUktTrGnSlM+CMJ/n1dHo4f+/Hjyu/c6cSwCETxS/Pl8vPdz0/3vZMaa/lAgD//bI6n59/9iXl8l6MuVKna9ADAXwDkgMCnHTMfzqdpmnK/UOWATi9e2OulD1CAThtJ/J2jgDcUp0C/GjIlTpdg650D3jLZYZXAAO40cuSrEGbATcN8G9GuBEBngFcVQ5BS92uQVcK8KbP8T2Au6CqT4D9FpLU7Ro0gAEM4JrzKSSp2zXoSveAAVwM4B2Aq+regCv1ugZd6wx4BjCAAQxgqec16FoBvgK4EMB7ADdzVZI1aAAnALwDMIAB7BC0VHaBdMw9YACXAvgOwC3doJI1aDPgaID3AC4F8ATginIIWupnltAKwAcAAxjAzmBJPa9B1wrwHYBLATwDuKIeDbZSt2vQte4BbzkPA3AfVl1Guyhp1KYxAC43A54BXAjgHYDrySFo6Y2OAM4F+ApgAAPYIWgpY2gGcDWL/ADu46XdI8Avhlqp7BLpkHvAAC4F8AHA9XRvpJV6WqhrZAa8B3AhgJs939AjwBcjrfQWTROAMwE+ABjAwwPsDJbU13vqRgDekAEA97G70iHAzmBJxddIR9wD3pABAP+zI4BryRdRSp1NFBqZAV8BXAjgHYBr6d4wK/U1TjUC8A7AhQDeA7iFS5LGbgJwIsB7ABcC+A7AleQMltT1FLjePeADgEsBPAG4jbtTGrgePolU7wx4OwYA/K9mANsClmrvCuDEIWQGcCGAjwCuo0djrFTBNuWIAF8BXAjgHYDryBAr9bdW18Qe8HYMALiPN5bdAWwLWOp7ClzxDPgA4EIA3wG4il6MsFLXU+CKAd7sFBaASz3zAE67eaQB2gEYwP0BfAVw7Rckqf0v46h4D/juCOBCAO8AXEG+hkPqfApc8wz4f+3cYXLbthYGUFPsAkRaC5BtLUC2vIAy6f7XVNtJZ9rGkSkS4AXBc2ZeO/N+1CEC4sO9AN0I4KAA3glgR8CgBN5yALcCOCiA7wSwI2BQAm85gJfa3AjgX5wEcDyLK1ReApd8BrzUqimAq8ir2gLYV8BQewlcdAXcCOCgAG4EsA40KIG3HMA7ARwUwK0ADne0tEIxMbHBAF5obyOA69hV1hXAPkKCUU71BnDsGfBCy6YArqJirCyAv1tYofYSuOwKuBHAQQHcCGBHwKAE3nIAtwI4KIBbAVzw0wD/Wq0OAjjPPv4ggGMCeI2HwFUFsI+QYKxnZ8B5AvhVAAcF8KsA1oGGdThUGsDRFXAjgIMCuBHAOtCwDo0AzrORF8BBAXwngCP5CAlucBLAWQL4JICDAvgkgHWgYR12dQZw9BnwIq0FAVxHU6emANaBhls8VxnA4RVwK4CDArgVwDrQsBYHAZyjlXYSwDEBvL4JXVEA60BDec3SDQZwI4CDAvgPAawDDWvxWmEAh58BL9EJFcB5Hl4A53orgV+iYo1N6O+lV8AL9KAFcB096HoCWAcaNtGE3hcfwI0ADgrgZwEcxFoKJRZryR2LD+BWAAcFcCuAi2xLAVU07b7+3KGAZtqrAI4J4LVN52oC+GglhQlWd2/lPncRtF/BoArgOs5UaglgHwHDNCs7NvvytmUJAZy9EBPAufofAtgVLFjQqo6Bh/MqArgRwEEB/CqAFcCwHmv6FmkYEQ8lBHArgIMCeLfdAB7CXmRXsGCyFa1ZI8KxiAo4d/kigMO6/+UG8PemxMcArlvNMfD9iIcpI4B3AjgogJvtBnDU5sNvwYI5VnIM3C/S/d2vYEgFcKEl8BAawEG9rKMVFCLXx5I22mUE8E4ABwVwaD9nf4gL4H3QsyuAYWZcrCCBv51HPUohFXDeElgAZ5wAs85IYgM45ELl3voJJRdsSZp754XW3/0KRlQAp0yulLVgbABHvMe+QYLZnivJ32ICOGsJLIBLLIHf5+gpNoAD3mMFMNSewKPzt5Qz4LzFiAAusAT++Ej9NS6Aj0lG2gkwRHioI3+LqYBzlsAC+OoUiLnRcLw9NjME8NLXOY5WTqg7gW/I34ICuBXAMQEc0815+vjRTVwAnyMeXgEMhaySJeRvQQGcsRUqgIsrgX/+kpjAAA7ZSCuAYQVN06Xyt5wz4Jw7GgF8XROVv4EBPERspO8tmpCsaVpiDTzy+98CK+B8OSCAC2vm9NP+yvME8HKv8Y17Y2BlXej+xne8pADO1lIQwF/YBeXvjT84TwAvdxFrb8WElEq7idXf+gBFBXCuWkQAf+U5aJK2YQH8bfmndwMLEnehy0rg28+YigrgXCuhAC7pNKWfPP1yBfAyCTwcrZdQbw08PE3485fVVjsJ4JAAXvAeVj/9SVMG8PfFOwAa0FBxAk/aYc8ufdIuK3kqMQFcThO6n/GkKQN4v/RbrAENOTyXcRWrO4es9Yn39TsBHBPAC10o7Of81IwBnD2B3YCGPF5KSOA+aK1P3Vh7FsAxAbzIMfD9rDOHnAGcO4E1oCGT+A+CJx3/FhnAOY6BBfAYTUD+3pabKQP4uOxZkl/BAfkSOPggeGL7OUXepU+ggwAOCeDsx8Cf7RLDAviT/1bGl9gBMOQUehDcz/iD/zHzZ5+TD2X6foIAHifvNvLTS4I3ld136QJ4WPT5HQBDXruwBJ7efk7QeBzWMJS/D+DZn0HnWVmjzgVOGafp512aJtVca1LM2+cFtx5ABW3oW3/55P8V2FtLncD7bFE35JlLp6AAzniZoZ/fgkgZwN8WbGTJX1hAxG3oeeXv/MX+zzW0E47Zoi7T2d7c+1CT92S5Eni4T9CCuNpYb9PM2xyNLPkLdRbBc8vf2Yt9nhZs2nVwyBd1+0yPH1aX50ngKzXgIdVgH9KEYtvJX1AEjzlWS/JuzykCs93uTBkE39IVTgvtP2Z2xmdtC7plt4nPqbYVTaotSuJd9JNVERbzsFgED4m+LZyRdRlPtxJWIlfzaNa9m2xfd84qzGfeuX1YdJ62qQb7pml8fUokfIWd/0KVfegE3ee5WddlXV1SjeOQrdgcynz4YyEDf+328+17jS8Huxn/N9kvtfmTv7C0XbdA/CZ9s18eu9v1j+e845imn/9VPdg+dBP1OZ//ZeqfKsGuKOFByvD1N+q/9IyGvw7Dh4/HOXTd8PaPEYO9G/0Xt1Qfy/e/EOAlcwR32zhYSlCJDL3ZGDLw48rfD5ef2vOlbe/O7/87n9u7j3+dgyLskmIEzD2oL4K77dzrmFuJZC1SDXz2b+Qi3+DDlp8eVm7XHcRvaC029EfTcPr0nd98WPfup523CenOJhGs9w2ucVFbsJcw9BdTcI6Zl4ErmKmX6S+w8hfWmx6/2VTnvvZUzyAOms+hG8i+jgDaPdgnw6pXsS5V8bvdTfWtEdzdWwAjI7iiY5IJQyB+oSCXx9nHwW/pu+2X+oZ9TKf3nHDcb28/1JY/7WMnfmHlGTy9EO62nr4/y+AxGbzlPkG2cT9s/ZjkZfT2b6OnRFD8RnpSCA/quf8WI93VsZK+eQJo5MyteLKOyOBB+kLZlfDbezy+l9o9Ct9fQ/jl8W0MD/9f+7QJgns4Q/WztX17eQ+/fVfNP1hLLfz+6w8P16K3e/Q+fzGIT4//eLoYq4X2Pp/O22FDW8Uf7253+DEKP35dZm+jDGtbzc6Xy8tbejz8+3cRP7z9Hxdv8w1Eb8C8fd/79H3fPfQbna+Xtm3ff3fm+6/MBAAAAAAAAAAAAAAAAAAAAAAAAAAAAAAAAAAAAAAAAAAAAAAAAAAAAAAAAAAAAAAAAAAAAAAAAAAAACjN31LSrSNzfm3jAAAAAElFTkSuQmCC;" vertex="1" parent="Ybopkq_XPydpxg8CJSxO-26">
          <mxGeometry x="5.779999999999973" width="124.44" height="70" as="geometry" />
        </mxCell>
        <mxCell id="Ybopkq_XPydpxg8CJSxO-17" value="Remote Repository" style="text;html=1;align=center;verticalAlign=middle;resizable=0;points=[];autosize=1;strokeColor=none;fillColor=none;" vertex="1" parent="Ybopkq_XPydpxg8CJSxO-26">
          <mxGeometry y="68" width="130" height="30" as="geometry" />
        </mxCell>
        <mxCell id="Ybopkq_XPydpxg8CJSxO-27" value="Motors" style="text;html=1;align=center;verticalAlign=middle;resizable=0;points=[];autosize=1;strokeColor=none;fillColor=none;" vertex="1" parent="1">
          <mxGeometry x="840" y="378" width="60" height="30" as="geometry" />
        </mxCell>
        <mxCell id="Ybopkq_XPydpxg8CJSxO-28" style="edgeStyle=orthogonalEdgeStyle;rounded=0;orthogonalLoop=1;jettySize=auto;html=1;entryX=0.013;entryY=0.401;entryDx=0;entryDy=0;entryPerimeter=0;flowAnimation=1;" edge="1" parent="1" source="Ybopkq_XPydpxg8CJSxO-18" target="Ybopkq_XPydpxg8CJSxO-19">
          <mxGeometry relative="1" as="geometry" />
        </mxCell>
      </root>
    </mxGraphModel>
  </diagram>
</mxfile>
